<svg width="631" height="346" viewBox="0 0 631 346" fill="none" xmlns="http://www.w3.org/2000/svg">
<path d="M69.2152 9.77C68.3052 10.0033 67.6052 10.3533 67.1152 10.82C66.6485 11.2633 66.4385 11.8 66.4852 12.43C66.7885 12.8033 67.1619 13.1067 67.6052 13.34C68.0719 13.55 68.5619 13.7367 69.0752 13.9C69.1919 14.32 69.2035 14.7517 69.1102 15.195C69.0402 15.615 68.8885 16.0117 68.6552 16.385C68.4219 16.735 68.1419 17.0383 67.8152 17.295C67.5119 17.5517 67.1969 17.7033 66.8702 17.75C66.3802 17.7267 65.9019 17.6333 65.4352 17.47C64.9685 17.2833 64.5602 17.0267 64.2102 16.7C63.8602 16.3733 63.5685 15.9883 63.3352 15.545C63.1252 15.0783 63.0202 14.5533 63.0202 13.97C63.0202 13.27 63.1602 12.605 63.4402 11.975C63.7202 11.3217 64.1052 10.7383 64.5952 10.225C65.1085 9.71166 65.7152 9.28 66.4152 8.93C67.1152 8.55667 67.8852 8.3 68.7252 8.16L69.2152 9.77ZM79.9804 19.08C81.4971 19.08 82.7571 19.2433 83.7604 19.57C84.7638 19.8733 85.5221 20.2583 86.0354 20.725C87.1321 19.535 88.3921 18.7067 89.8154 18.24C89.9788 18.3567 90.1421 18.5317 90.3054 18.765C90.4688 18.975 90.6088 19.2083 90.7254 19.465C90.8421 19.7217 90.9354 19.9783 91.0054 20.235C91.0754 20.4917 91.1104 20.7017 91.1104 20.865L90.6554 21.705H86.9804C87.2371 22.0317 87.4704 22.4633 87.6804 23C87.9138 23.5133 88.0304 24.1317 88.0304 24.855C88.0304 25.625 87.8671 26.3483 87.5404 27.025C87.2138 27.7017 86.7121 28.3083 86.0354 28.845C85.3821 29.3583 84.5421 29.7667 83.5154 30.07C82.5121 30.3733 81.3338 30.525 79.9804 30.525C79.5838 30.525 79.2221 30.525 78.8954 30.525C78.5921 30.5017 78.3238 30.4667 78.0904 30.42C77.9971 30.56 77.8921 30.735 77.7754 30.945C77.6821 31.1317 77.6354 31.3183 77.6354 31.505C77.6354 31.9017 77.9154 32.2167 78.4754 32.45C79.0354 32.6833 79.7471 32.8933 80.6104 33.08C81.4738 33.2667 82.3954 33.4767 83.3754 33.71C84.3788 33.9433 85.3121 34.2583 86.1754 34.655C87.0388 35.0283 87.7621 35.53 88.3454 36.16C88.9288 36.7667 89.2321 37.56 89.2554 38.54C89.2788 39.4733 89.0454 40.3017 88.5554 41.025C88.0654 41.7483 87.3888 42.355 86.5254 42.845C85.6854 43.3583 84.6821 43.7433 83.5154 44C82.3721 44.28 81.1471 44.42 79.8404 44.42C78.3004 44.42 76.9821 44.2917 75.8854 44.035C74.8121 43.8017 73.9371 43.475 73.2604 43.055C72.5838 42.635 72.0821 42.1567 71.7554 41.62C71.4521 41.0833 71.3004 40.5233 71.3004 39.94C71.3004 39.2867 71.4288 38.7267 71.6854 38.26C71.9421 37.7933 72.3038 37.385 72.7704 37.035C73.2371 36.685 73.7738 36.3933 74.3804 36.16C75.0104 35.9267 75.6988 35.7167 76.4454 35.53C76.0954 35.4367 75.7571 35.32 75.4304 35.18C75.1038 35.04 74.8121 34.8767 74.5554 34.69C74.2988 34.48 74.0888 34.2467 73.9254 33.99C73.7621 33.71 73.6804 33.395 73.6804 33.045C73.6804 32.7417 73.7738 32.45 73.9604 32.17C74.1471 31.8667 74.3921 31.5983 74.6954 31.365C74.9988 31.1083 75.3254 30.8867 75.6754 30.7C76.0254 30.49 76.3754 30.315 76.7254 30.175C75.2554 29.8483 74.0888 29.2183 73.2254 28.285C72.3621 27.3283 71.9304 26.115 71.9304 24.645C71.9304 22.895 72.6538 21.53 74.1004 20.55C75.5471 19.57 77.5071 19.08 79.9804 19.08ZM84.3904 39.66C84.3904 39.03 84.1921 38.5167 83.7954 38.12C83.4221 37.7467 82.9321 37.4317 82.3254 37.175C81.7188 36.9417 81.0304 36.7433 80.2604 36.58C79.5138 36.3933 78.7671 36.1833 78.0204 35.95C77.4138 36.4167 76.9821 36.8833 76.7254 37.35C76.4688 37.8167 76.3404 38.3767 76.3404 39.03C76.3404 40.1033 76.7021 40.9317 77.4254 41.515C78.1721 42.1217 79.2104 42.425 80.5404 42.425C81.8471 42.425 82.8154 42.145 83.4454 41.585C84.0754 41.0483 84.3904 40.4067 84.3904 39.66ZM76.9704 24.82C76.9704 26.0333 77.1688 26.955 77.5654 27.585C77.9854 28.215 78.7904 28.53 79.9804 28.53C81.1238 28.53 81.9054 28.215 82.3254 27.585C82.7688 26.9317 82.9904 26.01 82.9904 24.82C82.9904 23.56 82.7688 22.6267 82.3254 22.02C81.8821 21.39 81.1004 21.075 79.9804 21.075C78.8138 21.075 78.0204 21.3783 77.6004 21.985C77.1804 22.5917 76.9704 23.5367 76.9704 24.82ZM101.941 37H92.2813V35.635C92.6313 35.4483 92.993 35.2967 93.3663 35.18C93.7396 35.04 94.148 34.9117 94.5913 34.795V21.985L92.2813 21.705V20.34C92.6313 20.2 93.063 20.06 93.5763 19.92C94.113 19.78 94.673 19.6633 95.2563 19.57C95.8396 19.4533 96.4113 19.36 96.9713 19.29C97.5313 19.1967 98.0213 19.1267 98.4413 19.08H99.6313V34.795C100.098 34.9117 100.518 35.04 100.891 35.18C101.265 35.2967 101.615 35.4483 101.941 35.635V37ZM93.9963 13.76C93.9963 12.9433 94.2763 12.3017 94.8363 11.835C95.3963 11.3683 96.1196 11.135 97.0063 11.135C97.893 11.135 98.6163 11.3683 99.1763 11.835C99.7363 12.3017 100.016 12.9433 100.016 13.76C100.016 14.5533 99.7363 15.1833 99.1763 15.65C98.6163 16.1167 97.893 16.35 97.0063 16.35C96.1196 16.35 95.3963 16.1167 94.8363 15.65C94.2763 15.1833 93.9963 14.5533 93.9963 13.76ZM112.022 37.42L105.022 21.705C104.346 21.4717 103.727 21.1917 103.167 20.865V19.5H112.372V20.83C112.069 20.9933 111.754 21.1567 111.427 21.32C111.124 21.46 110.774 21.5883 110.377 21.705L113.632 30.665L114.297 33.01H114.367L114.927 30.63L117.902 21.705C117.529 21.6117 117.179 21.495 116.852 21.355C116.549 21.215 116.257 21.0517 115.977 20.865V19.5H122.732V20.865C122.499 21.0283 122.207 21.18 121.857 21.32C121.531 21.46 121.157 21.5883 120.737 21.705L114.612 37L112.022 37.42ZM139.582 34.06C139.395 34.4567 139.092 34.865 138.672 35.285C138.275 35.6817 137.774 36.0433 137.167 36.37C136.584 36.6733 135.895 36.9183 135.102 37.105C134.332 37.315 133.492 37.42 132.582 37.42C131.135 37.42 129.852 37.21 128.732 36.79C127.612 36.3467 126.679 35.7283 125.932 34.935C125.185 34.1183 124.614 33.15 124.217 32.03C123.844 30.91 123.657 29.65 123.657 28.25C123.657 25.2633 124.439 22.9883 126.002 21.425C127.565 19.8617 129.735 19.08 132.512 19.08C133.702 19.08 134.81 19.2433 135.837 19.57C136.887 19.8967 137.75 20.4333 138.427 21.18C139.127 21.9267 139.605 22.9067 139.862 24.12C140.142 25.3333 140.13 26.815 139.827 28.565H129.082C129.105 30.4083 129.572 31.8783 130.482 32.975C131.415 34.0717 132.78 34.62 134.577 34.62C135.347 34.62 136.14 34.5033 136.957 34.27C137.797 34.0367 138.45 33.7333 138.917 33.36L139.582 34.06ZM132.372 21.075C131.905 21.075 131.485 21.1567 131.112 21.32C130.762 21.4833 130.447 21.7867 130.167 22.23C129.91 22.65 129.7 23.2333 129.537 23.98C129.374 24.7033 129.257 25.625 129.187 26.745H134.822C134.985 24.925 134.88 23.525 134.507 22.545C134.134 21.565 133.422 21.075 132.372 21.075ZM159.204 37.42L153.709 21.705C153.383 21.5883 153.056 21.4717 152.729 21.355C152.426 21.215 152.134 21.0517 151.854 20.865V19.5H160.709V20.83C160.383 21.0167 160.056 21.1917 159.729 21.355C159.403 21.495 159.064 21.6117 158.714 21.705L161.129 30.665L161.584 33.36H161.654L162.284 30.56L165.994 19.71L167.709 19.5L171.699 30.595L172.434 33.36H172.504L173.064 30.63L175.164 21.705C174.908 21.6583 174.604 21.565 174.254 21.425C173.928 21.285 173.589 21.0983 173.239 20.865V19.5H179.994V20.865C179.504 21.1917 178.839 21.4717 177.999 21.705L173.134 37L169.844 37.42L166.834 28.775L166.169 25.87H166.064L165.259 28.775L162.459 37L159.204 37.42ZM196.801 31.925C196.801 32.4383 196.801 32.8817 196.801 33.255C196.824 33.6283 196.859 34.025 196.906 34.445L199.321 34.795V36.02C199.041 36.16 198.656 36.3 198.166 36.44C197.699 36.58 197.197 36.72 196.661 36.86C196.147 36.9767 195.634 37.07 195.121 37.14C194.607 37.2333 194.152 37.3033 193.756 37.35H192.566C192.332 36.8133 192.192 36.2767 192.146 35.74C192.099 35.2033 192.064 34.55 192.041 33.78H191.866C191.749 34.2467 191.551 34.7017 191.271 35.145C190.991 35.565 190.629 35.95 190.186 36.3C189.766 36.6267 189.264 36.895 188.681 37.105C188.097 37.315 187.444 37.42 186.721 37.42C185.951 37.42 185.239 37.3033 184.586 37.07C183.932 36.8367 183.361 36.51 182.871 36.09C182.381 35.67 181.996 35.1683 181.716 34.585C181.436 33.9783 181.296 33.3017 181.296 32.555C181.296 31.505 181.494 30.6417 181.891 29.965C182.287 29.2883 182.906 28.74 183.746 28.32C184.609 27.8767 185.706 27.55 187.036 27.34C188.389 27.13 190.022 26.9783 191.936 26.885C192.122 24.8783 192.041 23.4083 191.691 22.475C191.341 21.5417 190.582 21.075 189.416 21.075C188.692 21.075 188.027 21.1917 187.421 21.425L185.776 25.625H184.236C184.049 25.345 183.862 25.03 183.676 24.68C183.512 24.3067 183.349 23.9217 183.186 23.525C183.046 23.105 182.917 22.685 182.801 22.265C182.707 21.845 182.637 21.4367 182.591 21.04C183.477 20.4333 184.621 19.955 186.021 19.605C187.421 19.255 188.902 19.08 190.466 19.08C191.796 19.08 192.881 19.2317 193.721 19.535C194.561 19.815 195.214 20.2117 195.681 20.725C196.171 21.215 196.509 21.7983 196.696 22.475C196.882 23.1517 196.976 23.875 196.976 24.645C196.976 26.045 196.941 27.3167 196.871 28.46C196.824 29.58 196.801 30.735 196.801 31.925ZM188.926 34.62C189.416 34.62 189.836 34.5267 190.186 34.34C190.536 34.1533 190.827 33.9317 191.061 33.675C191.317 33.4183 191.504 33.1383 191.621 32.835C191.761 32.5317 191.866 32.2633 191.936 32.03V28.53C190.839 28.5533 189.941 28.6233 189.241 28.74C188.541 28.8567 187.992 29.055 187.596 29.335C187.199 29.5917 186.919 29.93 186.756 30.35C186.616 30.7467 186.546 31.2367 186.546 31.82C186.546 32.7067 186.756 33.395 187.176 33.885C187.596 34.375 188.179 34.62 188.926 34.62ZM201.863 21.705C201.513 21.6117 201.186 21.495 200.883 21.355C200.603 21.215 200.311 21.0517 200.008 20.865V19.5H209.213V20.83C208.723 21.1567 208.058 21.4483 207.218 21.705L210.753 30.49L211.348 32.73H211.418L211.978 30.455L214.708 21.705C214.008 21.565 213.366 21.285 212.783 20.865V19.5H219.538V20.865C219.048 21.1917 218.383 21.4717 217.543 21.705L211.838 37C211.278 38.4933 210.718 39.7067 210.158 40.64C209.598 41.5967 209.038 42.355 208.478 42.915C207.918 43.475 207.358 43.86 206.798 44.07C206.238 44.3033 205.678 44.455 205.118 44.525C204.885 44.315 204.675 44.0467 204.488 43.72C204.301 43.4167 204.138 43.0783 203.998 42.705C203.858 42.355 203.741 41.9933 203.648 41.62C203.555 41.2467 203.496 40.8967 203.473 40.57L203.928 39.73H208.198C208.408 39.4033 208.583 39.0533 208.723 38.68C208.886 38.3067 209.073 37.7467 209.283 37L201.863 21.705ZM230.138 20.34C231.024 19.78 231.958 19.3833 232.938 19.15V16.315C233.078 16.175 233.311 16.0467 233.638 15.93C233.988 15.79 234.349 15.6733 234.723 15.58C235.119 15.4633 235.504 15.3583 235.878 15.265C236.251 15.1717 236.554 15.1017 236.788 15.055H237.978V19.5H242.598V21.705H237.978V30.77C237.978 32.2167 238.153 33.22 238.503 33.78C238.876 34.34 239.483 34.62 240.323 34.62C240.743 34.62 241.209 34.5967 241.723 34.55C242.259 34.48 242.749 34.3633 243.193 34.2L243.438 35.355C243.228 35.565 242.913 35.7867 242.493 36.02C242.096 36.2533 241.629 36.475 241.093 36.685C240.579 36.895 240.008 37.07 239.378 37.21C238.771 37.35 238.129 37.42 237.453 37.42C235.936 37.42 234.804 37.0233 234.058 36.23C233.311 35.4367 232.938 34.1533 232.938 32.38V21.705H230.138V20.34ZM245.622 28.25C245.622 26.8267 245.832 25.555 246.252 24.435C246.696 23.2917 247.314 22.3233 248.107 21.53C248.924 20.7367 249.904 20.13 251.047 19.71C252.191 19.29 253.486 19.08 254.932 19.08C256.566 19.08 257.966 19.3133 259.132 19.78C260.322 20.2233 261.291 20.8533 262.037 21.67C262.807 22.4633 263.367 23.4317 263.717 24.575C264.067 25.695 264.242 26.92 264.242 28.25C264.242 29.6733 264.032 30.9567 263.612 32.1C263.192 33.22 262.574 34.1767 261.757 34.97C260.964 35.7633 259.984 36.37 258.817 36.79C257.674 37.21 256.379 37.42 254.932 37.42C253.346 37.42 251.969 37.1983 250.802 36.755C249.636 36.2883 248.667 35.6583 247.897 34.865C247.127 34.0483 246.556 33.08 246.182 31.96C245.809 30.8167 245.622 29.58 245.622 28.25ZM251.047 28.25C251.047 29.3 251.106 30.2683 251.222 31.155C251.362 32.0183 251.596 32.7533 251.922 33.36C252.249 33.9667 252.692 34.445 253.252 34.795C253.812 35.1217 254.536 35.285 255.422 35.285C255.936 35.285 256.402 35.1683 256.822 34.935C257.242 34.6783 257.604 34.2817 257.907 33.745C258.211 33.185 258.432 32.4617 258.572 31.575C258.736 30.665 258.817 29.5567 258.817 28.25C258.817 27.1767 258.747 26.2083 258.607 25.345C258.491 24.4817 258.269 23.7467 257.942 23.14C257.639 22.5333 257.219 22.0667 256.682 21.74C256.146 21.39 255.469 21.215 254.652 21.215C254.046 21.215 253.521 21.3433 253.077 21.6C252.634 21.8333 252.261 22.23 251.957 22.79C251.654 23.3267 251.421 24.05 251.257 24.96C251.117 25.8467 251.047 26.9433 251.047 28.25ZM277.237 28.25C277.237 26.8267 277.447 25.555 277.867 24.435C278.31 23.2917 278.929 22.3233 279.722 21.53C280.539 20.7367 281.519 20.13 282.662 19.71C283.805 19.29 285.1 19.08 286.547 19.08C288.18 19.08 289.58 19.3133 290.747 19.78C291.937 20.2233 292.905 20.8533 293.652 21.67C294.422 22.4633 294.982 23.4317 295.332 24.575C295.682 25.695 295.857 26.92 295.857 28.25C295.857 29.6733 295.647 30.9567 295.227 32.1C294.807 33.22 294.189 34.1767 293.372 34.97C292.579 35.7633 291.599 36.37 290.432 36.79C289.289 37.21 287.994 37.42 286.547 37.42C284.96 37.42 283.584 37.1983 282.417 36.755C281.25 36.2883 280.282 35.6583 279.512 34.865C278.742 34.0483 278.17 33.08 277.797 31.96C277.424 30.8167 277.237 29.58 277.237 28.25ZM282.662 28.25C282.662 29.3 282.72 30.2683 282.837 31.155C282.977 32.0183 283.21 32.7533 283.537 33.36C283.864 33.9667 284.307 34.445 284.867 34.795C285.427 35.1217 286.15 35.285 287.037 35.285C287.55 35.285 288.017 35.1683 288.437 34.935C288.857 34.6783 289.219 34.2817 289.522 33.745C289.825 33.185 290.047 32.4617 290.187 31.575C290.35 30.665 290.432 29.5567 290.432 28.25C290.432 27.1767 290.362 26.2083 290.222 25.345C290.105 24.4817 289.884 23.7467 289.557 23.14C289.254 22.5333 288.834 22.0667 288.297 21.74C287.76 21.39 287.084 21.215 286.267 21.215C285.66 21.215 285.135 21.3433 284.692 21.6C284.249 21.8333 283.875 22.23 283.572 22.79C283.269 23.3267 283.035 24.05 282.872 24.96C282.732 25.8467 282.662 26.9433 282.662 28.25ZM319.753 37H310.478V35.635C310.782 35.4717 311.073 35.3317 311.353 35.215C311.657 35.075 312.007 34.935 312.403 34.795V26.57C312.403 25.1 312.193 23.9567 311.773 23.14C311.353 22.3 310.607 21.88 309.533 21.88C308.647 21.88 307.877 22.1717 307.223 22.755C306.593 23.315 306.115 24.085 305.788 25.065V34.795C306.162 34.8883 306.488 35.005 306.768 35.145C307.072 35.2617 307.387 35.425 307.713 35.635V37H298.438V35.635C299.022 35.3317 299.792 35.0517 300.748 34.795V21.985L298.438 21.705V20.34C298.742 20.2 299.138 20.0717 299.628 19.955C300.118 19.815 300.643 19.6867 301.203 19.57C301.787 19.4533 302.37 19.36 302.953 19.29C303.56 19.1967 304.108 19.1267 304.598 19.08H305.788V22.685H305.823C306.313 21.705 307.048 20.865 308.028 20.165C309.008 19.4417 310.198 19.08 311.598 19.08C312.508 19.08 313.325 19.1967 314.048 19.43C314.772 19.64 315.378 20.025 315.868 20.585C316.382 21.145 316.767 21.9033 317.023 22.86C317.303 23.7933 317.443 24.9833 317.443 26.43V34.795C318.377 34.9583 319.147 35.2383 319.753 35.635V37ZM337.868 34.06C337.681 34.4567 337.378 34.865 336.958 35.285C336.561 35.6817 336.059 36.0433 335.453 36.37C334.869 36.6733 334.181 36.9183 333.388 37.105C332.618 37.315 331.778 37.42 330.868 37.42C329.421 37.42 328.138 37.21 327.018 36.79C325.898 36.3467 324.964 35.7283 324.218 34.935C323.471 34.1183 322.899 33.15 322.503 32.03C322.129 30.91 321.943 29.65 321.943 28.25C321.943 25.2633 322.724 22.9883 324.288 21.425C325.851 19.8617 328.021 19.08 330.798 19.08C331.988 19.08 333.096 19.2433 334.123 19.57C335.173 19.8967 336.036 20.4333 336.713 21.18C337.413 21.9267 337.891 22.9067 338.148 24.12C338.428 25.3333 338.416 26.815 338.113 28.565H327.368C327.391 30.4083 327.858 31.8783 328.768 32.975C329.701 34.0717 331.066 34.62 332.863 34.62C333.633 34.62 334.426 34.5033 335.243 34.27C336.083 34.0367 336.736 33.7333 337.203 33.36L337.868 34.06ZM330.658 21.075C330.191 21.075 329.771 21.1567 329.398 21.32C329.048 21.4833 328.733 21.7867 328.453 22.23C328.196 22.65 327.986 23.2333 327.823 23.98C327.659 24.7033 327.543 25.625 327.473 26.745H333.108C333.271 24.925 333.166 23.525 332.793 22.545C332.419 21.565 331.708 21.075 330.658 21.075ZM351.575 28.25C351.575 26.8267 351.785 25.555 352.205 24.435C352.649 23.2917 353.267 22.3233 354.06 21.53C354.877 20.7367 355.857 20.13 357 19.71C358.144 19.29 359.439 19.08 360.885 19.08C362.519 19.08 363.919 19.3133 365.085 19.78C366.275 20.2233 367.244 20.8533 367.99 21.67C368.76 22.4633 369.32 23.4317 369.67 24.575C370.02 25.695 370.195 26.92 370.195 28.25C370.195 29.6733 369.985 30.9567 369.565 32.1C369.145 33.22 368.527 34.1767 367.71 34.97C366.917 35.7633 365.937 36.37 364.77 36.79C363.627 37.21 362.332 37.42 360.885 37.42C359.299 37.42 357.922 37.1983 356.755 36.755C355.589 36.2883 354.62 35.6583 353.85 34.865C353.08 34.0483 352.509 33.08 352.135 31.96C351.762 30.8167 351.575 29.58 351.575 28.25ZM357 28.25C357 29.3 357.059 30.2683 357.175 31.155C357.315 32.0183 357.549 32.7533 357.875 33.36C358.202 33.9667 358.645 34.445 359.205 34.795C359.765 35.1217 360.489 35.285 361.375 35.285C361.889 35.285 362.355 35.1683 362.775 34.935C363.195 34.6783 363.557 34.2817 363.86 33.745C364.164 33.185 364.385 32.4617 364.525 31.575C364.689 30.665 364.77 29.5567 364.77 28.25C364.77 27.1767 364.7 26.2083 364.56 25.345C364.444 24.4817 364.222 23.7467 363.895 23.14C363.592 22.5333 363.172 22.0667 362.635 21.74C362.099 21.39 361.422 21.215 360.605 21.215C359.999 21.215 359.474 21.3433 359.03 21.6C358.587 21.8333 358.214 22.23 357.91 22.79C357.607 23.3267 357.374 24.05 357.21 24.96C357.07 25.8467 357 26.9433 357 28.25ZM372.046 20.34C372.933 19.78 373.866 19.3833 374.846 19.15V16.315C374.986 16.175 375.22 16.0467 375.546 15.93C375.896 15.79 376.258 15.6733 376.631 15.58C377.028 15.4633 377.413 15.3583 377.786 15.265C378.16 15.1717 378.463 15.1017 378.696 15.055H379.886V19.5H384.506V21.705H379.886V30.77C379.886 32.2167 380.061 33.22 380.411 33.78C380.785 34.34 381.391 34.62 382.231 34.62C382.651 34.62 383.118 34.5967 383.631 34.55C384.168 34.48 384.658 34.3633 385.101 34.2L385.346 35.355C385.136 35.565 384.821 35.7867 384.401 36.02C384.005 36.2533 383.538 36.475 383.001 36.685C382.488 36.895 381.916 37.07 381.286 37.21C380.68 37.35 380.038 37.42 379.361 37.42C377.845 37.42 376.713 37.0233 375.966 36.23C375.22 35.4367 374.846 34.1533 374.846 32.38V21.705H372.046V20.34ZM408.426 37H399.151V35.635C399.431 35.4717 399.723 35.32 400.026 35.18C400.329 35.04 400.679 34.9117 401.076 34.795V27.725C401.076 25.7183 400.878 24.2483 400.481 23.315C400.108 22.3583 399.361 21.88 398.241 21.88C397.308 21.88 396.514 22.2067 395.861 22.86C395.208 23.49 394.741 24.225 394.461 25.065V34.795C394.834 34.8883 395.161 34.9933 395.441 35.11C395.744 35.2267 396.059 35.4017 396.386 35.635V37H387.111V35.635C387.834 35.2617 388.604 34.9817 389.421 34.795V13.585L386.761 13.305V11.94C387.111 11.8 387.554 11.66 388.091 11.52C388.651 11.38 389.234 11.2633 389.841 11.17C390.448 11.0533 391.054 10.96 391.661 10.89C392.268 10.7967 392.804 10.7267 393.271 10.68H394.461V23.035H394.496C394.729 22.4983 395.044 21.9967 395.441 21.53C395.838 21.04 396.281 20.62 396.771 20.27C397.284 19.8967 397.833 19.605 398.416 19.395C398.999 19.185 399.618 19.08 400.271 19.08C401.204 19.08 402.033 19.1967 402.756 19.43C403.503 19.64 404.121 20.025 404.611 20.585C405.101 21.145 405.474 21.9033 405.731 22.86C405.988 23.7933 406.116 24.9833 406.116 26.43V34.795C406.513 34.8883 406.909 34.9933 407.306 35.11C407.703 35.2267 408.076 35.4017 408.426 35.635V37ZM426.544 34.06C426.357 34.4567 426.054 34.865 425.634 35.285C425.237 35.6817 424.735 36.0433 424.129 36.37C423.545 36.6733 422.857 36.9183 422.064 37.105C421.294 37.315 420.454 37.42 419.544 37.42C418.097 37.42 416.814 37.21 415.694 36.79C414.574 36.3467 413.64 35.7283 412.894 34.935C412.147 34.1183 411.575 33.15 411.179 32.03C410.805 30.91 410.619 29.65 410.619 28.25C410.619 25.2633 411.4 22.9883 412.964 21.425C414.527 19.8617 416.697 19.08 419.474 19.08C420.664 19.08 421.772 19.2433 422.799 19.57C423.849 19.8967 424.712 20.4333 425.389 21.18C426.089 21.9267 426.567 22.9067 426.824 24.12C427.104 25.3333 427.092 26.815 426.789 28.565H416.044C416.067 30.4083 416.534 31.8783 417.444 32.975C418.377 34.0717 419.742 34.62 421.539 34.62C422.309 34.62 423.102 34.5033 423.919 34.27C424.759 34.0367 425.412 33.7333 425.879 33.36L426.544 34.06ZM419.334 21.075C418.867 21.075 418.447 21.1567 418.074 21.32C417.724 21.4833 417.409 21.7867 417.129 22.23C416.872 22.65 416.662 23.2333 416.499 23.98C416.335 24.7033 416.219 25.625 416.149 26.745H421.784C421.947 24.925 421.842 23.525 421.469 22.545C421.095 21.565 420.384 21.075 419.334 21.075ZM439.182 23.525C438.902 23.665 438.576 23.8983 438.202 24.225C437.829 24.5517 437.491 25.0883 437.187 25.835V34.795C437.654 34.8417 438.121 34.935 438.587 35.075C439.054 35.1917 439.521 35.3783 439.987 35.635V37H429.837V35.635C430.257 35.4017 430.654 35.2267 431.027 35.11C431.401 34.9933 431.774 34.8883 432.147 34.795V21.985L429.837 21.705V20.34C430.211 20.1767 430.666 20.025 431.202 19.885C431.762 19.745 432.334 19.6283 432.917 19.535C433.501 19.4183 434.061 19.325 434.597 19.255C435.157 19.185 435.624 19.1267 435.997 19.08H437.187V23.735H437.327C437.514 23.2217 437.782 22.685 438.132 22.125C438.506 21.565 438.937 21.0517 439.427 20.585C439.917 20.1183 440.454 19.745 441.037 19.465C441.621 19.185 442.227 19.0567 442.857 19.08C443.114 19.4067 443.336 19.8733 443.522 20.48C443.709 21.0633 443.861 21.6233 443.977 22.16V23.525H439.182ZM445.157 41.585C445.623 41.445 446.043 41.235 446.417 40.955C446.79 40.675 447.105 40.36 447.362 40.01C447.642 39.66 447.852 39.2867 447.992 38.89C448.132 38.4933 448.19 38.1083 448.167 37.735C447.84 37.315 447.443 36.9767 446.977 36.72C446.533 36.4633 446.055 36.2533 445.542 36.09C445.425 35.6 445.402 35.11 445.472 34.62C445.565 34.13 445.728 33.675 445.962 33.255C446.195 32.835 446.463 32.485 446.767 32.205C447.093 31.9017 447.432 31.715 447.782 31.645C448.272 31.6683 448.75 31.785 449.217 31.995C449.683 32.1817 450.103 32.4617 450.477 32.835C450.85 33.185 451.142 33.64 451.352 34.2C451.585 34.76 451.702 35.4133 451.702 36.16C451.702 36.8833 451.55 37.6183 451.247 38.365C450.967 39.1117 450.57 39.8 450.057 40.43C449.567 41.0833 448.972 41.6433 448.272 42.11C447.572 42.6 446.802 42.9383 445.962 43.125L445.157 41.585Z" fill="#531A10"/>
<path d="M470.457 126.925C470.457 127.438 470.457 127.882 470.457 128.255C470.48 128.628 470.515 129.025 470.562 129.445L472.977 129.795V131.02C472.697 131.16 472.312 131.3 471.822 131.44C471.355 131.58 470.853 131.72 470.317 131.86C469.803 131.977 469.29 132.07 468.777 132.14C468.263 132.233 467.808 132.303 467.412 132.35H466.222C465.988 131.813 465.848 131.277 465.802 130.74C465.755 130.203 465.72 129.55 465.697 128.78H465.522C465.405 129.247 465.207 129.702 464.927 130.145C464.647 130.565 464.285 130.95 463.842 131.3C463.422 131.627 462.92 131.895 462.337 132.105C461.753 132.315 461.1 132.42 460.377 132.42C459.607 132.42 458.895 132.303 458.242 132.07C457.588 131.837 457.017 131.51 456.527 131.09C456.037 130.67 455.652 130.168 455.372 129.585C455.092 128.978 454.952 128.302 454.952 127.555C454.952 126.505 455.15 125.642 455.547 124.965C455.943 124.288 456.562 123.74 457.402 123.32C458.265 122.877 459.362 122.55 460.692 122.34C462.045 122.13 463.678 121.978 465.592 121.885C465.778 119.878 465.697 118.408 465.347 117.475C464.997 116.542 464.238 116.075 463.072 116.075C462.348 116.075 461.683 116.192 461.077 116.425L459.432 120.625H457.892C457.705 120.345 457.518 120.03 457.332 119.68C457.168 119.307 457.005 118.922 456.842 118.525C456.702 118.105 456.573 117.685 456.457 117.265C456.363 116.845 456.293 116.437 456.247 116.04C457.133 115.433 458.277 114.955 459.677 114.605C461.077 114.255 462.558 114.08 464.122 114.08C465.452 114.08 466.537 114.232 467.377 114.535C468.217 114.815 468.87 115.212 469.337 115.725C469.827 116.215 470.165 116.798 470.352 117.475C470.538 118.152 470.632 118.875 470.632 119.645C470.632 121.045 470.597 122.317 470.527 123.46C470.48 124.58 470.457 125.735 470.457 126.925ZM462.582 129.62C463.072 129.62 463.492 129.527 463.842 129.34C464.192 129.153 464.483 128.932 464.717 128.675C464.973 128.418 465.16 128.138 465.277 127.835C465.417 127.532 465.522 127.263 465.592 127.03V123.53C464.495 123.553 463.597 123.623 462.897 123.74C462.197 123.857 461.648 124.055 461.252 124.335C460.855 124.592 460.575 124.93 460.412 125.35C460.272 125.747 460.202 126.237 460.202 126.82C460.202 127.707 460.412 128.395 460.832 128.885C461.252 129.375 461.835 129.62 462.582 129.62ZM484.584 139H474.924V137.635C475.717 137.262 476.487 136.982 477.234 136.795V116.985L474.924 116.705V115.34C475.297 115.177 475.752 115.025 476.289 114.885C476.849 114.745 477.421 114.628 478.004 114.535C478.587 114.418 479.147 114.325 479.684 114.255C480.244 114.185 480.711 114.127 481.084 114.08H482.274V118H482.309C482.706 116.88 483.324 115.947 484.164 115.2C485.027 114.453 486.217 114.08 487.734 114.08C488.761 114.08 489.682 114.255 490.499 114.605C491.339 114.932 492.039 115.457 492.599 116.18C493.182 116.88 493.626 117.79 493.929 118.91C494.256 120.007 494.419 121.325 494.419 122.865C494.419 124.335 494.209 125.665 493.789 126.855C493.392 128.045 492.809 129.048 492.039 129.865C491.292 130.682 490.371 131.312 489.274 131.755C488.201 132.198 486.976 132.42 485.599 132.42C484.806 132.42 484.176 132.362 483.709 132.245C483.266 132.152 482.787 131.977 482.274 131.72V136.795C482.647 136.842 483.021 136.923 483.394 137.04C483.767 137.18 484.164 137.378 484.584 137.635V139ZM485.704 116.88C484.911 116.88 484.199 117.16 483.569 117.72C482.962 118.28 482.531 119.143 482.274 120.31V129.62C482.647 129.9 483.044 130.11 483.464 130.25C483.884 130.367 484.432 130.425 485.109 130.425C486.439 130.425 487.419 129.783 488.049 128.5C488.679 127.217 488.994 125.338 488.994 122.865C488.994 120.952 488.749 119.482 488.259 118.455C487.792 117.405 486.941 116.88 485.704 116.88ZM497.302 123.25C497.302 121.827 497.512 120.555 497.932 119.435C498.376 118.292 498.994 117.323 499.787 116.53C500.604 115.737 501.584 115.13 502.727 114.71C503.871 114.29 505.166 114.08 506.612 114.08C508.246 114.08 509.646 114.313 510.812 114.78C512.002 115.223 512.971 115.853 513.717 116.67C514.487 117.463 515.047 118.432 515.397 119.575C515.747 120.695 515.922 121.92 515.922 123.25C515.922 124.673 515.712 125.957 515.292 127.1C514.872 128.22 514.254 129.177 513.437 129.97C512.644 130.763 511.664 131.37 510.497 131.79C509.354 132.21 508.059 132.42 506.612 132.42C505.026 132.42 503.649 132.198 502.482 131.755C501.316 131.288 500.347 130.658 499.577 129.865C498.807 129.048 498.236 128.08 497.862 126.96C497.489 125.817 497.302 124.58 497.302 123.25ZM502.727 123.25C502.727 124.3 502.786 125.268 502.902 126.155C503.042 127.018 503.276 127.753 503.602 128.36C503.929 128.967 504.372 129.445 504.932 129.795C505.492 130.122 506.216 130.285 507.102 130.285C507.616 130.285 508.082 130.168 508.502 129.935C508.922 129.678 509.284 129.282 509.587 128.745C509.891 128.185 510.112 127.462 510.252 126.575C510.416 125.665 510.497 124.557 510.497 123.25C510.497 122.177 510.427 121.208 510.287 120.345C510.171 119.482 509.949 118.747 509.622 118.14C509.319 117.533 508.899 117.067 508.362 116.74C507.826 116.39 507.149 116.215 506.332 116.215C505.726 116.215 505.201 116.343 504.757 116.6C504.314 116.833 503.941 117.23 503.637 117.79C503.334 118.327 503.101 119.05 502.937 119.96C502.797 120.847 502.727 121.943 502.727 123.25ZM528.443 132H518.783V130.635C519.553 130.262 520.323 129.982 521.093 129.795V108.585L518.433 108.305V106.94C518.737 106.8 519.157 106.66 519.693 106.52C520.23 106.38 520.802 106.263 521.408 106.17C522.038 106.053 522.657 105.96 523.263 105.89C523.893 105.797 524.453 105.727 524.943 105.68H526.133V129.795C526.903 129.982 527.673 130.262 528.443 130.635V132ZM531.105 123.25C531.105 121.827 531.315 120.555 531.735 119.435C532.178 118.292 532.796 117.323 533.59 116.53C534.406 115.737 535.386 115.13 536.53 114.71C537.673 114.29 538.968 114.08 540.415 114.08C542.048 114.08 543.448 114.313 544.615 114.78C545.805 115.223 546.773 115.853 547.52 116.67C548.29 117.463 548.85 118.432 549.2 119.575C549.55 120.695 549.725 121.92 549.725 123.25C549.725 124.673 549.515 125.957 549.095 127.1C548.675 128.22 548.056 129.177 547.24 129.97C546.446 130.763 545.466 131.37 544.3 131.79C543.156 132.21 541.861 132.42 540.415 132.42C538.828 132.42 537.451 132.198 536.285 131.755C535.118 131.288 534.15 130.658 533.38 129.865C532.61 129.048 532.038 128.08 531.665 126.96C531.291 125.817 531.105 124.58 531.105 123.25ZM536.53 123.25C536.53 124.3 536.588 125.268 536.705 126.155C536.845 127.018 537.078 127.753 537.405 128.36C537.731 128.967 538.175 129.445 538.735 129.795C539.295 130.122 540.018 130.285 540.905 130.285C541.418 130.285 541.885 130.168 542.305 129.935C542.725 129.678 543.086 129.282 543.39 128.745C543.693 128.185 543.915 127.462 544.055 126.575C544.218 125.665 544.3 124.557 544.3 123.25C544.3 122.177 544.23 121.208 544.09 120.345C543.973 119.482 543.751 118.747 543.425 118.14C543.121 117.533 542.701 117.067 542.165 116.74C541.628 116.39 540.951 116.215 540.135 116.215C539.528 116.215 539.003 116.343 538.56 116.6C538.116 116.833 537.743 117.23 537.44 117.79C537.136 118.327 536.903 119.05 536.74 119.96C536.6 120.847 536.53 121.943 536.53 123.25ZM560.741 114.08C562.257 114.08 563.517 114.243 564.521 114.57C565.524 114.873 566.282 115.258 566.796 115.725C567.892 114.535 569.152 113.707 570.576 113.24C570.739 113.357 570.902 113.532 571.066 113.765C571.229 113.975 571.369 114.208 571.486 114.465C571.602 114.722 571.696 114.978 571.766 115.235C571.836 115.492 571.871 115.702 571.871 115.865L571.416 116.705H567.741C567.997 117.032 568.231 117.463 568.441 118C568.674 118.513 568.791 119.132 568.791 119.855C568.791 120.625 568.627 121.348 568.301 122.025C567.974 122.702 567.472 123.308 566.796 123.845C566.142 124.358 565.302 124.767 564.276 125.07C563.272 125.373 562.094 125.525 560.741 125.525C560.344 125.525 559.982 125.525 559.656 125.525C559.352 125.502 559.084 125.467 558.851 125.42C558.757 125.56 558.652 125.735 558.536 125.945C558.442 126.132 558.396 126.318 558.396 126.505C558.396 126.902 558.676 127.217 559.236 127.45C559.796 127.683 560.507 127.893 561.371 128.08C562.234 128.267 563.156 128.477 564.136 128.71C565.139 128.943 566.072 129.258 566.936 129.655C567.799 130.028 568.522 130.53 569.106 131.16C569.689 131.767 569.992 132.56 570.016 133.54C570.039 134.473 569.806 135.302 569.316 136.025C568.826 136.748 568.149 137.355 567.286 137.845C566.446 138.358 565.442 138.743 564.276 139C563.132 139.28 561.907 139.42 560.601 139.42C559.061 139.42 557.742 139.292 556.646 139.035C555.572 138.802 554.697 138.475 554.021 138.055C553.344 137.635 552.842 137.157 552.516 136.62C552.212 136.083 552.061 135.523 552.061 134.94C552.061 134.287 552.189 133.727 552.446 133.26C552.702 132.793 553.064 132.385 553.531 132.035C553.997 131.685 554.534 131.393 555.141 131.16C555.771 130.927 556.459 130.717 557.206 130.53C556.856 130.437 556.517 130.32 556.191 130.18C555.864 130.04 555.572 129.877 555.316 129.69C555.059 129.48 554.849 129.247 554.686 128.99C554.522 128.71 554.441 128.395 554.441 128.045C554.441 127.742 554.534 127.45 554.721 127.17C554.907 126.867 555.152 126.598 555.456 126.365C555.759 126.108 556.086 125.887 556.436 125.7C556.786 125.49 557.136 125.315 557.486 125.175C556.016 124.848 554.849 124.218 553.986 123.285C553.122 122.328 552.691 121.115 552.691 119.645C552.691 117.895 553.414 116.53 554.861 115.55C556.307 114.57 558.267 114.08 560.741 114.08ZM565.151 134.66C565.151 134.03 564.952 133.517 564.556 133.12C564.182 132.747 563.692 132.432 563.086 132.175C562.479 131.942 561.791 131.743 561.021 131.58C560.274 131.393 559.527 131.183 558.781 130.95C558.174 131.417 557.742 131.883 557.486 132.35C557.229 132.817 557.101 133.377 557.101 134.03C557.101 135.103 557.462 135.932 558.186 136.515C558.932 137.122 559.971 137.425 561.301 137.425C562.607 137.425 563.576 137.145 564.206 136.585C564.836 136.048 565.151 135.407 565.151 134.66ZM557.731 119.82C557.731 121.033 557.929 121.955 558.326 122.585C558.746 123.215 559.551 123.53 560.741 123.53C561.884 123.53 562.666 123.215 563.086 122.585C563.529 121.932 563.751 121.01 563.751 119.82C563.751 118.56 563.529 117.627 563.086 117.02C562.642 116.39 561.861 116.075 560.741 116.075C559.574 116.075 558.781 116.378 558.361 116.985C557.941 117.592 557.731 118.537 557.731 119.82ZM582.702 132H573.042V130.635C573.392 130.448 573.753 130.297 574.127 130.18C574.5 130.04 574.908 129.912 575.352 129.795V116.985L573.042 116.705V115.34C573.392 115.2 573.823 115.06 574.337 114.92C574.873 114.78 575.433 114.663 576.017 114.57C576.6 114.453 577.172 114.36 577.732 114.29C578.292 114.197 578.782 114.127 579.202 114.08H580.392V129.795C580.858 129.912 581.278 130.04 581.652 130.18C582.025 130.297 582.375 130.448 582.702 130.635V132ZM574.757 108.76C574.757 107.943 575.037 107.302 575.597 106.835C576.157 106.368 576.88 106.135 577.767 106.135C578.653 106.135 579.377 106.368 579.937 106.835C580.497 107.302 580.777 107.943 580.777 108.76C580.777 109.553 580.497 110.183 579.937 110.65C579.377 111.117 578.653 111.35 577.767 111.35C576.88 111.35 576.157 111.117 575.597 110.65C575.037 110.183 574.757 109.553 574.757 108.76ZM594.358 128.185C594.358 127.578 594.136 127.053 593.693 126.61C593.273 126.167 592.736 125.758 592.083 125.385C591.453 125.012 590.753 124.638 589.983 124.265C589.236 123.892 588.536 123.46 587.883 122.97C587.253 122.457 586.716 121.862 586.273 121.185C585.853 120.508 585.643 119.68 585.643 118.7C585.643 118 585.806 117.37 586.133 116.81C586.459 116.227 586.903 115.737 587.463 115.34C588.023 114.943 588.688 114.64 589.458 114.43C590.251 114.197 591.103 114.08 592.013 114.08C593.273 114.08 594.439 114.185 595.513 114.395C596.609 114.582 597.566 114.85 598.383 115.2C598.289 115.947 598.103 116.752 597.823 117.615C597.543 118.455 597.274 119.225 597.018 119.925H595.828L594.358 116.355C594.078 116.238 593.786 116.168 593.483 116.145C593.179 116.098 592.841 116.075 592.468 116.075C591.768 116.075 591.231 116.285 590.858 116.705C590.508 117.102 590.333 117.557 590.333 118.07C590.333 118.653 590.543 119.167 590.963 119.61C591.406 120.03 591.943 120.427 592.573 120.8C593.226 121.173 593.926 121.547 594.673 121.92C595.443 122.293 596.143 122.725 596.773 123.215C597.426 123.682 597.963 124.242 598.383 124.895C598.826 125.548 599.048 126.33 599.048 127.24C599.048 128.85 598.394 130.122 597.088 131.055C595.781 131.965 594.031 132.42 591.838 132.42C590.718 132.42 589.563 132.303 588.373 132.07C587.183 131.837 586.156 131.51 585.293 131.09C585.339 130.25 585.538 129.398 585.888 128.535C586.238 127.672 586.611 126.902 587.008 126.225H588.198L589.913 130.04C590.169 130.227 590.449 130.343 590.753 130.39C591.079 130.413 591.383 130.425 591.663 130.425C592.339 130.425 592.958 130.227 593.518 129.83C594.078 129.433 594.358 128.885 594.358 128.185ZM617.813 129.06C617.626 129.457 617.323 129.865 616.903 130.285C616.506 130.682 616.005 131.043 615.398 131.37C614.815 131.673 614.126 131.918 613.333 132.105C612.563 132.315 611.723 132.42 610.813 132.42C609.366 132.42 608.083 132.21 606.963 131.79C605.843 131.347 604.91 130.728 604.163 129.935C603.416 129.118 602.845 128.15 602.448 127.03C602.075 125.91 601.888 124.65 601.888 123.25C601.888 120.263 602.67 117.988 604.233 116.425C605.796 114.862 607.966 114.08 610.743 114.08C611.933 114.08 613.041 114.243 614.068 114.57C615.118 114.897 615.981 115.433 616.658 116.18C617.358 116.927 617.836 117.907 618.093 119.12C618.373 120.333 618.361 121.815 618.058 123.565H607.313C607.336 125.408 607.803 126.878 608.713 127.975C609.646 129.072 611.011 129.62 612.808 129.62C613.578 129.62 614.371 129.503 615.188 129.27C616.028 129.037 616.681 128.733 617.148 128.36L617.813 129.06ZM610.603 116.075C610.136 116.075 609.716 116.157 609.343 116.32C608.993 116.483 608.678 116.787 608.398 117.23C608.141 117.65 607.931 118.233 607.768 118.98C607.605 119.703 607.488 120.625 607.418 121.745H613.053C613.216 119.925 613.111 118.525 612.738 117.545C612.365 116.565 611.653 116.075 610.603 116.075ZM622.157 136.585C622.623 136.445 623.043 136.235 623.417 135.955C623.79 135.675 624.105 135.36 624.362 135.01C624.642 134.66 624.852 134.287 624.992 133.89C625.132 133.493 625.19 133.108 625.167 132.735C624.84 132.315 624.443 131.977 623.977 131.72C623.533 131.463 623.055 131.253 622.542 131.09C622.425 130.6 622.402 130.11 622.472 129.62C622.565 129.13 622.728 128.675 622.962 128.255C623.195 127.835 623.463 127.485 623.767 127.205C624.093 126.902 624.432 126.715 624.782 126.645C625.272 126.668 625.75 126.785 626.217 126.995C626.683 127.182 627.103 127.462 627.477 127.835C627.85 128.185 628.142 128.64 628.352 129.2C628.585 129.76 628.702 130.413 628.702 131.16C628.702 131.883 628.55 132.618 628.247 133.365C627.967 134.112 627.57 134.8 627.057 135.43C626.567 136.083 625.972 136.643 625.272 137.11C624.572 137.6 623.802 137.938 622.962 138.125L622.157 136.585Z" fill="#531A10"/>
<path d="M149.682 208.34C150.568 207.78 151.502 207.383 152.482 207.15V204.315C152.622 204.175 152.855 204.047 153.182 203.93C153.532 203.79 153.893 203.673 154.267 203.58C154.663 203.463 155.048 203.358 155.422 203.265C155.795 203.172 156.098 203.102 156.332 203.055H157.522V207.5H162.142V209.705H157.522V218.77C157.522 220.217 157.697 221.22 158.047 221.78C158.42 222.34 159.027 222.62 159.867 222.62C160.287 222.62 160.753 222.597 161.267 222.55C161.803 222.48 162.293 222.363 162.737 222.2L162.982 223.355C162.772 223.565 162.457 223.787 162.037 224.02C161.64 224.253 161.173 224.475 160.637 224.685C160.123 224.895 159.552 225.07 158.922 225.21C158.315 225.35 157.673 225.42 156.997 225.42C155.48 225.42 154.348 225.023 153.602 224.23C152.855 223.437 152.482 222.153 152.482 220.38V209.705H149.682V208.34ZM186.061 225H176.786V223.635C177.066 223.472 177.358 223.32 177.661 223.18C177.964 223.04 178.314 222.912 178.711 222.795V215.725C178.711 213.718 178.513 212.248 178.116 211.315C177.743 210.358 176.996 209.88 175.876 209.88C174.943 209.88 174.149 210.207 173.496 210.86C172.843 211.49 172.376 212.225 172.096 213.065V222.795C172.469 222.888 172.796 222.993 173.076 223.11C173.379 223.227 173.694 223.402 174.021 223.635V225H164.746V223.635C165.469 223.262 166.239 222.982 167.056 222.795V201.585L164.396 201.305V199.94C164.746 199.8 165.189 199.66 165.726 199.52C166.286 199.38 166.869 199.263 167.476 199.17C168.083 199.053 168.689 198.96 169.296 198.89C169.903 198.797 170.439 198.727 170.906 198.68H172.096V211.035H172.131C172.364 210.498 172.679 209.997 173.076 209.53C173.473 209.04 173.916 208.62 174.406 208.27C174.919 207.897 175.468 207.605 176.051 207.395C176.634 207.185 177.253 207.08 177.906 207.08C178.839 207.08 179.668 207.197 180.391 207.43C181.138 207.64 181.756 208.025 182.246 208.585C182.736 209.145 183.109 209.903 183.366 210.86C183.623 211.793 183.751 212.983 183.751 214.43V222.795C184.148 222.888 184.544 222.993 184.941 223.11C185.338 223.227 185.711 223.402 186.061 223.635V225ZM204.179 222.06C203.992 222.457 203.689 222.865 203.269 223.285C202.872 223.682 202.37 224.043 201.764 224.37C201.18 224.673 200.492 224.918 199.699 225.105C198.929 225.315 198.089 225.42 197.179 225.42C195.732 225.42 194.449 225.21 193.329 224.79C192.209 224.347 191.275 223.728 190.529 222.935C189.782 222.118 189.21 221.15 188.814 220.03C188.44 218.91 188.254 217.65 188.254 216.25C188.254 213.263 189.035 210.988 190.599 209.425C192.162 207.862 194.332 207.08 197.109 207.08C198.299 207.08 199.407 207.243 200.434 207.57C201.484 207.897 202.347 208.433 203.024 209.18C203.724 209.927 204.202 210.907 204.459 212.12C204.739 213.333 204.727 214.815 204.424 216.565H193.679C193.702 218.408 194.169 219.878 195.079 220.975C196.012 222.072 197.377 222.62 199.174 222.62C199.944 222.62 200.737 222.503 201.554 222.27C202.394 222.037 203.047 221.733 203.514 221.36L204.179 222.06ZM196.969 209.075C196.502 209.075 196.082 209.157 195.709 209.32C195.359 209.483 195.044 209.787 194.764 210.23C194.507 210.65 194.297 211.233 194.134 211.98C193.97 212.703 193.854 213.625 193.784 214.745H199.419C199.582 212.925 199.477 211.525 199.104 210.545C198.73 209.565 198.019 209.075 196.969 209.075ZM228.788 225H219.513V223.635C219.816 223.472 220.108 223.332 220.388 223.215C220.691 223.075 221.041 222.935 221.438 222.795V214.57C221.438 213.1 221.228 211.957 220.808 211.14C220.388 210.3 219.641 209.88 218.568 209.88C217.681 209.88 216.911 210.172 216.258 210.755C215.628 211.315 215.149 212.085 214.823 213.065V222.795C215.196 222.888 215.523 223.005 215.803 223.145C216.106 223.262 216.421 223.425 216.748 223.635V225H207.473V223.635C208.056 223.332 208.826 223.052 209.783 222.795V209.985L207.473 209.705V208.34C207.776 208.2 208.173 208.072 208.663 207.955C209.153 207.815 209.678 207.687 210.238 207.57C210.821 207.453 211.404 207.36 211.988 207.29C212.594 207.197 213.143 207.127 213.633 207.08H214.823V210.685H214.858C215.348 209.705 216.083 208.865 217.063 208.165C218.043 207.442 219.233 207.08 220.633 207.08C221.543 207.08 222.359 207.197 223.083 207.43C223.806 207.64 224.413 208.025 224.903 208.585C225.416 209.145 225.801 209.903 226.058 210.86C226.338 211.793 226.478 212.983 226.478 214.43V222.795C227.411 222.958 228.181 223.238 228.788 223.635V225ZM242.371 201.585L239.711 201.305V199.94C240.061 199.8 240.516 199.66 241.076 199.52C241.659 199.38 242.254 199.263 242.861 199.17C243.491 199.053 244.097 198.96 244.681 198.89C245.287 198.797 245.801 198.727 246.221 198.68H247.411V210.79H247.481C247.947 209.623 248.659 208.713 249.616 208.06C250.572 207.407 251.704 207.08 253.011 207.08C255.064 207.08 256.662 207.792 257.806 209.215C258.949 210.638 259.521 212.797 259.521 215.69C259.521 218.887 258.669 221.29 256.966 222.9C255.286 224.51 252.812 225.315 249.546 225.315C248.962 225.315 248.309 225.268 247.586 225.175C246.862 225.105 246.162 225.012 245.486 224.895C244.809 224.778 244.179 224.638 243.596 224.475C243.036 224.312 242.627 224.148 242.371 223.985V201.585ZM250.736 209.88C249.849 209.88 249.137 210.207 248.601 210.86C248.064 211.49 247.667 212.295 247.411 213.275V222.55C247.737 222.783 248.134 222.97 248.601 223.11C249.091 223.25 249.639 223.32 250.246 223.32C251.576 223.32 252.544 222.725 253.151 221.535C253.781 220.345 254.096 218.478 254.096 215.935C254.096 214.092 253.839 212.622 253.326 211.525C252.836 210.428 251.972 209.88 250.736 209.88ZM278.312 222.06C278.125 222.457 277.822 222.865 277.402 223.285C277.005 223.682 276.503 224.043 275.897 224.37C275.313 224.673 274.625 224.918 273.832 225.105C273.062 225.315 272.222 225.42 271.312 225.42C269.865 225.42 268.582 225.21 267.462 224.79C266.342 224.347 265.408 223.728 264.662 222.935C263.915 222.118 263.343 221.15 262.947 220.03C262.573 218.91 262.387 217.65 262.387 216.25C262.387 213.263 263.168 210.988 264.732 209.425C266.295 207.862 268.465 207.08 271.242 207.08C272.432 207.08 273.54 207.243 274.567 207.57C275.617 207.897 276.48 208.433 277.157 209.18C277.857 209.927 278.335 210.907 278.592 212.12C278.872 213.333 278.86 214.815 278.557 216.565H267.812C267.835 218.408 268.302 219.878 269.212 220.975C270.145 222.072 271.51 222.62 273.307 222.62C274.077 222.62 274.87 222.503 275.687 222.27C276.527 222.037 277.18 221.733 277.647 221.36L278.312 222.06ZM271.102 209.075C270.635 209.075 270.215 209.157 269.842 209.32C269.492 209.483 269.177 209.787 268.897 210.23C268.64 210.65 268.43 211.233 268.267 211.98C268.103 212.703 267.987 213.625 267.917 214.745H273.552C273.715 212.925 273.61 211.525 273.237 210.545C272.863 209.565 272.152 209.075 271.102 209.075ZM290.041 207.08C291.557 207.08 292.817 207.243 293.821 207.57C294.824 207.873 295.582 208.258 296.096 208.725C297.192 207.535 298.452 206.707 299.876 206.24C300.039 206.357 300.202 206.532 300.366 206.765C300.529 206.975 300.669 207.208 300.786 207.465C300.902 207.722 300.996 207.978 301.066 208.235C301.136 208.492 301.171 208.702 301.171 208.865L300.716 209.705H297.041C297.297 210.032 297.531 210.463 297.741 211C297.974 211.513 298.091 212.132 298.091 212.855C298.091 213.625 297.927 214.348 297.601 215.025C297.274 215.702 296.772 216.308 296.096 216.845C295.442 217.358 294.602 217.767 293.576 218.07C292.572 218.373 291.394 218.525 290.041 218.525C289.644 218.525 289.282 218.525 288.956 218.525C288.652 218.502 288.384 218.467 288.151 218.42C288.057 218.56 287.952 218.735 287.836 218.945C287.742 219.132 287.696 219.318 287.696 219.505C287.696 219.902 287.976 220.217 288.536 220.45C289.096 220.683 289.807 220.893 290.671 221.08C291.534 221.267 292.456 221.477 293.436 221.71C294.439 221.943 295.372 222.258 296.236 222.655C297.099 223.028 297.822 223.53 298.406 224.16C298.989 224.767 299.292 225.56 299.316 226.54C299.339 227.473 299.106 228.302 298.616 229.025C298.126 229.748 297.449 230.355 296.586 230.845C295.746 231.358 294.742 231.743 293.576 232C292.432 232.28 291.207 232.42 289.901 232.42C288.361 232.42 287.042 232.292 285.946 232.035C284.872 231.802 283.997 231.475 283.321 231.055C282.644 230.635 282.142 230.157 281.816 229.62C281.512 229.083 281.361 228.523 281.361 227.94C281.361 227.287 281.489 226.727 281.746 226.26C282.002 225.793 282.364 225.385 282.831 225.035C283.297 224.685 283.834 224.393 284.441 224.16C285.071 223.927 285.759 223.717 286.506 223.53C286.156 223.437 285.817 223.32 285.491 223.18C285.164 223.04 284.872 222.877 284.616 222.69C284.359 222.48 284.149 222.247 283.986 221.99C283.822 221.71 283.741 221.395 283.741 221.045C283.741 220.742 283.834 220.45 284.021 220.17C284.207 219.867 284.452 219.598 284.756 219.365C285.059 219.108 285.386 218.887 285.736 218.7C286.086 218.49 286.436 218.315 286.786 218.175C285.316 217.848 284.149 217.218 283.286 216.285C282.422 215.328 281.991 214.115 281.991 212.645C281.991 210.895 282.714 209.53 284.161 208.55C285.607 207.57 287.567 207.08 290.041 207.08ZM294.451 227.66C294.451 227.03 294.252 226.517 293.856 226.12C293.482 225.747 292.992 225.432 292.386 225.175C291.779 224.942 291.091 224.743 290.321 224.58C289.574 224.393 288.827 224.183 288.081 223.95C287.474 224.417 287.042 224.883 286.786 225.35C286.529 225.817 286.401 226.377 286.401 227.03C286.401 228.103 286.762 228.932 287.486 229.515C288.232 230.122 289.271 230.425 290.601 230.425C291.907 230.425 292.876 230.145 293.506 229.585C294.136 229.048 294.451 228.407 294.451 227.66ZM287.031 212.82C287.031 214.033 287.229 214.955 287.626 215.585C288.046 216.215 288.851 216.53 290.041 216.53C291.184 216.53 291.966 216.215 292.386 215.585C292.829 214.932 293.051 214.01 293.051 212.82C293.051 211.56 292.829 210.627 292.386 210.02C291.942 209.39 291.161 209.075 290.041 209.075C288.874 209.075 288.081 209.378 287.661 209.985C287.241 210.592 287.031 211.537 287.031 212.82ZM312.001 225H302.341V223.635C302.691 223.448 303.053 223.297 303.426 223.18C303.8 223.04 304.208 222.912 304.651 222.795V209.985L302.341 209.705V208.34C302.691 208.2 303.123 208.06 303.636 207.92C304.173 207.78 304.733 207.663 305.316 207.57C305.9 207.453 306.471 207.36 307.031 207.29C307.591 207.197 308.081 207.127 308.501 207.08H309.691V222.795C310.158 222.912 310.578 223.04 310.951 223.18C311.325 223.297 311.675 223.448 312.001 223.635V225ZM304.056 201.76C304.056 200.943 304.336 200.302 304.896 199.835C305.456 199.368 306.18 199.135 307.066 199.135C307.953 199.135 308.676 199.368 309.236 199.835C309.796 200.302 310.076 200.943 310.076 201.76C310.076 202.553 309.796 203.183 309.236 203.65C308.676 204.117 307.953 204.35 307.066 204.35C306.18 204.35 305.456 204.117 304.896 203.65C304.336 203.183 304.056 202.553 304.056 201.76ZM335.698 225H326.423V223.635C326.726 223.472 327.018 223.332 327.298 223.215C327.601 223.075 327.951 222.935 328.348 222.795V214.57C328.348 213.1 328.138 211.957 327.718 211.14C327.298 210.3 326.551 209.88 325.478 209.88C324.591 209.88 323.821 210.172 323.168 210.755C322.538 211.315 322.059 212.085 321.733 213.065V222.795C322.106 222.888 322.433 223.005 322.713 223.145C323.016 223.262 323.331 223.425 323.658 223.635V225H314.383V223.635C314.966 223.332 315.736 223.052 316.693 222.795V209.985L314.383 209.705V208.34C314.686 208.2 315.083 208.072 315.573 207.955C316.063 207.815 316.588 207.687 317.148 207.57C317.731 207.453 318.314 207.36 318.898 207.29C319.504 207.197 320.053 207.127 320.543 207.08H321.733V210.685H321.768C322.258 209.705 322.993 208.865 323.973 208.165C324.953 207.442 326.143 207.08 327.543 207.08C328.453 207.08 329.269 207.197 329.993 207.43C330.716 207.64 331.323 208.025 331.813 208.585C332.326 209.145 332.711 209.903 332.968 210.86C333.248 211.793 333.388 212.983 333.388 214.43V222.795C334.321 222.958 335.091 223.238 335.698 223.635V225ZM363.386 219.925C363.386 220.438 363.386 220.882 363.386 221.255C363.409 221.628 363.444 222.025 363.491 222.445L365.906 222.795V224.02C365.626 224.16 365.241 224.3 364.751 224.44C364.284 224.58 363.782 224.72 363.246 224.86C362.732 224.977 362.219 225.07 361.706 225.14C361.192 225.233 360.737 225.303 360.341 225.35H359.151C358.917 224.813 358.777 224.277 358.731 223.74C358.684 223.203 358.649 222.55 358.626 221.78H358.451C358.334 222.247 358.136 222.702 357.856 223.145C357.576 223.565 357.214 223.95 356.771 224.3C356.351 224.627 355.849 224.895 355.266 225.105C354.682 225.315 354.029 225.42 353.306 225.42C352.536 225.42 351.824 225.303 351.171 225.07C350.517 224.837 349.946 224.51 349.456 224.09C348.966 223.67 348.581 223.168 348.301 222.585C348.021 221.978 347.881 221.302 347.881 220.555C347.881 219.505 348.079 218.642 348.476 217.965C348.872 217.288 349.491 216.74 350.331 216.32C351.194 215.877 352.291 215.55 353.621 215.34C354.974 215.13 356.607 214.978 358.521 214.885C358.707 212.878 358.626 211.408 358.276 210.475C357.926 209.542 357.167 209.075 356.001 209.075C355.277 209.075 354.612 209.192 354.006 209.425L352.361 213.625H350.821C350.634 213.345 350.447 213.03 350.261 212.68C350.097 212.307 349.934 211.922 349.771 211.525C349.631 211.105 349.502 210.685 349.386 210.265C349.292 209.845 349.222 209.437 349.176 209.04C350.062 208.433 351.206 207.955 352.606 207.605C354.006 207.255 355.487 207.08 357.051 207.08C358.381 207.08 359.466 207.232 360.306 207.535C361.146 207.815 361.799 208.212 362.266 208.725C362.756 209.215 363.094 209.798 363.281 210.475C363.467 211.152 363.561 211.875 363.561 212.645C363.561 214.045 363.526 215.317 363.456 216.46C363.409 217.58 363.386 218.735 363.386 219.925ZM355.511 222.62C356.001 222.62 356.421 222.527 356.771 222.34C357.121 222.153 357.412 221.932 357.646 221.675C357.902 221.418 358.089 221.138 358.206 220.835C358.346 220.532 358.451 220.263 358.521 220.03V216.53C357.424 216.553 356.526 216.623 355.826 216.74C355.126 216.857 354.577 217.055 354.181 217.335C353.784 217.592 353.504 217.93 353.341 218.35C353.201 218.747 353.131 219.237 353.131 219.82C353.131 220.707 353.341 221.395 353.761 221.885C354.181 222.375 354.764 222.62 355.511 222.62ZM376.358 207.08C377.875 207.08 379.135 207.243 380.138 207.57C381.141 207.873 381.9 208.258 382.413 208.725C383.51 207.535 384.77 206.707 386.193 206.24C386.356 206.357 386.52 206.532 386.683 206.765C386.846 206.975 386.986 207.208 387.103 207.465C387.22 207.722 387.313 207.978 387.383 208.235C387.453 208.492 387.488 208.702 387.488 208.865L387.033 209.705H383.358C383.615 210.032 383.848 210.463 384.058 211C384.291 211.513 384.408 212.132 384.408 212.855C384.408 213.625 384.245 214.348 383.918 215.025C383.591 215.702 383.09 216.308 382.413 216.845C381.76 217.358 380.92 217.767 379.893 218.07C378.89 218.373 377.711 218.525 376.358 218.525C375.961 218.525 375.6 218.525 375.273 218.525C374.97 218.502 374.701 218.467 374.468 218.42C374.375 218.56 374.27 218.735 374.153 218.945C374.06 219.132 374.013 219.318 374.013 219.505C374.013 219.902 374.293 220.217 374.853 220.45C375.413 220.683 376.125 220.893 376.988 221.08C377.851 221.267 378.773 221.477 379.753 221.71C380.756 221.943 381.69 222.258 382.553 222.655C383.416 223.028 384.14 223.53 384.723 224.16C385.306 224.767 385.61 225.56 385.633 226.54C385.656 227.473 385.423 228.302 384.933 229.025C384.443 229.748 383.766 230.355 382.903 230.845C382.063 231.358 381.06 231.743 379.893 232C378.75 232.28 377.525 232.42 376.218 232.42C374.678 232.42 373.36 232.292 372.263 232.035C371.19 231.802 370.315 231.475 369.638 231.055C368.961 230.635 368.46 230.157 368.133 229.62C367.83 229.083 367.678 228.523 367.678 227.94C367.678 227.287 367.806 226.727 368.063 226.26C368.32 225.793 368.681 225.385 369.148 225.035C369.615 224.685 370.151 224.393 370.758 224.16C371.388 223.927 372.076 223.717 372.823 223.53C372.473 223.437 372.135 223.32 371.808 223.18C371.481 223.04 371.19 222.877 370.933 222.69C370.676 222.48 370.466 222.247 370.303 221.99C370.14 221.71 370.058 221.395 370.058 221.045C370.058 220.742 370.151 220.45 370.338 220.17C370.525 219.867 370.77 219.598 371.073 219.365C371.376 219.108 371.703 218.887 372.053 218.7C372.403 218.49 372.753 218.315 373.103 218.175C371.633 217.848 370.466 217.218 369.603 216.285C368.74 215.328 368.308 214.115 368.308 212.645C368.308 210.895 369.031 209.53 370.478 208.55C371.925 207.57 373.885 207.08 376.358 207.08ZM380.768 227.66C380.768 227.03 380.57 226.517 380.173 226.12C379.8 225.747 379.31 225.432 378.703 225.175C378.096 224.942 377.408 224.743 376.638 224.58C375.891 224.393 375.145 224.183 374.398 223.95C373.791 224.417 373.36 224.883 373.103 225.35C372.846 225.817 372.718 226.377 372.718 227.03C372.718 228.103 373.08 228.932 373.803 229.515C374.55 230.122 375.588 230.425 376.918 230.425C378.225 230.425 379.193 230.145 379.823 229.585C380.453 229.048 380.768 228.407 380.768 227.66ZM373.348 212.82C373.348 214.033 373.546 214.955 373.943 215.585C374.363 216.215 375.168 216.53 376.358 216.53C377.501 216.53 378.283 216.215 378.703 215.585C379.146 214.932 379.368 214.01 379.368 212.82C379.368 211.56 379.146 210.627 378.703 210.02C378.26 209.39 377.478 209.075 376.358 209.075C375.191 209.075 374.398 209.378 373.978 209.985C373.558 210.592 373.348 211.537 373.348 212.82ZM404.024 219.925C404.024 220.438 404.024 220.882 404.024 221.255C404.047 221.628 404.082 222.025 404.129 222.445L406.544 222.795V224.02C406.264 224.16 405.879 224.3 405.389 224.44C404.922 224.58 404.42 224.72 403.884 224.86C403.37 224.977 402.857 225.07 402.344 225.14C401.83 225.233 401.375 225.303 400.979 225.35H399.789C399.555 224.813 399.415 224.277 399.369 223.74C399.322 223.203 399.287 222.55 399.264 221.78H399.089C398.972 222.247 398.774 222.702 398.494 223.145C398.214 223.565 397.852 223.95 397.409 224.3C396.989 224.627 396.487 224.895 395.904 225.105C395.32 225.315 394.667 225.42 393.944 225.42C393.174 225.42 392.462 225.303 391.809 225.07C391.155 224.837 390.584 224.51 390.094 224.09C389.604 223.67 389.219 223.168 388.939 222.585C388.659 221.978 388.519 221.302 388.519 220.555C388.519 219.505 388.717 218.642 389.114 217.965C389.51 217.288 390.129 216.74 390.969 216.32C391.832 215.877 392.929 215.55 394.259 215.34C395.612 215.13 397.245 214.978 399.159 214.885C399.345 212.878 399.264 211.408 398.914 210.475C398.564 209.542 397.805 209.075 396.639 209.075C395.915 209.075 395.25 209.192 394.644 209.425L392.999 213.625H391.459C391.272 213.345 391.085 213.03 390.899 212.68C390.735 212.307 390.572 211.922 390.409 211.525C390.269 211.105 390.14 210.685 390.024 210.265C389.93 209.845 389.86 209.437 389.814 209.04C390.7 208.433 391.844 207.955 393.244 207.605C394.644 207.255 396.125 207.08 397.689 207.08C399.019 207.08 400.104 207.232 400.944 207.535C401.784 207.815 402.437 208.212 402.904 208.725C403.394 209.215 403.732 209.798 403.919 210.475C404.105 211.152 404.199 211.875 404.199 212.645C404.199 214.045 404.164 215.317 404.094 216.46C404.047 217.58 404.024 218.735 404.024 219.925ZM396.149 222.62C396.639 222.62 397.059 222.527 397.409 222.34C397.759 222.153 398.05 221.932 398.284 221.675C398.54 221.418 398.727 221.138 398.844 220.835C398.984 220.532 399.089 220.263 399.159 220.03V216.53C398.062 216.553 397.164 216.623 396.464 216.74C395.764 216.857 395.215 217.055 394.819 217.335C394.422 217.592 394.142 217.93 393.979 218.35C393.839 218.747 393.769 219.237 393.769 219.82C393.769 220.707 393.979 221.395 394.399 221.885C394.819 222.375 395.402 222.62 396.149 222.62ZM418.501 225H408.841V223.635C409.191 223.448 409.553 223.297 409.926 223.18C410.3 223.04 410.708 222.912 411.151 222.795V209.985L408.841 209.705V208.34C409.191 208.2 409.623 208.06 410.136 207.92C410.673 207.78 411.233 207.663 411.816 207.57C412.4 207.453 412.971 207.36 413.531 207.29C414.091 207.197 414.581 207.127 415.001 207.08H416.191V222.795C416.658 222.912 417.078 223.04 417.451 223.18C417.825 223.297 418.175 223.448 418.501 223.635V225ZM410.556 201.76C410.556 200.943 410.836 200.302 411.396 199.835C411.956 199.368 412.68 199.135 413.566 199.135C414.453 199.135 415.176 199.368 415.736 199.835C416.296 200.302 416.576 200.943 416.576 201.76C416.576 202.553 416.296 203.183 415.736 203.65C415.176 204.117 414.453 204.35 413.566 204.35C412.68 204.35 411.956 204.117 411.396 203.65C410.836 203.183 410.556 202.553 410.556 201.76ZM442.197 225H432.922V223.635C433.226 223.472 433.517 223.332 433.797 223.215C434.101 223.075 434.451 222.935 434.847 222.795V214.57C434.847 213.1 434.637 211.957 434.217 211.14C433.797 210.3 433.051 209.88 431.977 209.88C431.091 209.88 430.321 210.172 429.667 210.755C429.037 211.315 428.559 212.085 428.232 213.065V222.795C428.606 222.888 428.932 223.005 429.212 223.145C429.516 223.262 429.831 223.425 430.157 223.635V225H420.882V223.635C421.466 223.332 422.236 223.052 423.192 222.795V209.985L420.882 209.705V208.34C421.186 208.2 421.582 208.072 422.072 207.955C422.562 207.815 423.087 207.687 423.647 207.57C424.231 207.453 424.814 207.36 425.397 207.29C426.004 207.197 426.552 207.127 427.042 207.08H428.232V210.685H428.267C428.757 209.705 429.492 208.865 430.472 208.165C431.452 207.442 432.642 207.08 434.042 207.08C434.952 207.08 435.769 207.197 436.492 207.43C437.216 207.64 437.822 208.025 438.312 208.585C438.826 209.145 439.211 209.903 439.467 210.86C439.747 211.793 439.887 212.983 439.887 214.43V222.795C440.821 222.958 441.591 223.238 442.197 223.635V225ZM445.157 229.585C445.623 229.445 446.043 229.235 446.417 228.955C446.79 228.675 447.105 228.36 447.362 228.01C447.642 227.66 447.852 227.287 447.992 226.89C448.132 226.493 448.19 226.108 448.167 225.735C447.84 225.315 447.443 224.977 446.977 224.72C446.533 224.463 446.055 224.253 445.542 224.09C445.425 223.6 445.402 223.11 445.472 222.62C445.565 222.13 445.728 221.675 445.962 221.255C446.195 220.835 446.463 220.485 446.767 220.205C447.093 219.902 447.432 219.715 447.782 219.645C448.272 219.668 448.75 219.785 449.217 219.995C449.683 220.182 450.103 220.462 450.477 220.835C450.85 221.185 451.142 221.64 451.352 222.2C451.585 222.76 451.702 223.413 451.702 224.16C451.702 224.883 451.55 225.618 451.247 226.365C450.967 227.112 450.57 227.8 450.057 228.43C449.567 229.083 448.972 229.643 448.272 230.11C447.572 230.6 446.802 230.938 445.962 231.125L445.157 229.585Z" fill="#531A10"/>
<path d="M70.1665 327.25C70.1665 325.827 70.3765 324.555 70.7965 323.435C71.2398 322.292 71.8581 321.323 72.6515 320.53C73.4681 319.737 74.4481 319.13 75.5915 318.71C76.7348 318.29 78.0298 318.08 79.4765 318.08C81.1098 318.08 82.5098 318.313 83.6765 318.78C84.8665 319.223 85.8348 319.853 86.5815 320.67C87.3515 321.463 87.9115 322.432 88.2615 323.575C88.6115 324.695 88.7865 325.92 88.7865 327.25C88.7865 328.673 88.5765 329.957 88.1565 331.1C87.7365 332.22 87.1181 333.177 86.3015 333.97C85.5081 334.763 84.5281 335.37 83.3615 335.79C82.2181 336.21 80.9231 336.42 79.4765 336.42C77.8898 336.42 76.5131 336.198 75.3465 335.755C74.1798 335.288 73.2115 334.658 72.4415 333.865C71.6715 333.048 71.0998 332.08 70.7265 330.96C70.3531 329.817 70.1665 328.58 70.1665 327.25ZM75.5915 327.25C75.5915 328.3 75.6498 329.268 75.7665 330.155C75.9065 331.018 76.1398 331.753 76.4665 332.36C76.7931 332.967 77.2365 333.445 77.7965 333.795C78.3565 334.122 79.0798 334.285 79.9665 334.285C80.4798 334.285 80.9465 334.168 81.3665 333.935C81.7865 333.678 82.1481 333.282 82.4515 332.745C82.7548 332.185 82.9765 331.462 83.1165 330.575C83.2798 329.665 83.3615 328.557 83.3615 327.25C83.3615 326.177 83.2915 325.208 83.1515 324.345C83.0348 323.482 82.8131 322.747 82.4865 322.14C82.1831 321.533 81.7631 321.067 81.2265 320.74C80.6898 320.39 80.0131 320.215 79.1965 320.215C78.5898 320.215 78.0648 320.343 77.6215 320.6C77.1781 320.833 76.8048 321.23 76.5015 321.79C76.1981 322.327 75.9648 323.05 75.8015 323.96C75.6615 324.847 75.5915 325.943 75.5915 327.25ZM100.713 322.525C100.433 322.665 100.106 322.898 99.7327 323.225C99.3594 323.552 99.021 324.088 98.7177 324.835V333.795C99.1844 333.842 99.651 333.935 100.118 334.075C100.584 334.192 101.051 334.378 101.518 334.635V336H91.3677V334.635C91.7877 334.402 92.1844 334.227 92.5577 334.11C92.931 333.993 93.3044 333.888 93.6777 333.795V320.985L91.3677 320.705V319.34C91.741 319.177 92.196 319.025 92.7327 318.885C93.2927 318.745 93.8644 318.628 94.4477 318.535C95.031 318.418 95.591 318.325 96.1277 318.255C96.6877 318.185 97.1544 318.127 97.5277 318.08H98.7177V322.735H98.8577C99.0444 322.222 99.3127 321.685 99.6627 321.125C100.036 320.565 100.468 320.052 100.958 319.585C101.448 319.118 101.984 318.745 102.568 318.465C103.151 318.185 103.758 318.057 104.388 318.08C104.644 318.407 104.866 318.873 105.053 319.48C105.239 320.063 105.391 320.623 105.508 321.16V322.525H100.713ZM119.356 332.535C119.239 333.048 119.029 333.538 118.726 334.005C118.423 334.472 118.061 334.892 117.641 335.265C117.221 335.615 116.743 335.895 116.206 336.105C115.669 336.315 115.098 336.42 114.491 336.42C112.181 336.42 110.419 335.697 109.206 334.25C108.016 332.78 107.421 330.54 107.421 327.53C107.421 325.99 107.631 324.648 108.051 323.505C108.471 322.338 109.054 321.358 109.801 320.565C110.571 319.772 111.493 319.177 112.566 318.78C113.639 318.383 114.829 318.185 116.136 318.185C116.556 318.185 116.906 318.197 117.186 318.22C117.489 318.243 117.758 318.278 117.991 318.325C118.248 318.348 118.481 318.407 118.691 318.5C118.924 318.57 119.181 318.652 119.461 318.745V312.585L116.801 312.305V310.94C117.128 310.8 117.571 310.672 118.131 310.555C118.714 310.438 119.321 310.333 119.951 310.24C120.581 310.123 121.199 310.018 121.806 309.925C122.413 309.832 122.914 309.75 123.311 309.68H124.501V333.515L126.811 333.795V335.02C126.484 335.183 126.064 335.335 125.551 335.475C125.038 335.615 124.501 335.743 123.941 335.86C123.381 335.977 122.833 336.07 122.296 336.14C121.783 336.233 121.351 336.303 121.001 336.35H119.811L119.496 332.535H119.356ZM116.171 333.62C116.988 333.62 117.676 333.363 118.236 332.85C118.796 332.337 119.204 331.462 119.461 330.225V320.81C119.158 320.623 118.773 320.472 118.306 320.355C117.863 320.238 117.303 320.18 116.626 320.18C115.273 320.18 114.304 320.798 113.721 322.035C113.138 323.248 112.846 325.022 112.846 327.355C112.846 329.245 113.103 330.762 113.616 331.905C114.129 333.048 114.981 333.62 116.171 333.62ZM144.998 333.06C144.811 333.457 144.508 333.865 144.088 334.285C143.691 334.682 143.19 335.043 142.583 335.37C142 335.673 141.311 335.918 140.518 336.105C139.748 336.315 138.908 336.42 137.998 336.42C136.551 336.42 135.268 336.21 134.148 335.79C133.028 335.347 132.095 334.728 131.348 333.935C130.601 333.118 130.03 332.15 129.633 331.03C129.26 329.91 129.073 328.65 129.073 327.25C129.073 324.263 129.855 321.988 131.418 320.425C132.981 318.862 135.151 318.08 137.928 318.08C139.118 318.08 140.226 318.243 141.253 318.57C142.303 318.897 143.166 319.433 143.843 320.18C144.543 320.927 145.021 321.907 145.278 323.12C145.558 324.333 145.546 325.815 145.243 327.565H134.498C134.521 329.408 134.988 330.878 135.898 331.975C136.831 333.072 138.196 333.62 139.993 333.62C140.763 333.62 141.556 333.503 142.373 333.27C143.213 333.037 143.866 332.733 144.333 332.36L144.998 333.06ZM137.788 320.075C137.321 320.075 136.901 320.157 136.528 320.32C136.178 320.483 135.863 320.787 135.583 321.23C135.326 321.65 135.116 322.233 134.953 322.98C134.79 323.703 134.673 324.625 134.603 325.745H140.238C140.401 323.925 140.296 322.525 139.923 321.545C139.55 320.565 138.838 320.075 137.788 320.075ZM157.637 322.525C157.357 322.665 157.03 322.898 156.657 323.225C156.284 323.552 155.945 324.088 155.642 324.835V333.795C156.109 333.842 156.575 333.935 157.042 334.075C157.509 334.192 157.975 334.378 158.442 334.635V336H148.292V334.635C148.712 334.402 149.109 334.227 149.482 334.11C149.855 333.993 150.229 333.888 150.602 333.795V320.985L148.292 320.705V319.34C148.665 319.177 149.12 319.025 149.657 318.885C150.217 318.745 150.789 318.628 151.372 318.535C151.955 318.418 152.515 318.325 153.052 318.255C153.612 318.185 154.079 318.127 154.452 318.08H155.642V322.735H155.782C155.969 322.222 156.237 321.685 156.587 321.125C156.96 320.565 157.392 320.052 157.882 319.585C158.372 319.118 158.909 318.745 159.492 318.465C160.075 318.185 160.682 318.057 161.312 318.08C161.569 318.407 161.79 318.873 161.977 319.48C162.164 320.063 162.315 320.623 162.432 321.16V322.525H157.637ZM189.844 330.925C189.844 331.438 189.844 331.882 189.844 332.255C189.867 332.628 189.902 333.025 189.949 333.445L192.364 333.795V335.02C192.084 335.16 191.699 335.3 191.209 335.44C190.742 335.58 190.24 335.72 189.704 335.86C189.19 335.977 188.677 336.07 188.164 336.14C187.65 336.233 187.195 336.303 186.799 336.35H185.609C185.375 335.813 185.235 335.277 185.189 334.74C185.142 334.203 185.107 333.55 185.084 332.78H184.909C184.792 333.247 184.594 333.702 184.314 334.145C184.034 334.565 183.672 334.95 183.229 335.3C182.809 335.627 182.307 335.895 181.724 336.105C181.14 336.315 180.487 336.42 179.764 336.42C178.994 336.42 178.282 336.303 177.629 336.07C176.975 335.837 176.404 335.51 175.914 335.09C175.424 334.67 175.039 334.168 174.759 333.585C174.479 332.978 174.339 332.302 174.339 331.555C174.339 330.505 174.537 329.642 174.934 328.965C175.33 328.288 175.949 327.74 176.789 327.32C177.652 326.877 178.749 326.55 180.079 326.34C181.432 326.13 183.065 325.978 184.979 325.885C185.165 323.878 185.084 322.408 184.734 321.475C184.384 320.542 183.625 320.075 182.459 320.075C181.735 320.075 181.07 320.192 180.464 320.425L178.819 324.625H177.279C177.092 324.345 176.905 324.03 176.719 323.68C176.555 323.307 176.392 322.922 176.229 322.525C176.089 322.105 175.96 321.685 175.844 321.265C175.75 320.845 175.68 320.437 175.634 320.04C176.52 319.433 177.664 318.955 179.064 318.605C180.464 318.255 181.945 318.08 183.509 318.08C184.839 318.08 185.924 318.232 186.764 318.535C187.604 318.815 188.257 319.212 188.724 319.725C189.214 320.215 189.552 320.798 189.739 321.475C189.925 322.152 190.019 322.875 190.019 323.645C190.019 325.045 189.984 326.317 189.914 327.46C189.867 328.58 189.844 329.735 189.844 330.925ZM181.969 333.62C182.459 333.62 182.879 333.527 183.229 333.34C183.579 333.153 183.87 332.932 184.104 332.675C184.36 332.418 184.547 332.138 184.664 331.835C184.804 331.532 184.909 331.263 184.979 331.03V327.53C183.882 327.553 182.984 327.623 182.284 327.74C181.584 327.857 181.035 328.055 180.639 328.335C180.242 328.592 179.962 328.93 179.799 329.35C179.659 329.747 179.589 330.237 179.589 330.82C179.589 331.707 179.799 332.395 180.219 332.885C180.639 333.375 181.222 333.62 181.969 333.62ZM203.656 332.185C203.656 331.578 203.435 331.053 202.991 330.61C202.571 330.167 202.035 329.758 201.381 329.385C200.751 329.012 200.051 328.638 199.281 328.265C198.535 327.892 197.835 327.46 197.181 326.97C196.551 326.457 196.015 325.862 195.571 325.185C195.151 324.508 194.941 323.68 194.941 322.7C194.941 322 195.105 321.37 195.431 320.81C195.758 320.227 196.201 319.737 196.761 319.34C197.321 318.943 197.986 318.64 198.756 318.43C199.55 318.197 200.401 318.08 201.311 318.08C202.571 318.08 203.738 318.185 204.811 318.395C205.908 318.582 206.865 318.85 207.681 319.2C207.588 319.947 207.401 320.752 207.121 321.615C206.841 322.455 206.573 323.225 206.316 323.925H205.126L203.656 320.355C203.376 320.238 203.085 320.168 202.781 320.145C202.478 320.098 202.14 320.075 201.766 320.075C201.066 320.075 200.53 320.285 200.156 320.705C199.806 321.102 199.631 321.557 199.631 322.07C199.631 322.653 199.841 323.167 200.261 323.61C200.705 324.03 201.241 324.427 201.871 324.8C202.525 325.173 203.225 325.547 203.971 325.92C204.741 326.293 205.441 326.725 206.071 327.215C206.725 327.682 207.261 328.242 207.681 328.895C208.125 329.548 208.346 330.33 208.346 331.24C208.346 332.85 207.693 334.122 206.386 335.055C205.08 335.965 203.33 336.42 201.136 336.42C200.016 336.42 198.861 336.303 197.671 336.07C196.481 335.837 195.455 335.51 194.591 335.09C194.638 334.25 194.836 333.398 195.186 332.535C195.536 331.672 195.91 330.902 196.306 330.225H197.496L199.211 334.04C199.468 334.227 199.748 334.343 200.051 334.39C200.378 334.413 200.681 334.425 200.961 334.425C201.638 334.425 202.256 334.227 202.816 333.83C203.376 333.433 203.656 332.885 203.656 332.185ZM220.181 332.185C220.181 331.578 219.96 331.053 219.516 330.61C219.096 330.167 218.56 329.758 217.906 329.385C217.276 329.012 216.576 328.638 215.806 328.265C215.06 327.892 214.36 327.46 213.706 326.97C213.076 326.457 212.54 325.862 212.096 325.185C211.676 324.508 211.466 323.68 211.466 322.7C211.466 322 211.63 321.37 211.956 320.81C212.283 320.227 212.726 319.737 213.286 319.34C213.846 318.943 214.511 318.64 215.281 318.43C216.075 318.197 216.926 318.08 217.836 318.08C219.096 318.08 220.263 318.185 221.336 318.395C222.433 318.582 223.39 318.85 224.206 319.2C224.113 319.947 223.926 320.752 223.646 321.615C223.366 322.455 223.098 323.225 222.841 323.925H221.651L220.181 320.355C219.901 320.238 219.61 320.168 219.306 320.145C219.003 320.098 218.665 320.075 218.291 320.075C217.591 320.075 217.055 320.285 216.681 320.705C216.331 321.102 216.156 321.557 216.156 322.07C216.156 322.653 216.366 323.167 216.786 323.61C217.23 324.03 217.766 324.427 218.396 324.8C219.05 325.173 219.75 325.547 220.496 325.92C221.266 326.293 221.966 326.725 222.596 327.215C223.25 327.682 223.786 328.242 224.206 328.895C224.65 329.548 224.871 330.33 224.871 331.24C224.871 332.85 224.218 334.122 222.911 335.055C221.605 335.965 219.855 336.42 217.661 336.42C216.541 336.42 215.386 336.303 214.196 336.07C213.006 335.837 211.98 335.51 211.116 335.09C211.163 334.25 211.361 333.398 211.711 332.535C212.061 331.672 212.435 330.902 212.831 330.225H214.021L215.736 334.04C215.993 334.227 216.273 334.343 216.576 334.39C216.903 334.413 217.206 334.425 217.486 334.425C218.163 334.425 218.781 334.227 219.341 333.83C219.901 333.433 220.181 332.885 220.181 332.185ZM243.637 333.06C243.45 333.457 243.147 333.865 242.727 334.285C242.33 334.682 241.828 335.043 241.222 335.37C240.638 335.673 239.95 335.918 239.157 336.105C238.387 336.315 237.547 336.42 236.637 336.42C235.19 336.42 233.907 336.21 232.787 335.79C231.667 335.347 230.733 334.728 229.987 333.935C229.24 333.118 228.668 332.15 228.272 331.03C227.898 329.91 227.712 328.65 227.712 327.25C227.712 324.263 228.493 321.988 230.057 320.425C231.62 318.862 233.79 318.08 236.567 318.08C237.757 318.08 238.865 318.243 239.892 318.57C240.942 318.897 241.805 319.433 242.482 320.18C243.182 320.927 243.66 321.907 243.917 323.12C244.197 324.333 244.185 325.815 243.882 327.565H233.137C233.16 329.408 233.627 330.878 234.537 331.975C235.47 333.072 236.835 333.62 238.632 333.62C239.402 333.62 240.195 333.503 241.012 333.27C241.852 333.037 242.505 332.733 242.972 332.36L243.637 333.06ZM236.427 320.075C235.96 320.075 235.54 320.157 235.167 320.32C234.817 320.483 234.502 320.787 234.222 321.23C233.965 321.65 233.755 322.233 233.592 322.98C233.428 323.703 233.312 324.625 233.242 325.745H238.877C239.04 323.925 238.935 322.525 238.562 321.545C238.188 320.565 237.477 320.075 236.427 320.075ZM256.275 322.525C255.995 322.665 255.669 322.898 255.295 323.225C254.922 323.552 254.584 324.088 254.28 324.835V333.795C254.747 333.842 255.214 333.935 255.68 334.075C256.147 334.192 256.614 334.378 257.08 334.635V336H246.93V334.635C247.35 334.402 247.747 334.227 248.12 334.11C248.494 333.993 248.867 333.888 249.24 333.795V320.985L246.93 320.705V319.34C247.304 319.177 247.759 319.025 248.295 318.885C248.855 318.745 249.427 318.628 250.01 318.535C250.594 318.418 251.154 318.325 251.69 318.255C252.25 318.185 252.717 318.127 253.09 318.08H254.28V322.735H254.42C254.607 322.222 254.875 321.685 255.225 321.125C255.599 320.565 256.03 320.052 256.52 319.585C257.01 319.118 257.547 318.745 258.13 318.465C258.714 318.185 259.32 318.057 259.95 318.08C260.207 318.407 260.429 318.873 260.615 319.48C260.802 320.063 260.954 320.623 261.07 321.16V322.525H256.275ZM262.179 319.34C263.065 318.78 263.999 318.383 264.979 318.15V315.315C265.119 315.175 265.352 315.047 265.679 314.93C266.029 314.79 266.39 314.673 266.764 314.58C267.16 314.463 267.545 314.358 267.919 314.265C268.292 314.172 268.595 314.102 268.829 314.055H270.019V318.5H274.639V320.705H270.019V329.77C270.019 331.217 270.194 332.22 270.544 332.78C270.917 333.34 271.524 333.62 272.364 333.62C272.784 333.62 273.25 333.597 273.764 333.55C274.3 333.48 274.79 333.363 275.234 333.2L275.479 334.355C275.269 334.565 274.954 334.787 274.534 335.02C274.137 335.253 273.67 335.475 273.134 335.685C272.62 335.895 272.049 336.07 271.419 336.21C270.812 336.35 270.17 336.42 269.494 336.42C267.977 336.42 266.845 336.023 266.099 335.23C265.352 334.437 264.979 333.153 264.979 331.38V320.705H262.179V319.34ZM286.658 332.185C286.658 331.578 286.436 331.053 285.993 330.61C285.573 330.167 285.036 329.758 284.383 329.385C283.753 329.012 283.053 328.638 282.283 328.265C281.536 327.892 280.836 327.46 280.183 326.97C279.553 326.457 279.016 325.862 278.573 325.185C278.153 324.508 277.943 323.68 277.943 322.7C277.943 322 278.106 321.37 278.433 320.81C278.76 320.227 279.203 319.737 279.763 319.34C280.323 318.943 280.988 318.64 281.758 318.43C282.551 318.197 283.403 318.08 284.313 318.08C285.573 318.08 286.74 318.185 287.813 318.395C288.91 318.582 289.866 318.85 290.683 319.2C290.59 319.947 290.403 320.752 290.123 321.615C289.843 322.455 289.575 323.225 289.318 323.925H288.128L286.658 320.355C286.378 320.238 286.086 320.168 285.783 320.145C285.48 320.098 285.141 320.075 284.768 320.075C284.068 320.075 283.531 320.285 283.158 320.705C282.808 321.102 282.633 321.557 282.633 322.07C282.633 322.653 282.843 323.167 283.263 323.61C283.706 324.03 284.243 324.427 284.873 324.8C285.526 325.173 286.226 325.547 286.973 325.92C287.743 326.293 288.443 326.725 289.073 327.215C289.726 327.682 290.263 328.242 290.683 328.895C291.126 329.548 291.348 330.33 291.348 331.24C291.348 332.85 290.695 334.122 289.388 335.055C288.081 335.965 286.331 336.42 284.138 336.42C283.018 336.42 281.863 336.303 280.673 336.07C279.483 335.837 278.456 335.51 277.593 335.09C277.64 334.25 277.838 333.398 278.188 332.535C278.538 331.672 278.911 330.902 279.308 330.225H280.498L282.213 334.04C282.47 334.227 282.75 334.343 283.053 334.39C283.38 334.413 283.683 334.425 283.963 334.425C284.64 334.425 285.258 334.227 285.818 333.83C286.378 333.433 286.658 332.885 286.658 332.185ZM313.982 336H304.322V334.635C304.672 334.448 305.034 334.297 305.407 334.18C305.78 334.04 306.189 333.912 306.632 333.795V320.985L304.322 320.705V319.34C304.672 319.2 305.104 319.06 305.617 318.92C306.154 318.78 306.714 318.663 307.297 318.57C307.88 318.453 308.452 318.36 309.012 318.29C309.572 318.197 310.062 318.127 310.482 318.08H311.672V333.795C312.139 333.912 312.559 334.04 312.932 334.18C313.305 334.297 313.655 334.448 313.982 334.635V336ZM306.037 312.76C306.037 311.943 306.317 311.302 306.877 310.835C307.437 310.368 308.16 310.135 309.047 310.135C309.934 310.135 310.657 310.368 311.217 310.835C311.777 311.302 312.057 311.943 312.057 312.76C312.057 313.553 311.777 314.183 311.217 314.65C310.657 315.117 309.934 315.35 309.047 315.35C308.16 315.35 307.437 315.117 306.877 314.65C306.317 314.183 306.037 313.553 306.037 312.76ZM315.838 319.34C316.725 318.78 317.658 318.383 318.638 318.15V315.315C318.778 315.175 319.011 315.047 319.338 314.93C319.688 314.79 320.05 314.673 320.423 314.58C320.82 314.463 321.205 314.358 321.578 314.265C321.951 314.172 322.255 314.102 322.488 314.055H323.678V318.5H328.298V320.705H323.678V329.77C323.678 331.217 323.853 332.22 324.203 332.78C324.576 333.34 325.183 333.62 326.023 333.62C326.443 333.62 326.91 333.597 327.423 333.55C327.96 333.48 328.45 333.363 328.893 333.2L329.138 334.355C328.928 334.565 328.613 334.787 328.193 335.02C327.796 335.253 327.33 335.475 326.793 335.685C326.28 335.895 325.708 336.07 325.078 336.21C324.471 336.35 323.83 336.42 323.153 336.42C321.636 336.42 320.505 336.023 319.758 335.23C319.011 334.437 318.638 333.153 318.638 331.38V320.705H315.838V319.34ZM340.318 332.185C340.318 331.578 340.096 331.053 339.653 330.61C339.233 330.167 338.696 329.758 338.043 329.385C337.413 329.012 336.713 328.638 335.943 328.265C335.196 327.892 334.496 327.46 333.843 326.97C333.213 326.457 332.676 325.862 332.233 325.185C331.813 324.508 331.603 323.68 331.603 322.7C331.603 322 331.766 321.37 332.093 320.81C332.419 320.227 332.863 319.737 333.423 319.34C333.983 318.943 334.648 318.64 335.418 318.43C336.211 318.197 337.063 318.08 337.973 318.08C339.233 318.08 340.399 318.185 341.473 318.395C342.569 318.582 343.526 318.85 344.343 319.2C344.249 319.947 344.063 320.752 343.783 321.615C343.503 322.455 343.234 323.225 342.978 323.925H341.788L340.318 320.355C340.038 320.238 339.746 320.168 339.443 320.145C339.139 320.098 338.801 320.075 338.428 320.075C337.728 320.075 337.191 320.285 336.818 320.705C336.468 321.102 336.293 321.557 336.293 322.07C336.293 322.653 336.503 323.167 336.923 323.61C337.366 324.03 337.903 324.427 338.533 324.8C339.186 325.173 339.886 325.547 340.633 325.92C341.403 326.293 342.103 326.725 342.733 327.215C343.386 327.682 343.923 328.242 344.343 328.895C344.786 329.548 345.008 330.33 345.008 331.24C345.008 332.85 344.354 334.122 343.048 335.055C341.741 335.965 339.991 336.42 337.798 336.42C336.678 336.42 335.523 336.303 334.333 336.07C333.143 335.837 332.116 335.51 331.253 335.09C331.299 334.25 331.498 333.398 331.848 332.535C332.198 331.672 332.571 330.902 332.968 330.225H334.158L335.873 334.04C336.129 334.227 336.409 334.343 336.713 334.39C337.039 334.413 337.343 334.425 337.623 334.425C338.299 334.425 338.918 334.227 339.478 333.83C340.038 333.433 340.318 332.885 340.318 332.185ZM363.773 333.06C363.586 333.457 363.283 333.865 362.863 334.285C362.466 334.682 361.964 335.043 361.358 335.37C360.774 335.673 360.086 335.918 359.293 336.105C358.523 336.315 357.683 336.42 356.773 336.42C355.326 336.42 354.043 336.21 352.923 335.79C351.803 335.347 350.869 334.728 350.123 333.935C349.376 333.118 348.804 332.15 348.408 331.03C348.034 329.91 347.848 328.65 347.848 327.25C347.848 324.263 348.629 321.988 350.193 320.425C351.756 318.862 353.926 318.08 356.703 318.08C357.893 318.08 359.001 318.243 360.028 318.57C361.078 318.897 361.941 319.433 362.618 320.18C363.318 320.927 363.796 321.907 364.053 323.12C364.333 324.333 364.321 325.815 364.018 327.565H353.273C353.296 329.408 353.763 330.878 354.673 331.975C355.606 333.072 356.971 333.62 358.768 333.62C359.538 333.62 360.331 333.503 361.148 333.27C361.988 333.037 362.641 332.733 363.108 332.36L363.773 333.06ZM356.563 320.075C356.096 320.075 355.676 320.157 355.303 320.32C354.953 320.483 354.638 320.787 354.358 321.23C354.101 321.65 353.891 322.233 353.728 322.98C353.564 323.703 353.448 324.625 353.378 325.745H359.013C359.176 323.925 359.071 322.525 358.698 321.545C358.324 320.565 357.613 320.075 356.563 320.075ZM377.007 336H367.347V334.635C368.117 334.262 368.887 333.982 369.657 333.795V312.585L366.997 312.305V310.94C367.3 310.8 367.72 310.66 368.257 310.52C368.793 310.38 369.365 310.263 369.972 310.17C370.602 310.053 371.22 309.96 371.827 309.89C372.457 309.797 373.017 309.727 373.507 309.68H374.697V333.795C375.467 333.982 376.237 334.262 377.007 334.635V336ZM389.818 309.68C390.774 309.68 391.626 309.773 392.373 309.96C393.143 310.123 393.726 310.287 394.123 310.45C394.053 311.22 393.901 312.013 393.668 312.83C393.434 313.647 393.224 314.323 393.038 314.86H391.848L390.308 311.535C389.701 311.535 389.188 311.605 388.768 311.745C388.371 311.862 388.044 312.107 387.788 312.48C387.554 312.853 387.379 313.39 387.263 314.09C387.146 314.767 387.088 315.653 387.088 316.75V318.5H390.798V320.705H387.088V333.795C388.301 333.935 389.421 334.215 390.448 334.635V336H379.738V334.635C380.461 334.215 381.231 333.935 382.048 333.795V320.705H379.388V319.34C380.204 318.827 381.091 318.442 382.048 318.185V316.96C382.048 315.513 382.246 314.323 382.643 313.39C383.063 312.433 383.623 311.687 384.323 311.15C385.023 310.59 385.839 310.205 386.773 309.995C387.729 309.785 388.744 309.68 389.818 309.68ZM393.656 333.515C393.656 332.675 393.924 331.998 394.461 331.485C394.997 330.972 395.709 330.715 396.596 330.715C397.482 330.715 398.206 330.972 398.766 331.485C399.326 331.998 399.606 332.675 399.606 333.515C399.606 334.355 399.326 335.032 398.766 335.545C398.206 336.035 397.482 336.28 396.596 336.28C395.709 336.28 394.997 336.035 394.461 335.545C393.924 335.032 393.656 334.355 393.656 333.515ZM403.105 319.9C404.015 319.667 404.726 319.258 405.24 318.675C405.753 318.092 405.986 317.485 405.94 316.855C405.636 316.482 405.251 316.19 404.785 315.98C404.341 315.747 403.863 315.548 403.35 315.385C403.233 314.965 403.21 314.545 403.28 314.125C403.373 313.682 403.536 313.285 403.77 312.935C404.003 312.562 404.271 312.247 404.575 311.99C404.901 311.733 405.228 311.582 405.555 311.535C406.021 311.558 406.488 311.663 406.955 311.85C407.421 312.013 407.83 312.258 408.18 312.585C408.553 312.888 408.845 313.285 409.055 313.775C409.288 314.242 409.405 314.802 409.405 315.455C409.405 316.085 409.265 316.727 408.985 317.38C408.705 318.033 408.308 318.64 407.795 319.2C407.305 319.76 406.71 320.25 406.01 320.67C405.31 321.067 404.551 321.347 403.735 321.51L403.105 319.9Z" fill="#531A10"/>
</svg>
