<svg width="273" height="326" viewBox="0 0 273 326" fill="none" xmlns="http://www.w3.org/2000/svg">
<path d="M6.344 6.772C5.668 6.94533 5.148 7.20533 4.784 7.552C4.43733 7.88133 4.28133 8.28 4.316 8.748C4.54133 9.02533 4.81867 9.25067 5.148 9.424C5.49467 9.58 5.85867 9.71867 6.24 9.84C6.32667 10.152 6.33533 10.4727 6.266 10.802C6.214 11.114 6.10133 11.4087 5.928 11.686C5.75467 11.946 5.54667 12.1713 5.304 12.362C5.07867 12.5527 4.84467 12.6653 4.602 12.7C4.238 12.6827 3.88267 12.6133 3.536 12.492C3.18933 12.3533 2.886 12.1627 2.626 11.92C2.366 11.6773 2.14933 11.3913 1.976 11.062C1.82 10.7153 1.742 10.3253 1.742 9.892C1.742 9.372 1.846 8.878 2.054 8.41C2.262 7.92467 2.548 7.49133 2.912 7.11C3.29333 6.72867 3.744 6.408 4.264 6.148C4.784 5.87067 5.356 5.68 5.98 5.576L6.344 6.772ZM13.821 13.688C14.9477 13.688 15.8837 13.8093 16.629 14.052C17.3744 14.2773 17.9377 14.5633 18.319 14.91C19.1337 14.026 20.0697 13.4107 21.127 13.064C21.2484 13.1507 21.3697 13.2807 21.491 13.454C21.6124 13.61 21.7164 13.7833 21.803 13.974C21.8897 14.1647 21.959 14.3553 22.011 14.546C22.063 14.7367 22.089 14.8927 22.089 15.014L21.751 15.638H19.021C19.2117 15.8807 19.385 16.2013 19.541 16.6C19.7144 16.9813 19.801 17.4407 19.801 17.978C19.801 18.55 19.6797 19.0873 19.437 19.59C19.1944 20.0927 18.8217 20.5433 18.319 20.942C17.8337 21.3233 17.2097 21.6267 16.447 21.852C15.7017 22.0773 14.8264 22.19 13.821 22.19C13.5264 22.19 13.2577 22.19 13.015 22.19C12.7897 22.1727 12.5904 22.1467 12.417 22.112C12.3477 22.216 12.2697 22.346 12.183 22.502C12.1137 22.6407 12.079 22.7793 12.079 22.918C12.079 23.2127 12.287 23.4467 12.703 23.62C13.119 23.7933 13.6477 23.9493 14.289 24.088C14.9304 24.2267 15.615 24.3827 16.343 24.556C17.0884 24.7293 17.7817 24.9633 18.423 25.258C19.0644 25.5353 19.6017 25.908 20.035 26.376C20.4684 26.8267 20.6937 27.416 20.711 28.144C20.7284 28.8373 20.555 29.4527 20.191 29.99C19.827 30.5273 19.3244 30.978 18.683 31.342C18.059 31.7233 17.3137 32.0093 16.447 32.2C15.5977 32.408 14.6877 32.512 13.717 32.512C12.573 32.512 11.5937 32.4167 10.779 32.226C9.9817 32.0527 9.3317 31.81 8.82903 31.498C8.32636 31.186 7.9537 30.8307 7.71103 30.432C7.4857 30.0333 7.37303 29.6173 7.37303 29.184C7.37303 28.6987 7.46836 28.2827 7.65903 27.936C7.8497 27.5893 8.11836 27.286 8.46503 27.026C8.8117 26.766 9.21036 26.5493 9.66103 26.376C10.129 26.2027 10.6404 26.0467 11.195 25.908C10.935 25.8387 10.6837 25.752 10.441 25.648C10.1984 25.544 9.9817 25.4227 9.79103 25.284C9.60036 25.128 9.44436 24.9547 9.32303 24.764C9.2017 24.556 9.14103 24.322 9.14103 24.062C9.14103 23.8367 9.21036 23.62 9.34903 23.412C9.4877 23.1867 9.6697 22.9873 9.89503 22.814C10.1204 22.6233 10.363 22.4587 10.623 22.32C10.883 22.164 11.143 22.034 11.403 21.93C10.311 21.6873 9.44436 21.2193 8.80303 20.526C8.1617 19.8153 7.84103 18.914 7.84103 17.822C7.84103 16.522 8.37836 15.508 9.45303 14.78C10.5277 14.052 11.9837 13.688 13.821 13.688ZM17.097 28.976C17.097 28.508 16.9497 28.1267 16.655 27.832C16.3777 27.5547 16.0137 27.3207 15.563 27.13C15.1124 26.9567 14.601 26.8093 14.029 26.688C13.4744 26.5493 12.9197 26.3933 12.365 26.22C11.9144 26.5667 11.5937 26.9133 11.403 27.26C11.2124 27.6067 11.117 28.0227 11.117 28.508C11.117 29.3053 11.3857 29.9207 11.923 30.354C12.4777 30.8047 13.249 31.03 14.237 31.03C15.2077 31.03 15.927 30.822 16.395 30.406C16.863 30.0073 17.097 29.5307 17.097 28.976ZM11.585 17.952C11.585 18.8533 11.7324 19.538 12.027 20.006C12.339 20.474 12.937 20.708 13.821 20.708C14.6704 20.708 15.251 20.474 15.563 20.006C15.8924 19.5207 16.057 18.836 16.057 17.952C16.057 17.016 15.8924 16.3227 15.563 15.872C15.2337 15.404 14.653 15.17 13.821 15.17C12.9544 15.17 12.365 15.3953 12.053 15.846C11.741 16.2967 11.585 16.9987 11.585 17.952ZM29.6148 27H22.4388V25.986C22.6988 25.8473 22.9675 25.7347 23.2448 25.648C23.5221 25.544 23.8255 25.4487 24.1548 25.362V15.846L22.4388 15.638V14.624C22.6988 14.52 23.0195 14.416 23.4008 14.312C23.7995 14.208 24.2155 14.1213 24.6488 14.052C25.0821 13.9653 25.5068 13.896 25.9228 13.844C26.3388 13.7747 26.7028 13.7227 27.0148 13.688H27.8988V25.362C28.2455 25.4487 28.5575 25.544 28.8348 25.648C29.1121 25.7347 29.3721 25.8473 29.6148 25.986V27ZM23.7128 9.736C23.7128 9.12933 23.9208 8.65267 24.3368 8.306C24.7528 7.95933 25.2901 7.786 25.9488 7.786C26.6075 7.786 27.1448 7.95933 27.5608 8.306C27.9768 8.65267 28.1848 9.12933 28.1848 9.736C28.1848 10.3253 27.9768 10.7933 27.5608 11.14C27.1448 11.4867 26.6075 11.66 25.9488 11.66C25.2901 11.66 24.7528 11.4867 24.3368 11.14C23.9208 10.7933 23.7128 10.3253 23.7128 9.736ZM36.5836 27.312L31.3836 15.638C30.881 15.4647 30.4216 15.2567 30.0056 15.014V14H36.8436V14.988C36.6183 15.1093 36.3843 15.2307 36.1416 15.352C35.9163 15.456 35.6563 15.5513 35.3616 15.638L37.7796 22.294L38.2736 24.036H38.3256L38.7416 22.268L40.9516 15.638C40.6743 15.5687 40.4143 15.482 40.1716 15.378C39.9463 15.274 39.7296 15.1527 39.5216 15.014V14H44.5396V15.014C44.3663 15.1353 44.1496 15.248 43.8896 15.352C43.647 15.456 43.3696 15.5513 43.0576 15.638L38.5076 27L36.5836 27.312ZM56.5364 24.816C56.3977 25.1107 56.1724 25.414 55.8604 25.726C55.5657 26.0207 55.1931 26.2893 54.7424 26.532C54.3091 26.7573 53.7977 26.9393 53.2084 27.078C52.6364 27.234 52.0124 27.312 51.3364 27.312C50.2617 27.312 49.3084 27.156 48.4764 26.844C47.6444 26.5147 46.9511 26.0553 46.3964 25.466C45.8417 24.8593 45.4171 24.14 45.1224 23.308C44.8451 22.476 44.7064 21.54 44.7064 20.5C44.7064 18.2813 45.2871 16.5913 46.4484 15.43C47.6097 14.2687 49.2217 13.688 51.2844 13.688C52.1684 13.688 52.9917 13.8093 53.7544 14.052C54.5344 14.2947 55.1757 14.6933 55.6784 15.248C56.1984 15.8027 56.5537 16.5307 56.7444 17.432C56.9524 18.3333 56.9437 19.434 56.7184 20.734H48.7364C48.7537 22.1033 49.1004 23.1953 49.7764 24.01C50.4697 24.8247 51.4837 25.232 52.8184 25.232C53.3904 25.232 53.9797 25.1453 54.5864 24.972C55.2104 24.7987 55.6957 24.5733 56.0424 24.296L56.5364 24.816ZM51.1804 15.17C50.8337 15.17 50.5217 15.2307 50.2444 15.352C49.9844 15.4733 49.7504 15.6987 49.5424 16.028C49.3517 16.34 49.1957 16.7733 49.0744 17.328C48.9531 17.8653 48.8664 18.55 48.8144 19.382H53.0004C53.1217 18.03 53.0437 16.99 52.7664 16.262C52.4891 15.534 51.9604 15.17 51.1804 15.17ZM70.073 27.312L65.991 15.638C65.7484 15.5513 65.5057 15.4647 65.263 15.378C65.0377 15.274 64.821 15.1527 64.613 15.014V14H71.191V14.988C70.9484 15.1267 70.7057 15.2567 70.463 15.378C70.2204 15.482 69.969 15.5687 69.709 15.638L71.503 22.294L71.841 24.296H71.893L72.361 22.216L75.117 14.156L76.391 14L79.355 22.242L79.901 24.296H79.953L80.369 22.268L81.929 15.638C81.7384 15.6033 81.513 15.534 81.253 15.43C81.0104 15.326 80.759 15.1873 80.499 15.014V14H85.517V15.014C85.153 15.2567 84.659 15.4647 84.035 15.638L80.421 27L77.977 27.312L75.741 20.89L75.247 18.732H75.169L74.571 20.89L72.491 27L70.073 27.312ZM97.4817 23.23C97.4817 23.6113 97.4817 23.9407 97.4817 24.218C97.4991 24.4953 97.5251 24.79 97.5597 25.102L99.3537 25.362V26.272C99.1457 26.376 98.8597 26.48 98.4957 26.584C98.1491 26.688 97.7764 26.792 97.3777 26.896C96.9964 26.9827 96.6151 27.052 96.2337 27.104C95.8524 27.1733 95.5144 27.2253 95.2197 27.26H94.3357C94.1624 26.8613 94.0584 26.4627 94.0237 26.064C93.9891 25.6653 93.9631 25.18 93.9457 24.608H93.8157C93.7291 24.9547 93.5817 25.2927 93.3737 25.622C93.1657 25.934 92.8971 26.22 92.5677 26.48C92.2557 26.7227 91.8831 26.922 91.4497 27.078C91.0164 27.234 90.5311 27.312 89.9937 27.312C89.4217 27.312 88.8931 27.2253 88.4077 27.052C87.9224 26.8787 87.4977 26.636 87.1337 26.324C86.7697 26.012 86.4837 25.6393 86.2757 25.206C86.0677 24.7553 85.9637 24.2527 85.9637 23.698C85.9637 22.918 86.1111 22.2767 86.4057 21.774C86.7004 21.2713 87.1597 20.864 87.7837 20.552C88.4251 20.2227 89.2397 19.98 90.2277 19.824C91.2331 19.668 92.4464 19.5553 93.8677 19.486C94.0064 17.9953 93.9457 16.9033 93.6857 16.21C93.4257 15.5167 92.8624 15.17 91.9957 15.17C91.4584 15.17 90.9644 15.2567 90.5137 15.43L89.2917 18.55H88.1477C88.0091 18.342 87.8704 18.108 87.7317 17.848C87.6104 17.5707 87.4891 17.2847 87.3677 16.99C87.2637 16.678 87.1684 16.366 87.0817 16.054C87.0124 15.742 86.9604 15.4387 86.9257 15.144C87.5844 14.6933 88.4337 14.338 89.4737 14.078C90.5137 13.818 91.6144 13.688 92.7757 13.688C93.7637 13.688 94.5697 13.8007 95.1937 14.026C95.8177 14.234 96.3031 14.5287 96.6497 14.91C97.0137 15.274 97.2651 15.7073 97.4037 16.21C97.5424 16.7127 97.6117 17.25 97.6117 17.822C97.6117 18.862 97.5857 19.8067 97.5337 20.656C97.4991 21.488 97.4817 22.346 97.4817 23.23ZM91.6317 25.232C91.9957 25.232 92.3077 25.1627 92.5677 25.024C92.8277 24.8853 93.0444 24.7207 93.2177 24.53C93.4084 24.3393 93.5471 24.1313 93.6337 23.906C93.7377 23.6807 93.8157 23.4813 93.8677 23.308V20.708C93.0531 20.7253 92.3857 20.7773 91.8657 20.864C91.3457 20.9507 90.9384 21.098 90.6437 21.306C90.3491 21.4967 90.1411 21.748 90.0197 22.06C89.9157 22.3547 89.8637 22.7187 89.8637 23.152C89.8637 23.8107 90.0197 24.322 90.3317 24.686C90.6437 25.05 91.0771 25.232 91.6317 25.232ZM100.722 15.638C100.462 15.5687 100.22 15.482 99.9944 15.378C99.7864 15.274 99.5697 15.1527 99.3444 15.014V14H106.182V14.988C105.818 15.2307 105.324 15.4473 104.7 15.638L107.326 22.164L107.768 23.828H107.82L108.236 22.138L110.264 15.638C109.744 15.534 109.268 15.326 108.834 15.014V14H113.852V15.014C113.488 15.2567 112.994 15.4647 112.37 15.638L108.132 27C107.716 28.1093 107.3 29.0107 106.884 29.704C106.468 30.4147 106.052 30.978 105.636 31.394C105.22 31.81 104.804 32.096 104.388 32.252C103.972 32.4253 103.556 32.538 103.14 32.59C102.967 32.434 102.811 32.2347 102.672 31.992C102.534 31.7667 102.412 31.5153 102.308 31.238C102.204 30.978 102.118 30.7093 102.048 30.432C101.979 30.1547 101.936 29.8947 101.918 29.652L102.256 29.028H105.428C105.584 28.7853 105.714 28.5253 105.818 28.248C105.94 27.9707 106.078 27.5547 106.234 27L100.722 15.638ZM120.687 14.624C121.345 14.208 122.039 13.9133 122.767 13.74V11.634C122.871 11.53 123.044 11.4347 123.287 11.348C123.547 11.244 123.815 11.1573 124.093 11.088C124.387 11.0013 124.673 10.9233 124.951 10.854C125.228 10.7847 125.453 10.7327 125.627 10.698H126.511V14H129.943V15.638H126.511V22.372C126.511 23.4467 126.641 24.192 126.901 24.608C127.178 25.024 127.629 25.232 128.253 25.232C128.565 25.232 128.911 25.2147 129.293 25.18C129.691 25.128 130.055 25.0413 130.385 24.92L130.567 25.778C130.411 25.934 130.177 26.0987 129.865 26.272C129.57 26.4453 129.223 26.61 128.825 26.766C128.443 26.922 128.019 27.052 127.551 27.156C127.1 27.26 126.623 27.312 126.121 27.312C124.994 27.312 124.153 27.0173 123.599 26.428C123.044 25.8387 122.767 24.8853 122.767 23.568V15.638H120.687V14.624ZM131.669 20.5C131.669 19.4427 131.825 18.498 132.137 17.666C132.467 16.8167 132.926 16.0973 133.515 15.508C134.122 14.9187 134.85 14.468 135.699 14.156C136.549 13.844 137.511 13.688 138.585 13.688C139.799 13.688 140.839 13.8613 141.705 14.208C142.589 14.5373 143.309 15.0053 143.863 15.612C144.435 16.2013 144.851 16.9207 145.111 17.77C145.371 18.602 145.501 19.512 145.501 20.5C145.501 21.5573 145.345 22.5107 145.033 23.36C144.721 24.192 144.262 24.9027 143.655 25.492C143.066 26.0813 142.338 26.532 141.471 26.844C140.622 27.156 139.66 27.312 138.585 27.312C137.407 27.312 136.384 27.1473 135.517 26.818C134.651 26.4713 133.931 26.0033 133.359 25.414C132.787 24.8073 132.363 24.088 132.085 23.256C131.808 22.4067 131.669 21.488 131.669 20.5ZM135.699 20.5C135.699 21.28 135.743 21.9993 135.829 22.658C135.933 23.2993 136.107 23.8453 136.349 24.296C136.592 24.7467 136.921 25.102 137.337 25.362C137.753 25.6047 138.291 25.726 138.949 25.726C139.331 25.726 139.677 25.6393 139.989 25.466C140.301 25.2753 140.57 24.9807 140.795 24.582C141.021 24.166 141.185 23.6287 141.289 22.97C141.411 22.294 141.471 21.4707 141.471 20.5C141.471 19.7027 141.419 18.9833 141.315 18.342C141.229 17.7007 141.064 17.1547 140.821 16.704C140.596 16.2533 140.284 15.9067 139.885 15.664C139.487 15.404 138.984 15.274 138.377 15.274C137.927 15.274 137.537 15.3693 137.207 15.56C136.878 15.7333 136.601 16.028 136.375 16.444C136.15 16.8427 135.977 17.38 135.855 18.056C135.751 18.7147 135.699 19.5293 135.699 20.5ZM21.8294 55.5C21.8294 54.4427 21.9854 53.498 22.2974 52.666C22.6268 51.8167 23.0861 51.0973 23.6754 50.508C24.2821 49.9187 25.0101 49.468 25.8594 49.156C26.7088 48.844 27.6708 48.688 28.7454 48.688C29.9588 48.688 30.9988 48.8613 31.8654 49.208C32.7494 49.5373 33.4688 50.0053 34.0234 50.612C34.5954 51.2013 35.0114 51.9207 35.2714 52.77C35.5314 53.602 35.6614 54.512 35.6614 55.5C35.6614 56.5573 35.5054 57.5107 35.1934 58.36C34.8814 59.192 34.4221 59.9027 33.8154 60.492C33.2261 61.0813 32.4981 61.532 31.6314 61.844C30.7821 62.156 29.8201 62.312 28.7454 62.312C27.5668 62.312 26.5441 62.1473 25.6774 61.818C24.8108 61.4713 24.0914 61.0033 23.5194 60.414C22.9474 59.8073 22.5228 59.088 22.2454 58.256C21.9681 57.4067 21.8294 56.488 21.8294 55.5ZM25.8594 55.5C25.8594 56.28 25.9028 56.9993 25.9894 57.658C26.0934 58.2993 26.2668 58.8453 26.5094 59.296C26.7521 59.7467 27.0814 60.102 27.4974 60.362C27.9134 60.6047 28.4508 60.726 29.1094 60.726C29.4908 60.726 29.8374 60.6393 30.1494 60.466C30.4614 60.2753 30.7301 59.9807 30.9554 59.582C31.1808 59.166 31.3454 58.6287 31.4494 57.97C31.5708 57.294 31.6314 56.4707 31.6314 55.5C31.6314 54.7027 31.5794 53.9833 31.4754 53.342C31.3888 52.7007 31.2241 52.1547 30.9814 51.704C30.7561 51.2533 30.4441 50.9067 30.0454 50.664C29.6468 50.404 29.1441 50.274 28.5374 50.274C28.0868 50.274 27.6968 50.3693 27.3674 50.56C27.0381 50.7333 26.7608 51.028 26.5354 51.444C26.3101 51.8427 26.1368 52.38 26.0154 53.056C25.9114 53.7147 25.8594 54.5293 25.8594 55.5ZM52.8929 62H46.0029V60.986C46.2283 60.8647 46.4449 60.7607 46.6529 60.674C46.8783 60.57 47.1383 60.466 47.4329 60.362V54.252C47.4329 53.16 47.2769 52.3107 46.9649 51.704C46.6529 51.08 46.0983 50.768 45.3009 50.768C44.6423 50.768 44.0703 50.9847 43.5849 51.418C43.1169 51.834 42.7616 52.406 42.5189 53.134V60.362C42.7963 60.4313 43.0389 60.518 43.2469 60.622C43.4723 60.7087 43.7063 60.83 43.9489 60.986V62H37.0589V60.986C37.4923 60.7607 38.0643 60.5527 38.7749 60.362V50.846L37.0589 50.638V49.624C37.2843 49.52 37.5789 49.4247 37.9429 49.338C38.3069 49.234 38.6969 49.1387 39.1129 49.052C39.5463 48.9653 39.9796 48.896 40.4129 48.844C40.8636 48.7747 41.2709 48.7227 41.6349 48.688H42.5189V51.366H42.5449C42.9089 50.638 43.4549 50.014 44.1829 49.494C44.9109 48.9567 45.7949 48.688 46.8349 48.688C47.5109 48.688 48.1176 48.7747 48.6549 48.948C49.1923 49.104 49.6429 49.39 50.0069 49.806C50.3883 50.222 50.6743 50.7853 50.8649 51.496C51.0729 52.1893 51.1769 53.0733 51.1769 54.148V60.362C51.8703 60.4833 52.4423 60.6913 52.8929 60.986V62ZM65.8294 59.816C65.6907 60.1107 65.4654 60.414 65.1534 60.726C64.8587 61.0207 64.486 61.2893 64.0354 61.532C63.602 61.7573 63.0907 61.9393 62.5014 62.078C61.9294 62.234 61.3054 62.312 60.6294 62.312C59.5547 62.312 58.6014 62.156 57.7694 61.844C56.9374 61.5147 56.244 61.0553 55.6894 60.466C55.1347 59.8593 54.71 59.14 54.4154 58.308C54.138 57.476 53.9994 56.54 53.9994 55.5C53.9994 53.2813 54.58 51.5913 55.7414 50.43C56.9027 49.2687 58.5147 48.688 60.5774 48.688C61.4614 48.688 62.2847 48.8093 63.0474 49.052C63.8274 49.2947 64.4687 49.6933 64.9714 50.248C65.4914 50.8027 65.8467 51.5307 66.0374 52.432C66.2454 53.3333 66.2367 54.434 66.0114 55.734H58.0294C58.0467 57.1033 58.3934 58.1953 59.0694 59.01C59.7627 59.8247 60.7767 60.232 62.1114 60.232C62.6834 60.232 63.2727 60.1453 63.8794 59.972C64.5034 59.7987 64.9887 59.5733 65.3354 59.296L65.8294 59.816ZM60.4734 50.17C60.1267 50.17 59.8147 50.2307 59.5374 50.352C59.2774 50.4733 59.0434 50.6987 58.8354 51.028C58.6447 51.34 58.4887 51.7733 58.3674 52.328C58.246 52.8653 58.1594 53.55 58.1074 54.382H62.2934C62.4147 53.03 62.3367 51.99 62.0594 51.262C61.782 50.534 61.2534 50.17 60.4734 50.17ZM74.972 55.5C74.972 54.4427 75.128 53.498 75.44 52.666C75.7693 51.8167 76.2287 51.0973 76.818 50.508C77.4247 49.9187 78.1527 49.468 79.002 49.156C79.8513 48.844 80.8133 48.688 81.888 48.688C83.1013 48.688 84.1413 48.8613 85.008 49.208C85.892 49.5373 86.6113 50.0053 87.166 50.612C87.738 51.2013 88.154 51.9207 88.414 52.77C88.674 53.602 88.804 54.512 88.804 55.5C88.804 56.5573 88.648 57.5107 88.336 58.36C88.024 59.192 87.5647 59.9027 86.958 60.492C86.3687 61.0813 85.6407 61.532 84.774 61.844C83.9247 62.156 82.9627 62.312 81.888 62.312C80.7093 62.312 79.6867 62.1473 78.82 61.818C77.9533 61.4713 77.234 61.0033 76.662 60.414C76.09 59.8073 75.6653 59.088 75.388 58.256C75.1107 57.4067 74.972 56.488 74.972 55.5ZM79.002 55.5C79.002 56.28 79.0453 56.9993 79.132 57.658C79.236 58.2993 79.4093 58.8453 79.652 59.296C79.8947 59.7467 80.224 60.102 80.64 60.362C81.056 60.6047 81.5933 60.726 82.252 60.726C82.6333 60.726 82.98 60.6393 83.292 60.466C83.604 60.2753 83.8727 59.9807 84.098 59.582C84.3233 59.166 84.488 58.6287 84.592 57.97C84.7133 57.294 84.774 56.4707 84.774 55.5C84.774 54.7027 84.722 53.9833 84.618 53.342C84.5313 52.7007 84.3667 52.1547 84.124 51.704C83.8987 51.2533 83.5867 50.9067 83.188 50.664C82.7893 50.404 82.2867 50.274 81.68 50.274C81.2293 50.274 80.8393 50.3693 80.51 50.56C80.1807 50.7333 79.9033 51.028 79.678 51.444C79.4527 51.8427 79.2793 52.38 79.158 53.056C79.054 53.7147 79.002 54.5293 79.002 55.5ZM89.6592 49.624C90.3178 49.208 91.0112 48.9133 91.7392 48.74V46.634C91.8432 46.53 92.0165 46.4347 92.2592 46.348C92.5192 46.244 92.7878 46.1573 93.0652 46.088C93.3598 46.0013 93.6458 45.9233 93.9232 45.854C94.2005 45.7847 94.4258 45.7327 94.5992 45.698H95.4832V49H98.9152V50.638H95.4832V57.372C95.4832 58.4467 95.6132 59.192 95.8732 59.608C96.1505 60.024 96.6012 60.232 97.2252 60.232C97.5372 60.232 97.8838 60.2147 98.2652 60.18C98.6638 60.128 99.0278 60.0413 99.3572 59.92L99.5392 60.778C99.3832 60.934 99.1492 61.0987 98.8372 61.272C98.5425 61.4453 98.1958 61.61 97.7972 61.766C97.4158 61.922 96.9912 62.052 96.5232 62.156C96.0725 62.26 95.5958 62.312 95.0932 62.312C93.9665 62.312 93.1258 62.0173 92.5712 61.428C92.0165 60.8387 91.7392 59.8853 91.7392 58.568V50.638H89.6592V49.624ZM116.164 62H109.274V60.986C109.482 60.8647 109.699 60.752 109.924 60.648C110.149 60.544 110.409 60.4487 110.704 60.362V55.11C110.704 53.6193 110.557 52.5273 110.262 51.834C109.985 51.1233 109.43 50.768 108.598 50.768C107.905 50.768 107.315 51.0107 106.83 51.496C106.345 51.964 105.998 52.51 105.79 53.134V60.362C106.067 60.4313 106.31 60.5093 106.518 60.596C106.743 60.6827 106.977 60.8127 107.22 60.986V62H100.33V60.986C100.867 60.7087 101.439 60.5007 102.046 60.362V44.606L100.07 44.398V43.384C100.33 43.28 100.659 43.176 101.058 43.072C101.474 42.968 101.907 42.8813 102.358 42.812C102.809 42.7253 103.259 42.656 103.71 42.604C104.161 42.5347 104.559 42.4827 104.906 42.448H105.79V51.626H105.816C105.989 51.2273 106.223 50.8547 106.518 50.508C106.813 50.144 107.142 49.832 107.506 49.572C107.887 49.2947 108.295 49.078 108.728 48.922C109.161 48.766 109.621 48.688 110.106 48.688C110.799 48.688 111.415 48.7747 111.952 48.948C112.507 49.104 112.966 49.39 113.33 49.806C113.694 50.222 113.971 50.7853 114.162 51.496C114.353 52.1893 114.448 53.0733 114.448 54.148V60.362C114.743 60.4313 115.037 60.5093 115.332 60.596C115.627 60.6827 115.904 60.8127 116.164 60.986V62ZM129.103 59.816C128.964 60.1107 128.739 60.414 128.427 60.726C128.132 61.0207 127.759 61.2893 127.309 61.532C126.875 61.7573 126.364 61.9393 125.775 62.078C125.203 62.234 124.579 62.312 123.903 62.312C122.828 62.312 121.875 62.156 121.043 61.844C120.211 61.5147 119.517 61.0553 118.963 60.466C118.408 59.8593 117.983 59.14 117.689 58.308C117.411 57.476 117.273 56.54 117.273 55.5C117.273 53.2813 117.853 51.5913 119.015 50.43C120.176 49.2687 121.788 48.688 123.851 48.688C124.735 48.688 125.558 48.8093 126.321 49.052C127.101 49.2947 127.742 49.6933 128.245 50.248C128.765 50.8027 129.12 51.5307 129.311 52.432C129.519 53.3333 129.51 54.434 129.285 55.734H121.303C121.32 57.1033 121.667 58.1953 122.343 59.01C123.036 59.8247 124.05 60.232 125.385 60.232C125.957 60.232 126.546 60.1453 127.153 59.972C127.777 59.7987 128.262 59.5733 128.609 59.296L129.103 59.816ZM123.747 50.17C123.4 50.17 123.088 50.2307 122.811 50.352C122.551 50.4733 122.317 50.6987 122.109 51.028C121.918 51.34 121.762 51.7733 121.641 52.328C121.519 52.8653 121.433 53.55 121.381 54.382H125.567C125.688 53.03 125.61 51.99 125.333 51.262C125.055 50.534 124.527 50.17 123.747 50.17ZM137.972 51.99C137.764 52.094 137.521 52.2673 137.244 52.51C136.966 52.7527 136.715 53.1513 136.49 53.706V60.362C136.836 60.3967 137.183 60.466 137.53 60.57C137.876 60.6567 138.223 60.7953 138.57 60.986V62H131.03V60.986C131.342 60.8127 131.636 60.6827 131.914 60.596C132.191 60.5093 132.468 60.4313 132.746 60.362V50.846L131.03 50.638V49.624C131.307 49.5027 131.645 49.39 132.044 49.286C132.46 49.182 132.884 49.0953 133.318 49.026C133.751 48.9393 134.167 48.87 134.566 48.818C134.982 48.766 135.328 48.7227 135.606 48.688H136.49V52.146H136.594C136.732 51.7647 136.932 51.366 137.192 50.95C137.469 50.534 137.79 50.1527 138.154 49.806C138.518 49.4593 138.916 49.182 139.35 48.974C139.783 48.766 140.234 48.6707 140.702 48.688C140.892 48.9307 141.057 49.2773 141.196 49.728C141.334 50.1613 141.447 50.5773 141.534 50.976V51.99H137.972ZM141.89 65.406C142.236 65.302 142.548 65.146 142.826 64.938C143.103 64.73 143.337 64.496 143.528 64.236C143.736 63.976 143.892 63.6987 143.996 63.404C144.1 63.1093 144.143 62.8233 144.126 62.546C143.883 62.234 143.588 61.9827 143.242 61.792C142.912 61.6013 142.557 61.4453 142.176 61.324C142.089 60.96 142.072 60.596 142.124 60.232C142.193 59.868 142.314 59.53 142.488 59.218C142.661 58.906 142.86 58.646 143.086 58.438C143.328 58.2127 143.58 58.074 143.84 58.022C144.204 58.0393 144.559 58.126 144.906 58.282C145.252 58.4207 145.564 58.6287 145.842 58.906C146.119 59.166 146.336 59.504 146.492 59.92C146.665 60.336 146.752 60.8213 146.752 61.376C146.752 61.9133 146.639 62.4593 146.414 63.014C146.206 63.5687 145.911 64.08 145.53 64.548C145.166 65.0333 144.724 65.4493 144.204 65.796C143.684 66.16 143.112 66.4113 142.488 66.55L141.89 65.406Z" fill="#531A10"/>
<path d="M29.2083 301.5C29.2083 300.443 29.3643 299.498 29.6763 298.666C30.0057 297.817 30.465 297.097 31.0543 296.508C31.661 295.919 32.389 295.468 33.2383 295.156C34.0877 294.844 35.0497 294.688 36.1243 294.688C37.3377 294.688 38.3777 294.861 39.2443 295.208C40.1283 295.537 40.8477 296.005 41.4023 296.612C41.9743 297.201 42.3903 297.921 42.6503 298.77C42.9103 299.602 43.0403 300.512 43.0403 301.5C43.0403 302.557 42.8843 303.511 42.5723 304.36C42.2603 305.192 41.801 305.903 41.1943 306.492C40.605 307.081 39.877 307.532 39.0103 307.844C38.161 308.156 37.199 308.312 36.1243 308.312C34.9457 308.312 33.923 308.147 33.0563 307.818C32.1897 307.471 31.4703 307.003 30.8983 306.414C30.3263 305.807 29.9017 305.088 29.6243 304.256C29.347 303.407 29.2083 302.488 29.2083 301.5ZM33.2383 301.5C33.2383 302.28 33.2817 302.999 33.3683 303.658C33.4723 304.299 33.6457 304.845 33.8883 305.296C34.131 305.747 34.4603 306.102 34.8763 306.362C35.2923 306.605 35.8297 306.726 36.4883 306.726C36.8697 306.726 37.2163 306.639 37.5283 306.466C37.8403 306.275 38.109 305.981 38.3343 305.582C38.5597 305.166 38.7243 304.629 38.8283 303.97C38.9497 303.294 39.0103 302.471 39.0103 301.5C39.0103 300.703 38.9583 299.983 38.8543 299.342C38.7677 298.701 38.603 298.155 38.3603 297.704C38.135 297.253 37.823 296.907 37.4243 296.664C37.0257 296.404 36.523 296.274 35.9163 296.274C35.4657 296.274 35.0757 296.369 34.7463 296.56C34.417 296.733 34.1397 297.028 33.9143 297.444C33.689 297.843 33.5157 298.38 33.3943 299.056C33.2903 299.715 33.2383 300.529 33.2383 301.5ZM51.3798 297.99C51.1718 298.094 50.9292 298.267 50.6518 298.51C50.3745 298.753 50.1232 299.151 49.8978 299.706V306.362C50.2445 306.397 50.5912 306.466 50.9378 306.57C51.2845 306.657 51.6312 306.795 51.9778 306.986V308H44.4378V306.986C44.7498 306.813 45.0445 306.683 45.3218 306.596C45.5992 306.509 45.8765 306.431 46.1538 306.362V296.846L44.4378 296.638V295.624C44.7152 295.503 45.0532 295.39 45.4518 295.286C45.8678 295.182 46.2925 295.095 46.7258 295.026C47.1592 294.939 47.5752 294.87 47.9738 294.818C48.3898 294.766 48.7365 294.723 49.0138 294.688H49.8978V298.146H50.0018C50.1405 297.765 50.3398 297.366 50.5998 296.95C50.8772 296.534 51.1978 296.153 51.5618 295.806C51.9258 295.459 52.3245 295.182 52.7578 294.974C53.1912 294.766 53.6418 294.671 54.1098 294.688C54.3005 294.931 54.4652 295.277 54.6038 295.728C54.7425 296.161 54.8552 296.577 54.9418 296.976V297.99H51.3798ZM64.7091 305.426C64.6224 305.807 64.4664 306.171 64.2411 306.518C64.0158 306.865 63.7471 307.177 63.4351 307.454C63.1231 307.714 62.7678 307.922 62.3691 308.078C61.9704 308.234 61.5458 308.312 61.0951 308.312C59.3791 308.312 58.0704 307.775 57.1691 306.7C56.2851 305.608 55.8431 303.944 55.8431 301.708C55.8431 300.564 55.9991 299.567 56.3111 298.718C56.6231 297.851 57.0564 297.123 57.6111 296.534C58.1831 295.945 58.8678 295.503 59.6651 295.208C60.4624 294.913 61.3464 294.766 62.3171 294.766C62.6291 294.766 62.8891 294.775 63.0971 294.792C63.3224 294.809 63.5218 294.835 63.6951 294.87C63.8858 294.887 64.0591 294.931 64.2151 295C64.3884 295.052 64.5791 295.113 64.7871 295.182V290.606L62.8111 290.398V289.384C63.0538 289.28 63.3831 289.185 63.7991 289.098C64.2324 289.011 64.6831 288.933 65.1511 288.864C65.6191 288.777 66.0784 288.699 66.5291 288.63C66.9798 288.561 67.3524 288.5 67.6471 288.448H68.5311V306.154L70.2471 306.362V307.272C70.0044 307.393 69.6924 307.506 69.3111 307.61C68.9298 307.714 68.5311 307.809 68.1151 307.896C67.6991 307.983 67.2918 308.052 66.8931 308.104C66.5118 308.173 66.1911 308.225 65.9311 308.26H65.0471L64.8131 305.426H64.7091ZM62.3431 306.232C62.9498 306.232 63.4611 306.041 63.8771 305.66C64.2931 305.279 64.5964 304.629 64.7871 303.71V296.716C64.5618 296.577 64.2758 296.465 63.9291 296.378C63.5998 296.291 63.1838 296.248 62.6811 296.248C61.6758 296.248 60.9564 296.707 60.5231 297.626C60.0898 298.527 59.8731 299.845 59.8731 301.578C59.8731 302.982 60.0638 304.109 60.4451 304.958C60.8264 305.807 61.4591 306.232 62.3431 306.232ZM83.2376 305.816C83.0989 306.111 82.8736 306.414 82.5616 306.726C82.2669 307.021 81.8942 307.289 81.4436 307.532C81.0102 307.757 80.4989 307.939 79.9096 308.078C79.3376 308.234 78.7136 308.312 78.0376 308.312C76.9629 308.312 76.0096 308.156 75.1776 307.844C74.3456 307.515 73.6522 307.055 73.0976 306.466C72.5429 305.859 72.1182 305.14 71.8236 304.308C71.5462 303.476 71.4076 302.54 71.4076 301.5C71.4076 299.281 71.9882 297.591 73.1496 296.43C74.3109 295.269 75.9229 294.688 77.9856 294.688C78.8696 294.688 79.6929 294.809 80.4556 295.052C81.2356 295.295 81.8769 295.693 82.3796 296.248C82.8996 296.803 83.2549 297.531 83.4456 298.432C83.6536 299.333 83.6449 300.434 83.4196 301.734H75.4376C75.4549 303.103 75.8016 304.195 76.4776 305.01C77.1709 305.825 78.1849 306.232 79.5196 306.232C80.0916 306.232 80.6809 306.145 81.2876 305.972C81.9116 305.799 82.3969 305.573 82.7436 305.296L83.2376 305.816ZM77.8816 296.17C77.5349 296.17 77.2229 296.231 76.9456 296.352C76.6856 296.473 76.4516 296.699 76.2436 297.028C76.0529 297.34 75.8969 297.773 75.7756 298.328C75.6542 298.865 75.5676 299.55 75.5156 300.382H79.7016C79.8229 299.03 79.7449 297.99 79.4676 297.262C79.1902 296.534 78.6616 296.17 77.8816 296.17ZM92.1064 297.99C91.8984 298.094 91.6557 298.267 91.3784 298.51C91.1011 298.753 90.8497 299.151 90.6244 299.706V306.362C90.9711 306.397 91.3177 306.466 91.6644 306.57C92.0111 306.657 92.3577 306.795 92.7044 306.986V308H85.1644V306.986C85.4764 306.813 85.7711 306.683 86.0484 306.596C86.3257 306.509 86.6031 306.431 86.8804 306.362V296.846L85.1644 296.638V295.624C85.4417 295.503 85.7797 295.39 86.1784 295.286C86.5944 295.182 87.0191 295.095 87.4524 295.026C87.8857 294.939 88.3017 294.87 88.7004 294.818C89.1164 294.766 89.4631 294.723 89.7404 294.688H90.6244V298.146H90.7284C90.8671 297.765 91.0664 297.366 91.3264 296.95C91.6037 296.534 91.9244 296.153 92.2884 295.806C92.6524 295.459 93.0511 295.182 93.4844 294.974C93.9177 294.766 94.3684 294.671 94.8364 294.688C95.0271 294.931 95.1917 295.277 95.3304 295.728C95.4691 296.161 95.5817 296.577 95.6684 296.976V297.99H92.1064ZM114.991 304.23C114.991 304.611 114.991 304.941 114.991 305.218C115.009 305.495 115.035 305.79 115.069 306.102L116.863 306.362V307.272C116.655 307.376 116.369 307.48 116.005 307.584C115.659 307.688 115.286 307.792 114.887 307.896C114.506 307.983 114.125 308.052 113.743 308.104C113.362 308.173 113.024 308.225 112.729 308.26H111.845C111.672 307.861 111.568 307.463 111.533 307.064C111.499 306.665 111.473 306.18 111.455 305.608H111.325C111.239 305.955 111.091 306.293 110.883 306.622C110.675 306.934 110.407 307.22 110.077 307.48C109.765 307.723 109.393 307.922 108.959 308.078C108.526 308.234 108.041 308.312 107.503 308.312C106.931 308.312 106.403 308.225 105.917 308.052C105.432 307.879 105.007 307.636 104.643 307.324C104.279 307.012 103.993 306.639 103.785 306.206C103.577 305.755 103.473 305.253 103.473 304.698C103.473 303.918 103.621 303.277 103.915 302.774C104.21 302.271 104.669 301.864 105.293 301.552C105.935 301.223 106.749 300.98 107.737 300.824C108.743 300.668 109.956 300.555 111.377 300.486C111.516 298.995 111.455 297.903 111.195 297.21C110.935 296.517 110.372 296.17 109.505 296.17C108.968 296.17 108.474 296.257 108.023 296.43L106.801 299.55H105.657C105.519 299.342 105.38 299.108 105.241 298.848C105.12 298.571 104.999 298.285 104.877 297.99C104.773 297.678 104.678 297.366 104.591 297.054C104.522 296.742 104.47 296.439 104.435 296.144C105.094 295.693 105.943 295.338 106.983 295.078C108.023 294.818 109.124 294.688 110.285 294.688C111.273 294.688 112.079 294.801 112.703 295.026C113.327 295.234 113.813 295.529 114.159 295.91C114.523 296.274 114.775 296.707 114.913 297.21C115.052 297.713 115.121 298.25 115.121 298.822C115.121 299.862 115.095 300.807 115.043 301.656C115.009 302.488 114.991 303.346 114.991 304.23ZM109.141 306.232C109.505 306.232 109.817 306.163 110.077 306.024C110.337 305.885 110.554 305.721 110.727 305.53C110.918 305.339 111.057 305.131 111.143 304.906C111.247 304.681 111.325 304.481 111.377 304.308V301.708C110.563 301.725 109.895 301.777 109.375 301.864C108.855 301.951 108.448 302.098 108.153 302.306C107.859 302.497 107.651 302.748 107.529 303.06C107.425 303.355 107.373 303.719 107.373 304.152C107.373 304.811 107.529 305.322 107.841 305.686C108.153 306.05 108.587 306.232 109.141 306.232ZM124.732 305.166C124.732 304.715 124.567 304.325 124.238 303.996C123.926 303.667 123.527 303.363 123.042 303.086C122.574 302.809 122.054 302.531 121.482 302.254C120.927 301.977 120.407 301.656 119.922 301.292C119.454 300.911 119.055 300.469 118.726 299.966C118.414 299.463 118.258 298.848 118.258 298.12C118.258 297.6 118.379 297.132 118.622 296.716C118.865 296.283 119.194 295.919 119.61 295.624C120.026 295.329 120.52 295.104 121.092 294.948C121.681 294.775 122.314 294.688 122.99 294.688C123.926 294.688 124.793 294.766 125.59 294.922C126.405 295.061 127.115 295.26 127.722 295.52C127.653 296.075 127.514 296.673 127.306 297.314C127.098 297.938 126.899 298.51 126.708 299.03H125.824L124.732 296.378C124.524 296.291 124.307 296.239 124.082 296.222C123.857 296.187 123.605 296.17 123.328 296.17C122.808 296.17 122.409 296.326 122.132 296.638C121.872 296.933 121.742 297.271 121.742 297.652C121.742 298.085 121.898 298.467 122.21 298.796C122.539 299.108 122.938 299.403 123.406 299.68C123.891 299.957 124.411 300.235 124.966 300.512C125.538 300.789 126.058 301.11 126.526 301.474C127.011 301.821 127.41 302.237 127.722 302.722C128.051 303.207 128.216 303.788 128.216 304.464C128.216 305.66 127.731 306.605 126.76 307.298C125.789 307.974 124.489 308.312 122.86 308.312C122.028 308.312 121.17 308.225 120.286 308.052C119.402 307.879 118.639 307.636 117.998 307.324C118.033 306.7 118.18 306.067 118.44 305.426C118.7 304.785 118.977 304.213 119.272 303.71H120.156L121.43 306.544C121.621 306.683 121.829 306.769 122.054 306.804C122.297 306.821 122.522 306.83 122.73 306.83C123.233 306.83 123.692 306.683 124.108 306.388C124.524 306.093 124.732 305.686 124.732 305.166ZM136.488 305.166C136.488 304.715 136.323 304.325 135.994 303.996C135.682 303.667 135.283 303.363 134.798 303.086C134.33 302.809 133.81 302.531 133.238 302.254C132.683 301.977 132.163 301.656 131.678 301.292C131.21 300.911 130.811 300.469 130.482 299.966C130.17 299.463 130.014 298.848 130.014 298.12C130.014 297.6 130.135 297.132 130.378 296.716C130.621 296.283 130.95 295.919 131.366 295.624C131.782 295.329 132.276 295.104 132.848 294.948C133.437 294.775 134.07 294.688 134.746 294.688C135.682 294.688 136.549 294.766 137.346 294.922C138.161 295.061 138.871 295.26 139.478 295.52C139.409 296.075 139.27 296.673 139.062 297.314C138.854 297.938 138.655 298.51 138.464 299.03H137.58L136.488 296.378C136.28 296.291 136.063 296.239 135.838 296.222C135.613 296.187 135.361 296.17 135.084 296.17C134.564 296.17 134.165 296.326 133.888 296.638C133.628 296.933 133.498 297.271 133.498 297.652C133.498 298.085 133.654 298.467 133.966 298.796C134.295 299.108 134.694 299.403 135.162 299.68C135.647 299.957 136.167 300.235 136.722 300.512C137.294 300.789 137.814 301.11 138.282 301.474C138.767 301.821 139.166 302.237 139.478 302.722C139.807 303.207 139.972 303.788 139.972 304.464C139.972 305.66 139.487 306.605 138.516 307.298C137.545 307.974 136.245 308.312 134.616 308.312C133.784 308.312 132.926 308.225 132.042 308.052C131.158 307.879 130.395 307.636 129.754 307.324C129.789 306.7 129.936 306.067 130.196 305.426C130.456 304.785 130.733 304.213 131.028 303.71H131.912L133.186 306.544C133.377 306.683 133.585 306.769 133.81 306.804C134.053 306.821 134.278 306.83 134.486 306.83C134.989 306.83 135.448 306.683 135.864 306.388C136.28 306.093 136.488 305.686 136.488 305.166ZM153.392 305.816C153.253 306.111 153.028 306.414 152.716 306.726C152.421 307.021 152.049 307.289 151.598 307.532C151.165 307.757 150.653 307.939 150.064 308.078C149.492 308.234 148.868 308.312 148.192 308.312C147.117 308.312 146.164 308.156 145.332 307.844C144.5 307.515 143.807 307.055 143.252 306.466C142.697 305.859 142.273 305.14 141.978 304.308C141.701 303.476 141.562 302.54 141.562 301.5C141.562 299.281 142.143 297.591 143.304 296.43C144.465 295.269 146.077 294.688 148.14 294.688C149.024 294.688 149.847 294.809 150.61 295.052C151.39 295.295 152.031 295.693 152.534 296.248C153.054 296.803 153.409 297.531 153.6 298.432C153.808 299.333 153.799 300.434 153.574 301.734H145.592C145.609 303.103 145.956 304.195 146.632 305.01C147.325 305.825 148.339 306.232 149.674 306.232C150.246 306.232 150.835 306.145 151.442 305.972C152.066 305.799 152.551 305.573 152.898 305.296L153.392 305.816ZM148.036 296.17C147.689 296.17 147.377 296.231 147.1 296.352C146.84 296.473 146.606 296.699 146.398 297.028C146.207 297.34 146.051 297.773 145.93 298.328C145.809 298.865 145.722 299.55 145.67 300.382H149.856C149.977 299.03 149.899 297.99 149.622 297.262C149.345 296.534 148.816 296.17 148.036 296.17ZM162.261 297.99C162.053 298.094 161.81 298.267 161.533 298.51C161.255 298.753 161.004 299.151 160.779 299.706V306.362C161.125 306.397 161.472 306.466 161.819 306.57C162.165 306.657 162.512 306.795 162.859 306.986V308H155.319V306.986C155.631 306.813 155.925 306.683 156.203 306.596C156.48 306.509 156.757 306.431 157.035 306.362V296.846L155.319 296.638V295.624C155.596 295.503 155.934 295.39 156.333 295.286C156.749 295.182 157.173 295.095 157.607 295.026C158.04 294.939 158.456 294.87 158.855 294.818C159.271 294.766 159.617 294.723 159.895 294.688H160.779V298.146H160.883C161.021 297.765 161.221 297.366 161.481 296.95C161.758 296.534 162.079 296.153 162.443 295.806C162.807 295.459 163.205 295.182 163.639 294.974C164.072 294.766 164.523 294.671 164.991 294.688C165.181 294.931 165.346 295.277 165.485 295.728C165.623 296.161 165.736 296.577 165.823 296.976V297.99H162.261ZM166.126 295.624C166.785 295.208 167.478 294.913 168.206 294.74V292.634C168.31 292.53 168.483 292.435 168.726 292.348C168.986 292.244 169.255 292.157 169.532 292.088C169.827 292.001 170.113 291.923 170.39 291.854C170.667 291.785 170.893 291.733 171.066 291.698H171.95V295H175.382V296.638H171.95V303.372C171.95 304.447 172.08 305.192 172.34 305.608C172.617 306.024 173.068 306.232 173.692 306.232C174.004 306.232 174.351 306.215 174.732 306.18C175.131 306.128 175.495 306.041 175.824 305.92L176.006 306.778C175.85 306.934 175.616 307.099 175.304 307.272C175.009 307.445 174.663 307.61 174.264 307.766C173.883 307.922 173.458 308.052 172.99 308.156C172.539 308.26 172.063 308.312 171.56 308.312C170.433 308.312 169.593 308.017 169.038 307.428C168.483 306.839 168.206 305.885 168.206 304.568V296.638H166.126V295.624ZM183.791 305.166C183.791 304.715 183.626 304.325 183.297 303.996C182.985 303.667 182.586 303.363 182.101 303.086C181.633 302.809 181.113 302.531 180.541 302.254C179.986 301.977 179.466 301.656 178.981 301.292C178.513 300.911 178.114 300.469 177.785 299.966C177.473 299.463 177.317 298.848 177.317 298.12C177.317 297.6 177.438 297.132 177.681 296.716C177.923 296.283 178.253 295.919 178.669 295.624C179.085 295.329 179.579 295.104 180.151 294.948C180.74 294.775 181.373 294.688 182.049 294.688C182.985 294.688 183.851 294.766 184.649 294.922C185.463 295.061 186.174 295.26 186.781 295.52C186.711 296.075 186.573 296.673 186.365 297.314C186.157 297.938 185.957 298.51 185.767 299.03H184.883L183.791 296.378C183.583 296.291 183.366 296.239 183.141 296.222C182.915 296.187 182.664 296.17 182.387 296.17C181.867 296.17 181.468 296.326 181.191 296.638C180.931 296.933 180.801 297.271 180.801 297.652C180.801 298.085 180.957 298.467 181.269 298.796C181.598 299.108 181.997 299.403 182.465 299.68C182.95 299.957 183.47 300.235 184.025 300.512C184.597 300.789 185.117 301.11 185.585 301.474C186.07 301.821 186.469 302.237 186.781 302.722C187.11 303.207 187.275 303.788 187.275 304.464C187.275 305.66 186.789 306.605 185.819 307.298C184.848 307.974 183.548 308.312 181.919 308.312C181.087 308.312 180.229 308.225 179.345 308.052C178.461 307.879 177.698 307.636 177.057 307.324C177.091 306.7 177.239 306.067 177.499 305.426C177.759 304.785 178.036 304.213 178.331 303.71H179.215L180.489 306.544C180.679 306.683 180.887 306.769 181.113 306.804C181.355 306.821 181.581 306.83 181.789 306.83C182.291 306.83 182.751 306.683 183.167 306.388C183.583 306.093 183.791 305.686 183.791 305.166ZM203.048 308H195.872V306.986C196.132 306.847 196.401 306.735 196.678 306.648C196.956 306.544 197.259 306.449 197.588 306.362V296.846L195.872 296.638V295.624C196.132 295.52 196.453 295.416 196.834 295.312C197.233 295.208 197.649 295.121 198.082 295.052C198.516 294.965 198.94 294.896 199.356 294.844C199.772 294.775 200.136 294.723 200.448 294.688H201.332V306.362C201.679 306.449 201.991 306.544 202.268 306.648C202.546 306.735 202.806 306.847 203.048 306.986V308ZM197.146 290.736C197.146 290.129 197.354 289.653 197.77 289.306C198.186 288.959 198.724 288.786 199.382 288.786C200.041 288.786 200.578 288.959 200.994 289.306C201.41 289.653 201.618 290.129 201.618 290.736C201.618 291.325 201.41 291.793 200.994 292.14C200.578 292.487 200.041 292.66 199.382 292.66C198.724 292.66 198.186 292.487 197.77 292.14C197.354 291.793 197.146 291.325 197.146 290.736ZM203.907 295.624C204.566 295.208 205.259 294.913 205.987 294.74V292.634C206.091 292.53 206.265 292.435 206.507 292.348C206.767 292.244 207.036 292.157 207.313 292.088C207.608 292.001 207.894 291.923 208.171 291.854C208.449 291.785 208.674 291.733 208.847 291.698H209.731V295H213.163V296.638H209.731V303.372C209.731 304.447 209.861 305.192 210.121 305.608C210.399 306.024 210.849 306.232 211.473 306.232C211.785 306.232 212.132 306.215 212.513 306.18C212.912 306.128 213.276 306.041 213.605 305.92L213.787 306.778C213.631 306.934 213.397 307.099 213.085 307.272C212.791 307.445 212.444 307.61 212.045 307.766C211.664 307.922 211.239 308.052 210.771 308.156C210.321 308.26 209.844 308.312 209.341 308.312C208.215 308.312 207.374 308.017 206.819 307.428C206.265 306.839 205.987 305.885 205.987 304.568V296.638H203.907V295.624ZM221.572 305.166C221.572 304.715 221.407 304.325 221.078 303.996C220.766 303.667 220.367 303.363 219.882 303.086C219.414 302.809 218.894 302.531 218.322 302.254C217.767 301.977 217.247 301.656 216.762 301.292C216.294 300.911 215.895 300.469 215.566 299.966C215.254 299.463 215.098 298.848 215.098 298.12C215.098 297.6 215.219 297.132 215.462 296.716C215.705 296.283 216.034 295.919 216.45 295.624C216.866 295.329 217.36 295.104 217.932 294.948C218.521 294.775 219.154 294.688 219.83 294.688C220.766 294.688 221.633 294.766 222.43 294.922C223.245 295.061 223.955 295.26 224.562 295.52C224.493 296.075 224.354 296.673 224.146 297.314C223.938 297.938 223.739 298.51 223.548 299.03H222.664L221.572 296.378C221.364 296.291 221.147 296.239 220.922 296.222C220.697 296.187 220.445 296.17 220.168 296.17C219.648 296.17 219.249 296.326 218.972 296.638C218.712 296.933 218.582 297.271 218.582 297.652C218.582 298.085 218.738 298.467 219.05 298.796C219.379 299.108 219.778 299.403 220.246 299.68C220.731 299.957 221.251 300.235 221.806 300.512C222.378 300.789 222.898 301.11 223.366 301.474C223.851 301.821 224.25 302.237 224.562 302.722C224.891 303.207 225.056 303.788 225.056 304.464C225.056 305.66 224.571 306.605 223.6 307.298C222.629 307.974 221.329 308.312 219.7 308.312C218.868 308.312 218.01 308.225 217.126 308.052C216.242 307.879 215.479 307.636 214.838 307.324C214.873 306.7 215.02 306.067 215.28 305.426C215.54 304.785 215.817 304.213 216.112 303.71H216.996L218.27 306.544C218.461 306.683 218.669 306.769 218.894 306.804C219.137 306.821 219.362 306.83 219.57 306.83C220.073 306.83 220.532 306.683 220.948 306.388C221.364 306.093 221.572 305.686 221.572 305.166ZM238.476 305.816C238.337 306.111 238.112 306.414 237.8 306.726C237.505 307.021 237.133 307.289 236.682 307.532C236.249 307.757 235.737 307.939 235.148 308.078C234.576 308.234 233.952 308.312 233.276 308.312C232.201 308.312 231.248 308.156 230.416 307.844C229.584 307.515 228.891 307.055 228.336 306.466C227.781 305.859 227.357 305.14 227.062 304.308C226.785 303.476 226.646 302.54 226.646 301.5C226.646 299.281 227.227 297.591 228.388 296.43C229.549 295.269 231.161 294.688 233.224 294.688C234.108 294.688 234.931 294.809 235.694 295.052C236.474 295.295 237.115 295.693 237.618 296.248C238.138 296.803 238.493 297.531 238.684 298.432C238.892 299.333 238.883 300.434 238.658 301.734H230.676C230.693 303.103 231.04 304.195 231.716 305.01C232.409 305.825 233.423 306.232 234.758 306.232C235.33 306.232 235.919 306.145 236.526 305.972C237.15 305.799 237.635 305.573 237.982 305.296L238.476 305.816ZM233.12 296.17C232.773 296.17 232.461 296.231 232.184 296.352C231.924 296.473 231.69 296.699 231.482 297.028C231.291 297.34 231.135 297.773 231.014 298.328C230.893 298.865 230.806 299.55 230.754 300.382H234.94C235.061 299.03 234.983 297.99 234.706 297.262C234.429 296.534 233.9 296.17 233.12 296.17ZM247.787 308H240.611V306.986C241.183 306.709 241.755 306.501 242.327 306.362V290.606L240.351 290.398V289.384C240.576 289.28 240.888 289.176 241.287 289.072C241.685 288.968 242.11 288.881 242.561 288.812C243.029 288.725 243.488 288.656 243.939 288.604C244.407 288.535 244.823 288.483 245.187 288.448H246.071V306.362C246.643 306.501 247.215 306.709 247.787 306.986V308ZM256.784 288.448C257.494 288.448 258.127 288.517 258.682 288.656C259.254 288.777 259.687 288.899 259.982 289.02C259.93 289.592 259.817 290.181 259.644 290.788C259.47 291.395 259.314 291.897 259.176 292.296H258.292L257.148 289.826C256.697 289.826 256.316 289.878 256.004 289.982C255.709 290.069 255.466 290.251 255.276 290.528C255.102 290.805 254.972 291.204 254.886 291.724C254.799 292.227 254.756 292.885 254.756 293.7V295H257.512V296.638H254.756V306.362C255.657 306.466 256.489 306.674 257.252 306.986V308H249.295V306.986C249.833 306.674 250.405 306.466 251.012 306.362V296.638H249.036V295.624C249.642 295.243 250.301 294.957 251.012 294.766V293.856C251.012 292.781 251.159 291.897 251.454 291.204C251.766 290.493 252.182 289.939 252.702 289.54C253.222 289.124 253.828 288.838 254.522 288.682C255.232 288.526 255.986 288.448 256.784 288.448ZM259.115 306.154C259.115 305.53 259.314 305.027 259.713 304.646C260.111 304.265 260.64 304.074 261.299 304.074C261.957 304.074 262.495 304.265 262.911 304.646C263.327 305.027 263.535 305.53 263.535 306.154C263.535 306.778 263.327 307.281 262.911 307.662C262.495 308.026 261.957 308.208 261.299 308.208C260.64 308.208 260.111 308.026 259.713 307.662C259.314 307.281 259.115 306.778 259.115 306.154ZM265.614 296.04C266.29 295.867 266.819 295.563 267.2 295.13C267.581 294.697 267.755 294.246 267.72 293.778C267.495 293.501 267.209 293.284 266.862 293.128C266.533 292.955 266.177 292.807 265.796 292.686C265.709 292.374 265.692 292.062 265.744 291.75C265.813 291.421 265.935 291.126 266.108 290.866C266.281 290.589 266.481 290.355 266.706 290.164C266.949 289.973 267.191 289.861 267.434 289.826C267.781 289.843 268.127 289.921 268.474 290.06C268.821 290.181 269.124 290.363 269.384 290.606C269.661 290.831 269.878 291.126 270.034 291.49C270.207 291.837 270.294 292.253 270.294 292.738C270.294 293.206 270.19 293.683 269.982 294.168C269.774 294.653 269.479 295.104 269.098 295.52C268.734 295.936 268.292 296.3 267.772 296.612C267.252 296.907 266.689 297.115 266.082 297.236L265.614 296.04Z" fill="#531A10"/>
<path d="M3.208 230.624C3.86667 230.208 4.56 229.913 5.288 229.74V227.634C5.392 227.53 5.56533 227.435 5.808 227.348C6.068 227.244 6.33667 227.157 6.614 227.088C6.90867 227.001 7.19467 226.923 7.472 226.854C7.74933 226.785 7.97467 226.733 8.148 226.698H9.032V230H12.464V231.638H9.032V238.372C9.032 239.447 9.162 240.192 9.422 240.608C9.69933 241.024 10.15 241.232 10.774 241.232C11.086 241.232 11.4327 241.215 11.814 241.18C12.2127 241.128 12.5767 241.041 12.906 240.92L13.088 241.778C12.932 241.934 12.698 242.099 12.386 242.272C12.0913 242.445 11.7447 242.61 11.346 242.766C10.9647 242.922 10.54 243.052 10.072 243.156C9.62133 243.26 9.14467 243.312 8.642 243.312C7.51533 243.312 6.67467 243.017 6.12 242.428C5.56533 241.839 5.288 240.885 5.288 239.568V231.638H3.208V230.624ZM29.7128 243H22.8228V241.986C23.0308 241.865 23.2474 241.752 23.4728 241.648C23.6981 241.544 23.9581 241.449 24.2528 241.362V236.11C24.2528 234.619 24.1054 233.527 23.8108 232.834C23.5334 232.123 22.9788 231.768 22.1468 231.768C21.4534 231.768 20.8641 232.011 20.3788 232.496C19.8934 232.964 19.5468 233.51 19.3388 234.134V241.362C19.6161 241.431 19.8588 241.509 20.0668 241.596C20.2921 241.683 20.5261 241.813 20.7688 241.986V243H13.8788V241.986C14.4161 241.709 14.9881 241.501 15.5948 241.362V225.606L13.6188 225.398V224.384C13.8788 224.28 14.2081 224.176 14.6068 224.072C15.0228 223.968 15.4561 223.881 15.9068 223.812C16.3574 223.725 16.8081 223.656 17.2588 223.604C17.7094 223.535 18.1081 223.483 18.4548 223.448H19.3388V232.626H19.3648C19.5381 232.227 19.7721 231.855 20.0668 231.508C20.3614 231.144 20.6908 230.832 21.0548 230.572C21.4361 230.295 21.8434 230.078 22.2768 229.922C22.7101 229.766 23.1694 229.688 23.6548 229.688C24.3481 229.688 24.9634 229.775 25.5008 229.948C26.0554 230.104 26.5148 230.39 26.8788 230.806C27.2428 231.222 27.5201 231.785 27.7108 232.496C27.9014 233.189 27.9968 234.073 27.9968 235.148V241.362C28.2914 241.431 28.5861 241.509 28.8808 241.596C29.1754 241.683 29.4528 241.813 29.7128 241.986V243ZM42.6516 240.816C42.513 241.111 42.2876 241.414 41.9756 241.726C41.681 242.021 41.3083 242.289 40.8576 242.532C40.4243 242.757 39.913 242.939 39.3236 243.078C38.7516 243.234 38.1276 243.312 37.4516 243.312C36.377 243.312 35.4236 243.156 34.5916 242.844C33.7596 242.515 33.0663 242.055 32.5116 241.466C31.957 240.859 31.5323 240.14 31.2376 239.308C30.9603 238.476 30.8216 237.54 30.8216 236.5C30.8216 234.281 31.4023 232.591 32.5636 231.43C33.725 230.269 35.337 229.688 37.3996 229.688C38.2836 229.688 39.107 229.809 39.8696 230.052C40.6496 230.295 41.291 230.693 41.7936 231.248C42.3136 231.803 42.669 232.531 42.8596 233.432C43.0676 234.333 43.059 235.434 42.8336 236.734H34.8516C34.869 238.103 35.2156 239.195 35.8916 240.01C36.585 240.825 37.599 241.232 38.9336 241.232C39.5056 241.232 40.095 241.145 40.7016 240.972C41.3256 240.799 41.811 240.573 42.1576 240.296L42.6516 240.816ZM37.2956 231.17C36.949 231.17 36.637 231.231 36.3596 231.352C36.0996 231.473 35.8656 231.699 35.6576 232.028C35.467 232.34 35.311 232.773 35.1896 233.328C35.0683 233.865 34.9816 234.55 34.9296 235.382H39.1156C39.237 234.03 39.159 232.99 38.8816 232.262C38.6043 231.534 38.0756 231.17 37.2956 231.17ZM60.4125 243H53.5225V241.986C53.7478 241.865 53.9645 241.761 54.1725 241.674C54.3978 241.57 54.6578 241.466 54.9525 241.362V235.252C54.9525 234.16 54.7965 233.311 54.4845 232.704C54.1725 232.08 53.6178 231.768 52.8205 231.768C52.1618 231.768 51.5898 231.985 51.1045 232.418C50.6365 232.834 50.2811 233.406 50.0385 234.134V241.362C50.3158 241.431 50.5585 241.518 50.7665 241.622C50.9918 241.709 51.2258 241.83 51.4685 241.986V243H44.5785V241.986C45.0118 241.761 45.5838 241.553 46.2945 241.362V231.846L44.5785 231.638V230.624C44.8038 230.52 45.0985 230.425 45.4625 230.338C45.8265 230.234 46.2165 230.139 46.6325 230.052C47.0658 229.965 47.4991 229.896 47.9325 229.844C48.3831 229.775 48.7905 229.723 49.1545 229.688H50.0385V232.366H50.0645C50.4285 231.638 50.9745 231.014 51.7025 230.494C52.4305 229.957 53.3145 229.688 54.3545 229.688C55.0305 229.688 55.6371 229.775 56.1745 229.948C56.7118 230.104 57.1625 230.39 57.5265 230.806C57.9078 231.222 58.1938 231.785 58.3845 232.496C58.5925 233.189 58.6965 234.073 58.6965 235.148V241.362C59.3898 241.483 59.9618 241.691 60.4125 241.986V243ZM69.4627 225.606L67.4867 225.398V224.384C67.7467 224.28 68.0847 224.176 68.5007 224.072C68.934 223.968 69.376 223.881 69.8267 223.812C70.2947 223.725 70.7454 223.656 71.1787 223.604C71.6294 223.535 72.0107 223.483 72.3227 223.448H73.2067V232.444H73.2587C73.6054 231.577 74.134 230.901 74.8447 230.416C75.5554 229.931 76.396 229.688 77.3667 229.688C78.892 229.688 80.0794 230.217 80.9287 231.274C81.778 232.331 82.2027 233.935 82.2027 236.084C82.2027 238.459 81.57 240.244 80.3047 241.44C79.0567 242.636 77.2194 243.234 74.7927 243.234C74.3594 243.234 73.874 243.199 73.3367 243.13C72.7994 243.078 72.2794 243.009 71.7767 242.922C71.274 242.835 70.806 242.731 70.3727 242.61C69.9567 242.489 69.6534 242.367 69.4627 242.246V225.606ZM75.6767 231.768C75.018 231.768 74.4894 232.011 74.0907 232.496C73.692 232.964 73.3974 233.562 73.2067 234.29V241.18C73.4494 241.353 73.744 241.492 74.0907 241.596C74.4547 241.7 74.862 241.752 75.3127 241.752C76.3007 241.752 77.02 241.31 77.4707 240.426C77.9387 239.542 78.1727 238.155 78.1727 236.266C78.1727 234.897 77.982 233.805 77.6007 232.99C77.2367 232.175 76.5954 231.768 75.6767 231.768ZM95.6419 240.816C95.5032 241.111 95.2779 241.414 94.9659 241.726C94.6712 242.021 94.2985 242.289 93.8479 242.532C93.4145 242.757 92.9032 242.939 92.3139 243.078C91.7419 243.234 91.1179 243.312 90.4419 243.312C89.3672 243.312 88.4139 243.156 87.5819 242.844C86.7499 242.515 86.0565 242.055 85.5019 241.466C84.9472 240.859 84.5225 240.14 84.2279 239.308C83.9505 238.476 83.8119 237.54 83.8119 236.5C83.8119 234.281 84.3925 232.591 85.5539 231.43C86.7152 230.269 88.3272 229.688 90.3899 229.688C91.2739 229.688 92.0972 229.809 92.8599 230.052C93.6399 230.295 94.2812 230.693 94.7839 231.248C95.3039 231.803 95.6592 232.531 95.8499 233.432C96.0579 234.333 96.0492 235.434 95.8239 236.734H87.8419C87.8592 238.103 88.2059 239.195 88.8819 240.01C89.5752 240.825 90.5892 241.232 91.9239 241.232C92.4959 241.232 93.0852 241.145 93.6919 240.972C94.3159 240.799 94.8012 240.573 95.1479 240.296L95.6419 240.816ZM90.2859 231.17C89.9392 231.17 89.6272 231.231 89.3499 231.352C89.0899 231.473 88.8559 231.699 88.6479 232.028C88.4572 232.34 88.3012 232.773 88.1799 233.328C88.0585 233.865 87.9719 234.55 87.9199 235.382H92.1059C92.2272 234.03 92.1492 232.99 91.8719 232.262C91.5945 231.534 91.0659 231.17 90.2859 231.17ZM103.835 229.688C104.961 229.688 105.897 229.809 106.643 230.052C107.388 230.277 107.951 230.563 108.333 230.91C109.147 230.026 110.083 229.411 111.141 229.064C111.262 229.151 111.383 229.281 111.505 229.454C111.626 229.61 111.73 229.783 111.817 229.974C111.903 230.165 111.973 230.355 112.025 230.546C112.077 230.737 112.103 230.893 112.103 231.014L111.765 231.638H109.035C109.225 231.881 109.399 232.201 109.555 232.6C109.728 232.981 109.815 233.441 109.815 233.978C109.815 234.55 109.693 235.087 109.451 235.59C109.208 236.093 108.835 236.543 108.333 236.942C107.847 237.323 107.223 237.627 106.461 237.852C105.715 238.077 104.84 238.19 103.835 238.19C103.54 238.19 103.271 238.19 103.029 238.19C102.803 238.173 102.604 238.147 102.431 238.112C102.361 238.216 102.283 238.346 102.197 238.502C102.127 238.641 102.093 238.779 102.093 238.918C102.093 239.213 102.301 239.447 102.717 239.62C103.133 239.793 103.661 239.949 104.303 240.088C104.944 240.227 105.629 240.383 106.357 240.556C107.102 240.729 107.795 240.963 108.437 241.258C109.078 241.535 109.615 241.908 110.049 242.376C110.482 242.827 110.707 243.416 110.725 244.144C110.742 244.837 110.569 245.453 110.205 245.99C109.841 246.527 109.338 246.978 108.697 247.342C108.073 247.723 107.327 248.009 106.461 248.2C105.611 248.408 104.701 248.512 103.731 248.512C102.587 248.512 101.607 248.417 100.793 248.226C99.9954 248.053 99.3454 247.81 98.8427 247.498C98.34 247.186 97.9674 246.831 97.7247 246.432C97.4994 246.033 97.3867 245.617 97.3867 245.184C97.3867 244.699 97.482 244.283 97.6727 243.936C97.8634 243.589 98.132 243.286 98.4787 243.026C98.8254 242.766 99.224 242.549 99.6747 242.376C100.143 242.203 100.654 242.047 101.209 241.908C100.949 241.839 100.697 241.752 100.455 241.648C100.212 241.544 99.9954 241.423 99.8047 241.284C99.614 241.128 99.458 240.955 99.3367 240.764C99.2154 240.556 99.1547 240.322 99.1547 240.062C99.1547 239.837 99.224 239.62 99.3627 239.412C99.5014 239.187 99.6834 238.987 99.9087 238.814C100.134 238.623 100.377 238.459 100.637 238.32C100.897 238.164 101.157 238.034 101.417 237.93C100.325 237.687 99.458 237.219 98.8167 236.526C98.1754 235.815 97.8547 234.914 97.8547 233.822C97.8547 232.522 98.392 231.508 99.4667 230.78C100.541 230.052 101.997 229.688 103.835 229.688ZM107.111 244.976C107.111 244.508 106.963 244.127 106.669 243.832C106.391 243.555 106.027 243.321 105.577 243.13C105.126 242.957 104.615 242.809 104.043 242.688C103.488 242.549 102.933 242.393 102.379 242.22C101.928 242.567 101.607 242.913 101.417 243.26C101.226 243.607 101.131 244.023 101.131 244.508C101.131 245.305 101.399 245.921 101.937 246.354C102.491 246.805 103.263 247.03 104.251 247.03C105.221 247.03 105.941 246.822 106.409 246.406C106.877 246.007 107.111 245.531 107.111 244.976ZM101.599 233.952C101.599 234.853 101.746 235.538 102.041 236.006C102.353 236.474 102.951 236.708 103.835 236.708C104.684 236.708 105.265 236.474 105.577 236.006C105.906 235.521 106.071 234.836 106.071 233.952C106.071 233.016 105.906 232.323 105.577 231.872C105.247 231.404 104.667 231.17 103.835 231.17C102.968 231.17 102.379 231.395 102.067 231.846C101.755 232.297 101.599 232.999 101.599 233.952ZM119.628 243H112.452V241.986C112.712 241.847 112.981 241.735 113.258 241.648C113.536 241.544 113.839 241.449 114.168 241.362V231.846L112.452 231.638V230.624C112.712 230.52 113.033 230.416 113.414 230.312C113.813 230.208 114.229 230.121 114.662 230.052C115.096 229.965 115.52 229.896 115.936 229.844C116.352 229.775 116.716 229.723 117.028 229.688H117.912V241.362C118.259 241.449 118.571 241.544 118.848 241.648C119.126 241.735 119.386 241.847 119.628 241.986V243ZM113.726 225.736C113.726 225.129 113.934 224.653 114.35 224.306C114.766 223.959 115.304 223.786 115.962 223.786C116.621 223.786 117.158 223.959 117.574 224.306C117.99 224.653 118.198 225.129 118.198 225.736C118.198 226.325 117.99 226.793 117.574 227.14C117.158 227.487 116.621 227.66 115.962 227.66C115.304 227.66 114.766 227.487 114.35 227.14C113.934 226.793 113.726 226.325 113.726 225.736ZM136.711 243H129.821V241.986C130.047 241.865 130.263 241.761 130.471 241.674C130.697 241.57 130.957 241.466 131.251 241.362V235.252C131.251 234.16 131.095 233.311 130.783 232.704C130.471 232.08 129.917 231.768 129.119 231.768C128.461 231.768 127.889 231.985 127.403 232.418C126.935 232.834 126.58 233.406 126.337 234.134V241.362C126.615 241.431 126.857 241.518 127.065 241.622C127.291 241.709 127.525 241.83 127.767 241.986V243H120.877V241.986C121.311 241.761 121.883 241.553 122.593 241.362V231.846L120.877 231.638V230.624C121.103 230.52 121.397 230.425 121.761 230.338C122.125 230.234 122.515 230.139 122.931 230.052C123.365 229.965 123.798 229.896 124.231 229.844C124.682 229.775 125.089 229.723 125.453 229.688H126.337V232.366H126.363C126.727 231.638 127.273 231.014 128.001 230.494C128.729 229.957 129.613 229.688 130.653 229.688C131.329 229.688 131.936 229.775 132.473 229.948C133.011 230.104 133.461 230.39 133.825 230.806C134.207 231.222 134.493 231.785 134.683 232.496C134.891 233.189 134.995 234.073 134.995 235.148V241.362C135.689 241.483 136.261 241.691 136.711 241.986V243ZM156.24 239.23C156.24 239.611 156.24 239.941 156.24 240.218C156.257 240.495 156.283 240.79 156.318 241.102L158.112 241.362V242.272C157.904 242.376 157.618 242.48 157.254 242.584C156.907 242.688 156.534 242.792 156.136 242.896C155.754 242.983 155.373 243.052 154.992 243.104C154.61 243.173 154.272 243.225 153.978 243.26H153.094C152.92 242.861 152.816 242.463 152.782 242.064C152.747 241.665 152.721 241.18 152.704 240.608H152.574C152.487 240.955 152.34 241.293 152.132 241.622C151.924 241.934 151.655 242.22 151.326 242.48C151.014 242.723 150.641 242.922 150.208 243.078C149.774 243.234 149.289 243.312 148.752 243.312C148.18 243.312 147.651 243.225 147.166 243.052C146.68 242.879 146.256 242.636 145.892 242.324C145.528 242.012 145.242 241.639 145.034 241.206C144.826 240.755 144.722 240.253 144.722 239.698C144.722 238.918 144.869 238.277 145.164 237.774C145.458 237.271 145.918 236.864 146.542 236.552C147.183 236.223 147.998 235.98 148.986 235.824C149.991 235.668 151.204 235.555 152.626 235.486C152.764 233.995 152.704 232.903 152.444 232.21C152.184 231.517 151.62 231.17 150.754 231.17C150.216 231.17 149.722 231.257 149.272 231.43L148.05 234.55H146.906C146.767 234.342 146.628 234.108 146.49 233.848C146.368 233.571 146.247 233.285 146.126 232.99C146.022 232.678 145.926 232.366 145.84 232.054C145.77 231.742 145.718 231.439 145.684 231.144C146.342 230.693 147.192 230.338 148.232 230.078C149.272 229.818 150.372 229.688 151.534 229.688C152.522 229.688 153.328 229.801 153.952 230.026C154.576 230.234 155.061 230.529 155.408 230.91C155.772 231.274 156.023 231.707 156.162 232.21C156.3 232.713 156.37 233.25 156.37 233.822C156.37 234.862 156.344 235.807 156.292 236.656C156.257 237.488 156.24 238.346 156.24 239.23ZM150.39 241.232C150.754 241.232 151.066 241.163 151.326 241.024C151.586 240.885 151.802 240.721 151.976 240.53C152.166 240.339 152.305 240.131 152.392 239.906C152.496 239.681 152.574 239.481 152.626 239.308V236.708C151.811 236.725 151.144 236.777 150.624 236.864C150.104 236.951 149.696 237.098 149.402 237.306C149.107 237.497 148.899 237.748 148.778 238.06C148.674 238.355 148.622 238.719 148.622 239.152C148.622 239.811 148.778 240.322 149.09 240.686C149.402 241.05 149.835 241.232 150.39 241.232ZM165.356 229.688C166.483 229.688 167.419 229.809 168.164 230.052C168.91 230.277 169.473 230.563 169.854 230.91C170.669 230.026 171.605 229.411 172.662 229.064C172.784 229.151 172.905 229.281 173.026 229.454C173.148 229.61 173.252 229.783 173.338 229.974C173.425 230.165 173.494 230.355 173.546 230.546C173.598 230.737 173.624 230.893 173.624 231.014L173.286 231.638H170.556C170.747 231.881 170.92 232.201 171.076 232.6C171.25 232.981 171.336 233.441 171.336 233.978C171.336 234.55 171.215 235.087 170.972 235.59C170.73 236.093 170.357 236.543 169.854 236.942C169.369 237.323 168.745 237.627 167.982 237.852C167.237 238.077 166.362 238.19 165.356 238.19C165.062 238.19 164.793 238.19 164.55 238.19C164.325 238.173 164.126 238.147 163.952 238.112C163.883 238.216 163.805 238.346 163.718 238.502C163.649 238.641 163.614 238.779 163.614 238.918C163.614 239.213 163.822 239.447 164.238 239.62C164.654 239.793 165.183 239.949 165.824 240.088C166.466 240.227 167.15 240.383 167.878 240.556C168.624 240.729 169.317 240.963 169.958 241.258C170.6 241.535 171.137 241.908 171.57 242.376C172.004 242.827 172.229 243.416 172.246 244.144C172.264 244.837 172.09 245.453 171.726 245.99C171.362 246.527 170.86 246.978 170.218 247.342C169.594 247.723 168.849 248.009 167.982 248.2C167.133 248.408 166.223 248.512 165.252 248.512C164.108 248.512 163.129 248.417 162.314 248.226C161.517 248.053 160.867 247.81 160.364 247.498C159.862 247.186 159.489 246.831 159.246 246.432C159.021 246.033 158.908 245.617 158.908 245.184C158.908 244.699 159.004 244.283 159.194 243.936C159.385 243.589 159.654 243.286 160 243.026C160.347 242.766 160.746 242.549 161.196 242.376C161.664 242.203 162.176 242.047 162.73 241.908C162.47 241.839 162.219 241.752 161.976 241.648C161.734 241.544 161.517 241.423 161.326 241.284C161.136 241.128 160.98 240.955 160.858 240.764C160.737 240.556 160.676 240.322 160.676 240.062C160.676 239.837 160.746 239.62 160.884 239.412C161.023 239.187 161.205 238.987 161.43 238.814C161.656 238.623 161.898 238.459 162.158 238.32C162.418 238.164 162.678 238.034 162.938 237.93C161.846 237.687 160.98 237.219 160.338 236.526C159.697 235.815 159.376 234.914 159.376 233.822C159.376 232.522 159.914 231.508 160.988 230.78C162.063 230.052 163.519 229.688 165.356 229.688ZM168.632 244.976C168.632 244.508 168.485 244.127 168.19 243.832C167.913 243.555 167.549 243.321 167.098 243.13C166.648 242.957 166.136 242.809 165.564 242.688C165.01 242.549 164.455 242.393 163.9 242.22C163.45 242.567 163.129 242.913 162.938 243.26C162.748 243.607 162.652 244.023 162.652 244.508C162.652 245.305 162.921 245.921 163.458 246.354C164.013 246.805 164.784 247.03 165.772 247.03C166.743 247.03 167.462 246.822 167.93 246.406C168.398 246.007 168.632 245.531 168.632 244.976ZM163.12 233.952C163.12 234.853 163.268 235.538 163.562 236.006C163.874 236.474 164.472 236.708 165.356 236.708C166.206 236.708 166.786 236.474 167.098 236.006C167.428 235.521 167.592 234.836 167.592 233.952C167.592 233.016 167.428 232.323 167.098 231.872C166.769 231.404 166.188 231.17 165.356 231.17C164.49 231.17 163.9 231.395 163.588 231.846C163.276 232.297 163.12 232.999 163.12 233.952ZM185.388 239.23C185.388 239.611 185.388 239.941 185.388 240.218C185.405 240.495 185.431 240.79 185.466 241.102L187.26 241.362V242.272C187.052 242.376 186.766 242.48 186.402 242.584C186.055 242.688 185.683 242.792 185.284 242.896C184.903 242.983 184.521 243.052 184.14 243.104C183.759 243.173 183.421 243.225 183.126 243.26H182.242C182.069 242.861 181.965 242.463 181.93 242.064C181.895 241.665 181.869 241.18 181.852 240.608H181.722C181.635 240.955 181.488 241.293 181.28 241.622C181.072 241.934 180.803 242.22 180.474 242.48C180.162 242.723 179.789 242.922 179.356 243.078C178.923 243.234 178.437 243.312 177.9 243.312C177.328 243.312 176.799 243.225 176.314 243.052C175.829 242.879 175.404 242.636 175.04 242.324C174.676 242.012 174.39 241.639 174.182 241.206C173.974 240.755 173.87 240.253 173.87 239.698C173.87 238.918 174.017 238.277 174.312 237.774C174.607 237.271 175.066 236.864 175.69 236.552C176.331 236.223 177.146 235.98 178.134 235.824C179.139 235.668 180.353 235.555 181.774 235.486C181.913 233.995 181.852 232.903 181.592 232.21C181.332 231.517 180.769 231.17 179.902 231.17C179.365 231.17 178.871 231.257 178.42 231.43L177.198 234.55H176.054C175.915 234.342 175.777 234.108 175.638 233.848C175.517 233.571 175.395 233.285 175.274 232.99C175.17 232.678 175.075 232.366 174.988 232.054C174.919 231.742 174.867 231.439 174.832 231.144C175.491 230.693 176.34 230.338 177.38 230.078C178.42 229.818 179.521 229.688 180.682 229.688C181.67 229.688 182.476 229.801 183.1 230.026C183.724 230.234 184.209 230.529 184.556 230.91C184.92 231.274 185.171 231.707 185.31 232.21C185.449 232.713 185.518 233.25 185.518 233.822C185.518 234.862 185.492 235.807 185.44 236.656C185.405 237.488 185.388 238.346 185.388 239.23ZM179.538 241.232C179.902 241.232 180.214 241.163 180.474 241.024C180.734 240.885 180.951 240.721 181.124 240.53C181.315 240.339 181.453 240.131 181.54 239.906C181.644 239.681 181.722 239.481 181.774 239.308V236.708C180.959 236.725 180.292 236.777 179.772 236.864C179.252 236.951 178.845 237.098 178.55 237.306C178.255 237.497 178.047 237.748 177.926 238.06C177.822 238.355 177.77 238.719 177.77 239.152C177.77 239.811 177.926 240.322 178.238 240.686C178.55 241.05 178.983 241.232 179.538 241.232ZM195.623 243H188.447V241.986C188.707 241.847 188.975 241.735 189.253 241.648C189.53 241.544 189.833 241.449 190.163 241.362V231.846L188.447 231.638V230.624C188.707 230.52 189.027 230.416 189.409 230.312C189.807 230.208 190.223 230.121 190.657 230.052C191.09 229.965 191.515 229.896 191.931 229.844C192.347 229.775 192.711 229.723 193.023 229.688H193.907V241.362C194.253 241.449 194.565 241.544 194.843 241.648C195.12 241.735 195.38 241.847 195.623 241.986V243ZM189.721 225.736C189.721 225.129 189.929 224.653 190.345 224.306C190.761 223.959 191.298 223.786 191.957 223.786C192.615 223.786 193.153 223.959 193.569 224.306C193.985 224.653 194.193 225.129 194.193 225.736C194.193 226.325 193.985 226.793 193.569 227.14C193.153 227.487 192.615 227.66 191.957 227.66C191.298 227.66 190.761 227.487 190.345 227.14C189.929 226.793 189.721 226.325 189.721 225.736ZM212.705 243H205.815V241.986C206.041 241.865 206.257 241.761 206.465 241.674C206.691 241.57 206.951 241.466 207.245 241.362V235.252C207.245 234.16 207.089 233.311 206.777 232.704C206.465 232.08 205.911 231.768 205.113 231.768C204.455 231.768 203.883 231.985 203.397 232.418C202.929 232.834 202.574 233.406 202.331 234.134V241.362C202.609 241.431 202.851 241.518 203.059 241.622C203.285 241.709 203.519 241.83 203.761 241.986V243H196.871V241.986C197.305 241.761 197.877 241.553 198.587 241.362V231.846L196.871 231.638V230.624C197.097 230.52 197.391 230.425 197.755 230.338C198.119 230.234 198.509 230.139 198.925 230.052C199.359 229.965 199.792 229.896 200.225 229.844C200.676 229.775 201.083 229.723 201.447 229.688H202.331V232.366H202.357C202.721 231.638 203.267 231.014 203.995 230.494C204.723 229.957 205.607 229.688 206.647 229.688C207.323 229.688 207.93 229.775 208.467 229.948C209.005 230.104 209.455 230.39 209.819 230.806C210.201 231.222 210.487 231.785 210.677 232.496C210.885 233.189 210.989 234.073 210.989 235.148V241.362C211.683 241.483 212.255 241.691 212.705 241.986V243ZM214.384 246.406C214.731 246.302 215.043 246.146 215.32 245.938C215.597 245.73 215.831 245.496 216.022 245.236C216.23 244.976 216.386 244.699 216.49 244.404C216.594 244.109 216.637 243.823 216.62 243.546C216.377 243.234 216.083 242.983 215.736 242.792C215.407 242.601 215.051 242.445 214.67 242.324C214.583 241.96 214.566 241.596 214.618 241.232C214.687 240.868 214.809 240.53 214.982 240.218C215.155 239.906 215.355 239.646 215.58 239.438C215.823 239.213 216.074 239.074 216.334 239.022C216.698 239.039 217.053 239.126 217.4 239.282C217.747 239.421 218.059 239.629 218.336 239.906C218.613 240.166 218.83 240.504 218.986 240.92C219.159 241.336 219.246 241.821 219.246 242.376C219.246 242.913 219.133 243.459 218.908 244.014C218.7 244.569 218.405 245.08 218.024 245.548C217.66 246.033 217.218 246.449 216.698 246.796C216.178 247.16 215.606 247.411 214.982 247.55L214.384 246.406Z" fill="#531A10"/>
<path d="M157.419 140.23C157.419 140.611 157.419 140.941 157.419 141.218C157.437 141.495 157.463 141.79 157.497 142.102L159.291 142.362V143.272C159.083 143.376 158.797 143.48 158.433 143.584C158.087 143.688 157.714 143.792 157.315 143.896C156.934 143.983 156.553 144.052 156.171 144.104C155.79 144.173 155.452 144.225 155.157 144.26H154.273C154.1 143.861 153.996 143.463 153.961 143.064C153.927 142.665 153.901 142.18 153.883 141.608H153.753C153.667 141.955 153.519 142.293 153.311 142.622C153.103 142.934 152.835 143.22 152.505 143.48C152.193 143.723 151.821 143.922 151.387 144.078C150.954 144.234 150.469 144.312 149.931 144.312C149.359 144.312 148.831 144.225 148.345 144.052C147.86 143.879 147.435 143.636 147.071 143.324C146.707 143.012 146.421 142.639 146.213 142.206C146.005 141.755 145.901 141.253 145.901 140.698C145.901 139.918 146.049 139.277 146.343 138.774C146.638 138.271 147.097 137.864 147.721 137.552C148.363 137.223 149.177 136.98 150.165 136.824C151.171 136.668 152.384 136.555 153.805 136.486C153.944 134.995 153.883 133.903 153.623 133.21C153.363 132.517 152.8 132.17 151.933 132.17C151.396 132.17 150.902 132.257 150.451 132.43L149.229 135.55H148.085C147.947 135.342 147.808 135.108 147.669 134.848C147.548 134.571 147.427 134.285 147.305 133.99C147.201 133.678 147.106 133.366 147.019 133.054C146.95 132.742 146.898 132.439 146.863 132.144C147.522 131.693 148.371 131.338 149.411 131.078C150.451 130.818 151.552 130.688 152.713 130.688C153.701 130.688 154.507 130.801 155.131 131.026C155.755 131.234 156.241 131.529 156.587 131.91C156.951 132.274 157.203 132.707 157.341 133.21C157.48 133.713 157.549 134.25 157.549 134.822C157.549 135.862 157.523 136.807 157.471 137.656C157.437 138.488 157.419 139.346 157.419 140.23ZM151.569 142.232C151.933 142.232 152.245 142.163 152.505 142.024C152.765 141.885 152.982 141.721 153.155 141.53C153.346 141.339 153.485 141.131 153.571 140.906C153.675 140.681 153.753 140.481 153.805 140.308V137.708C152.991 137.725 152.323 137.777 151.803 137.864C151.283 137.951 150.876 138.098 150.581 138.306C150.287 138.497 150.079 138.748 149.957 139.06C149.853 139.355 149.801 139.719 149.801 140.152C149.801 140.811 149.957 141.322 150.269 141.686C150.581 142.05 151.015 142.232 151.569 142.232ZM167.394 149.2H160.218V148.186C160.807 147.909 161.379 147.701 161.934 147.562V132.846L160.218 132.638V131.624C160.495 131.503 160.833 131.39 161.232 131.286C161.648 131.182 162.073 131.095 162.506 131.026C162.939 130.939 163.355 130.87 163.754 130.818C164.17 130.766 164.517 130.723 164.794 130.688H165.678V133.6H165.704C165.999 132.768 166.458 132.075 167.082 131.52C167.723 130.965 168.607 130.688 169.734 130.688C170.497 130.688 171.181 130.818 171.788 131.078C172.412 131.321 172.932 131.711 173.348 132.248C173.781 132.768 174.111 133.444 174.336 134.276C174.579 135.091 174.7 136.07 174.7 137.214C174.7 138.306 174.544 139.294 174.232 140.178C173.937 141.062 173.504 141.807 172.932 142.414C172.377 143.021 171.693 143.489 170.878 143.818C170.081 144.147 169.171 144.312 168.148 144.312C167.559 144.312 167.091 144.269 166.744 144.182C166.415 144.113 166.059 143.983 165.678 143.792V147.562C165.955 147.597 166.233 147.657 166.51 147.744C166.787 147.848 167.082 147.995 167.394 148.186V149.2ZM168.226 132.768C167.637 132.768 167.108 132.976 166.64 133.392C166.189 133.808 165.869 134.449 165.678 135.316V142.232C165.955 142.44 166.25 142.596 166.562 142.7C166.874 142.787 167.281 142.83 167.784 142.83C168.772 142.83 169.5 142.353 169.968 141.4C170.436 140.447 170.67 139.051 170.67 137.214C170.67 135.793 170.488 134.701 170.124 133.938C169.777 133.158 169.145 132.768 168.226 132.768ZM176.322 137.5C176.322 136.443 176.478 135.498 176.79 134.666C177.119 133.817 177.578 133.097 178.168 132.508C178.774 131.919 179.502 131.468 180.352 131.156C181.201 130.844 182.163 130.688 183.238 130.688C184.451 130.688 185.491 130.861 186.358 131.208C187.242 131.537 187.961 132.005 188.516 132.612C189.088 133.201 189.504 133.921 189.764 134.77C190.024 135.602 190.154 136.512 190.154 137.5C190.154 138.557 189.998 139.511 189.686 140.36C189.374 141.192 188.914 141.903 188.308 142.492C187.718 143.081 186.99 143.532 186.124 143.844C185.274 144.156 184.312 144.312 183.238 144.312C182.059 144.312 181.036 144.147 180.17 143.818C179.303 143.471 178.584 143.003 178.012 142.414C177.44 141.807 177.015 141.088 176.738 140.256C176.46 139.407 176.322 138.488 176.322 137.5ZM180.352 137.5C180.352 138.28 180.395 138.999 180.482 139.658C180.586 140.299 180.759 140.845 181.002 141.296C181.244 141.747 181.574 142.102 181.99 142.362C182.406 142.605 182.943 142.726 183.602 142.726C183.983 142.726 184.33 142.639 184.642 142.466C184.954 142.275 185.222 141.981 185.448 141.582C185.673 141.166 185.838 140.629 185.942 139.97C186.063 139.294 186.124 138.471 186.124 137.5C186.124 136.703 186.072 135.983 185.968 135.342C185.881 134.701 185.716 134.155 185.474 133.704C185.248 133.253 184.936 132.907 184.538 132.664C184.139 132.404 183.636 132.274 183.03 132.274C182.579 132.274 182.189 132.369 181.86 132.56C181.53 132.733 181.253 133.028 181.028 133.444C180.802 133.843 180.629 134.38 180.508 135.056C180.404 135.715 180.352 136.529 180.352 137.5ZM198.935 144H191.759V142.986C192.331 142.709 192.903 142.501 193.475 142.362V126.606L191.499 126.398V125.384C191.724 125.28 192.036 125.176 192.435 125.072C192.834 124.968 193.258 124.881 193.709 124.812C194.177 124.725 194.636 124.656 195.087 124.604C195.555 124.535 195.971 124.483 196.335 124.448H197.219V142.362C197.791 142.501 198.363 142.709 198.935 142.986V144ZM200.392 137.5C200.392 136.443 200.548 135.498 200.86 134.666C201.189 133.817 201.649 133.097 202.238 132.508C202.845 131.919 203.573 131.468 204.422 131.156C205.271 130.844 206.233 130.688 207.308 130.688C208.521 130.688 209.561 130.861 210.428 131.208C211.312 131.537 212.031 132.005 212.586 132.612C213.158 133.201 213.574 133.921 213.834 134.77C214.094 135.602 214.224 136.512 214.224 137.5C214.224 138.557 214.068 139.511 213.756 140.36C213.444 141.192 212.985 141.903 212.378 142.492C211.789 143.081 211.061 143.532 210.194 143.844C209.345 144.156 208.383 144.312 207.308 144.312C206.129 144.312 205.107 144.147 204.24 143.818C203.373 143.471 202.654 143.003 202.082 142.414C201.51 141.807 201.085 141.088 200.808 140.256C200.531 139.407 200.392 138.488 200.392 137.5ZM204.422 137.5C204.422 138.28 204.465 138.999 204.552 139.658C204.656 140.299 204.829 140.845 205.072 141.296C205.315 141.747 205.644 142.102 206.06 142.362C206.476 142.605 207.013 142.726 207.672 142.726C208.053 142.726 208.4 142.639 208.712 142.466C209.024 142.275 209.293 141.981 209.518 141.582C209.743 141.166 209.908 140.629 210.012 139.97C210.133 139.294 210.194 138.471 210.194 137.5C210.194 136.703 210.142 135.983 210.038 135.342C209.951 134.701 209.787 134.155 209.544 133.704C209.319 133.253 209.007 132.907 208.608 132.664C208.209 132.404 207.707 132.274 207.1 132.274C206.649 132.274 206.259 132.369 205.93 132.56C205.601 132.733 205.323 133.028 205.098 133.444C204.873 133.843 204.699 134.38 204.578 135.056C204.474 135.715 204.422 136.529 204.422 137.5ZM221.887 130.688C223.014 130.688 223.95 130.809 224.695 131.052C225.441 131.277 226.004 131.563 226.385 131.91C227.2 131.026 228.136 130.411 229.193 130.064C229.315 130.151 229.436 130.281 229.557 130.454C229.679 130.61 229.783 130.783 229.869 130.974C229.956 131.165 230.025 131.355 230.077 131.546C230.129 131.737 230.155 131.893 230.155 132.014L229.817 132.638H227.087C227.278 132.881 227.451 133.201 227.607 133.6C227.781 133.981 227.867 134.441 227.867 134.978C227.867 135.55 227.746 136.087 227.503 136.59C227.261 137.093 226.888 137.543 226.385 137.942C225.9 138.323 225.276 138.627 224.513 138.852C223.768 139.077 222.893 139.19 221.887 139.19C221.593 139.19 221.324 139.19 221.081 139.19C220.856 139.173 220.657 139.147 220.483 139.112C220.414 139.216 220.336 139.346 220.249 139.502C220.18 139.641 220.145 139.779 220.145 139.918C220.145 140.213 220.353 140.447 220.769 140.62C221.185 140.793 221.714 140.949 222.355 141.088C222.997 141.227 223.681 141.383 224.409 141.556C225.155 141.729 225.848 141.963 226.489 142.258C227.131 142.535 227.668 142.908 228.101 143.376C228.535 143.827 228.76 144.416 228.777 145.144C228.795 145.837 228.621 146.453 228.257 146.99C227.893 147.527 227.391 147.978 226.749 148.342C226.125 148.723 225.38 149.009 224.513 149.2C223.664 149.408 222.754 149.512 221.783 149.512C220.639 149.512 219.66 149.417 218.845 149.226C218.048 149.053 217.398 148.81 216.895 148.498C216.393 148.186 216.02 147.831 215.777 147.432C215.552 147.033 215.439 146.617 215.439 146.184C215.439 145.699 215.535 145.283 215.725 144.936C215.916 144.589 216.185 144.286 216.531 144.026C216.878 143.766 217.277 143.549 217.727 143.376C218.195 143.203 218.707 143.047 219.261 142.908C219.001 142.839 218.75 142.752 218.507 142.648C218.265 142.544 218.048 142.423 217.857 142.284C217.667 142.128 217.511 141.955 217.389 141.764C217.268 141.556 217.207 141.322 217.207 141.062C217.207 140.837 217.277 140.62 217.415 140.412C217.554 140.187 217.736 139.987 217.961 139.814C218.187 139.623 218.429 139.459 218.689 139.32C218.949 139.164 219.209 139.034 219.469 138.93C218.377 138.687 217.511 138.219 216.869 137.526C216.228 136.815 215.907 135.914 215.907 134.822C215.907 133.522 216.445 132.508 217.519 131.78C218.594 131.052 220.05 130.688 221.887 130.688ZM225.163 145.976C225.163 145.508 225.016 145.127 224.721 144.832C224.444 144.555 224.08 144.321 223.629 144.13C223.179 143.957 222.667 143.809 222.095 143.688C221.541 143.549 220.986 143.393 220.431 143.22C219.981 143.567 219.66 143.913 219.469 144.26C219.279 144.607 219.183 145.023 219.183 145.508C219.183 146.305 219.452 146.921 219.989 147.354C220.544 147.805 221.315 148.03 222.303 148.03C223.274 148.03 223.993 147.822 224.461 147.406C224.929 147.007 225.163 146.531 225.163 145.976ZM219.651 134.952C219.651 135.853 219.799 136.538 220.093 137.006C220.405 137.474 221.003 137.708 221.887 137.708C222.737 137.708 223.317 137.474 223.629 137.006C223.959 136.521 224.123 135.836 224.123 134.952C224.123 134.016 223.959 133.323 223.629 132.872C223.3 132.404 222.719 132.17 221.887 132.17C221.021 132.17 220.431 132.395 220.119 132.846C219.807 133.297 219.651 133.999 219.651 134.952ZM237.681 144H230.505V142.986C230.765 142.847 231.034 142.735 231.311 142.648C231.589 142.544 231.892 142.449 232.221 142.362V132.846L230.505 132.638V131.624C230.765 131.52 231.086 131.416 231.467 131.312C231.866 131.208 232.282 131.121 232.715 131.052C233.149 130.965 233.573 130.896 233.989 130.844C234.405 130.775 234.769 130.723 235.081 130.688H235.965V142.362C236.312 142.449 236.624 142.544 236.901 142.648C237.179 142.735 237.439 142.847 237.681 142.986V144ZM231.779 126.736C231.779 126.129 231.987 125.653 232.403 125.306C232.819 124.959 233.357 124.786 234.015 124.786C234.674 124.786 235.211 124.959 235.627 125.306C236.043 125.653 236.251 126.129 236.251 126.736C236.251 127.325 236.043 127.793 235.627 128.14C235.211 128.487 234.674 128.66 234.015 128.66C233.357 128.66 232.819 128.487 232.403 128.14C231.987 127.793 231.779 127.325 231.779 126.736ZM245.82 141.166C245.82 140.715 245.655 140.325 245.326 139.996C245.014 139.667 244.615 139.363 244.13 139.086C243.662 138.809 243.142 138.531 242.57 138.254C242.015 137.977 241.495 137.656 241.01 137.292C240.542 136.911 240.143 136.469 239.814 135.966C239.502 135.463 239.346 134.848 239.346 134.12C239.346 133.6 239.467 133.132 239.71 132.716C239.953 132.283 240.282 131.919 240.698 131.624C241.114 131.329 241.608 131.104 242.18 130.948C242.769 130.775 243.402 130.688 244.078 130.688C245.014 130.688 245.881 130.766 246.678 130.922C247.493 131.061 248.203 131.26 248.81 131.52C248.741 132.075 248.602 132.673 248.394 133.314C248.186 133.938 247.987 134.51 247.796 135.03H246.912L245.82 132.378C245.612 132.291 245.395 132.239 245.17 132.222C244.945 132.187 244.693 132.17 244.416 132.17C243.896 132.17 243.497 132.326 243.22 132.638C242.96 132.933 242.83 133.271 242.83 133.652C242.83 134.085 242.986 134.467 243.298 134.796C243.627 135.108 244.026 135.403 244.494 135.68C244.979 135.957 245.499 136.235 246.054 136.512C246.626 136.789 247.146 137.11 247.614 137.474C248.099 137.821 248.498 138.237 248.81 138.722C249.139 139.207 249.304 139.788 249.304 140.464C249.304 141.66 248.819 142.605 247.848 143.298C246.877 143.974 245.577 144.312 243.948 144.312C243.116 144.312 242.258 144.225 241.374 144.052C240.49 143.879 239.727 143.636 239.086 143.324C239.121 142.7 239.268 142.067 239.528 141.426C239.788 140.785 240.065 140.213 240.36 139.71H241.244L242.518 142.544C242.709 142.683 242.917 142.769 243.142 142.804C243.385 142.821 243.61 142.83 243.818 142.83C244.321 142.83 244.78 142.683 245.196 142.388C245.612 142.093 245.82 141.686 245.82 141.166ZM262.724 141.816C262.585 142.111 262.36 142.414 262.048 142.726C261.753 143.021 261.381 143.289 260.93 143.532C260.497 143.757 259.985 143.939 259.396 144.078C258.824 144.234 258.2 144.312 257.524 144.312C256.449 144.312 255.496 144.156 254.664 143.844C253.832 143.515 253.139 143.055 252.584 142.466C252.029 141.859 251.605 141.14 251.31 140.308C251.033 139.476 250.894 138.54 250.894 137.5C250.894 135.281 251.475 133.591 252.636 132.43C253.797 131.269 255.409 130.688 257.472 130.688C258.356 130.688 259.179 130.809 259.942 131.052C260.722 131.295 261.363 131.693 261.866 132.248C262.386 132.803 262.741 133.531 262.932 134.432C263.14 135.333 263.131 136.434 262.906 137.734H254.924C254.941 139.103 255.288 140.195 255.964 141.01C256.657 141.825 257.671 142.232 259.006 142.232C259.578 142.232 260.167 142.145 260.774 141.972C261.398 141.799 261.883 141.573 262.23 141.296L262.724 141.816ZM257.368 132.17C257.021 132.17 256.709 132.231 256.432 132.352C256.172 132.473 255.938 132.699 255.73 133.028C255.539 133.34 255.383 133.773 255.262 134.328C255.141 134.865 255.054 135.55 255.002 136.382H259.188C259.309 135.03 259.231 133.99 258.954 133.262C258.677 132.534 258.148 132.17 257.368 132.17ZM265.431 147.406C265.777 147.302 266.089 147.146 266.367 146.938C266.644 146.73 266.878 146.496 267.069 146.236C267.277 145.976 267.433 145.699 267.537 145.404C267.641 145.109 267.684 144.823 267.667 144.546C267.424 144.234 267.129 143.983 266.783 143.792C266.453 143.601 266.098 143.445 265.717 143.324C265.63 142.96 265.613 142.596 265.665 142.232C265.734 141.868 265.855 141.53 266.029 141.218C266.202 140.906 266.401 140.646 266.627 140.438C266.869 140.213 267.121 140.074 267.381 140.022C267.745 140.039 268.1 140.126 268.447 140.282C268.793 140.421 269.105 140.629 269.383 140.906C269.66 141.166 269.877 141.504 270.033 141.92C270.206 142.336 270.293 142.821 270.293 143.376C270.293 143.913 270.18 144.459 269.955 145.014C269.747 145.569 269.452 146.08 269.071 146.548C268.707 147.033 268.265 147.449 267.745 147.796C267.225 148.16 266.653 148.411 266.029 148.55L265.431 147.406Z" fill="#531A10"/>
</svg>
